<?xml version="1.0" standalone="no"?>
<!DOCTYPE svg PUBLIC "-//W3C//DTD SVG 1.1//EN" "http://www.w3.org/Graphics/SVG/1.1/DTD/svg11.dtd" >
<svg xmlns="http://www.w3.org/2000/svg" xmlns:xlink="http://www.w3.org/1999/xlink" version="1.1">
<metadata>
Created by FontForge 20160407 at Tue Oct  4 19:48:21 2016
 By Jimmy Warting
Copyright 2015-2016 Google Inc. All Rights Reserved.
</metadata>
<defs>
<font id="ProductSans-Light" horiz-adv-x="650" >
  <font-face 
    font-family="Product Sans Light"
    font-weight="300"
    font-stretch="normal"
    units-per-em="1000"
    panose-1="2 11 3 3 3 5 2 4 2 3"
    ascent="800"
    descent="-200"
    x-height="490"
    cap-height="716"
    bbox="-164 -253 3284 958"
    underline-thickness="50"
    underline-position="-125"
    unicode-range="U+0002-F8FF"
  />
<missing-glyph horiz-adv-x="566" 
d="M77 716h412v-716h-412v716zM127 47h312v622h-312v-622z" />
    <glyph glyph-name="f_i" unicode="fi" horiz-adv-x="531" 
d="M182 0h-64v432h-92v58h92v85q0 36 12 64t32.5 47t46.5 28.5t55 9.5q27 0 46.5 -5.5t32.5 -13.5l-18 -56q-11 7 -25.5 11.5t-33.5 4.5q-34 0 -59 -24.5t-25 -71.5v-79h284v-490h-64v432h-220v-432zM434 610q-21 0 -35.5 14.5t-14.5 34.5q0 21 14.5 35.5t35.5 14.5
q20 0 34.5 -14.5t14.5 -35.5q0 -20 -14.5 -34.5t-34.5 -14.5z" />
    <glyph glyph-name="f_l" unicode="fl" horiz-adv-x="525" 
d="M402 0v662h-129q-39 0 -65 -24t-26 -71v-77h128v-58h-128v-432h-64v432h-92v58h92v78q0 35 12 63.5t32.5 48t49 30t61.5 10.5h193v-720h-64z" />
    <glyph glyph-name="f_b" unicode="fb" horiz-adv-x="911" 
d="M402 662h-129q-39 0 -65 -24t-26 -71v-77h128v-58h-128v-432h-64v432h-92v58h92v78q0 35 12 63.5t32.5 48t49 30t61.5 10.5h193v-247l-4 -68h4q12 20 29 38.5t40 32.5t52 22t64 8q47 0 89 -19.5t73.5 -54t50 -82.5t18.5 -105t-18.5 -105t-50 -82.5t-73.5 -54t-89 -19.5
q-35 0 -64 8.5t-52 22.5t-40 32.5t-29 38.5h-4v-86h-60v662zM640 42q35 0 67.5 14t57 40t39 64t14.5 85t-14.5 84.5t-39 64t-57 40.5t-67.5 14t-67.5 -13.5t-57 -39.5t-39 -64t-14.5 -86t14.5 -85.5t39 -64t57 -40t67.5 -13.5z" />
    <glyph glyph-name="f_f" unicode="ff" horiz-adv-x="631" 
d="M548 724q27 0 46.5 -5.5t32.5 -13.5l-18 -56q-11 7 -25.5 11.5t-33.5 4.5q-34 0 -59 -24.5t-25 -71.5v-79h128v-58h-128v-432h-64v432h-220v-432h-64v432h-92v58h92v85q0 36 12 64t32.5 47t46.5 28.5t55 9.5q27 0 46.5 -5.5t32.5 -13.5l-18 -56q-11 7 -25.5 11.5
t-33.5 4.5q-34 0 -59 -24.5t-25 -71.5v-79h220v85q0 36 12 64t32.5 47t46.5 28.5t55 9.5z" />
    <glyph glyph-name="f_f_b" unicode="ffb" horiz-adv-x="1195" 
d="M686 662h-129q-39 0 -65 -24t-26 -71v-77h128v-58h-128v-432h-64v432h-220v-432h-64v432h-92v58h92v85q0 36 12 64t32.5 47t46.5 28.5t55 9.5q27 0 46.5 -5.5t32.5 -13.5l-18 -56q-11 7 -25.5 11.5t-33.5 4.5q-34 0 -59 -24.5t-25 -71.5v-79h220v78q0 35 12 63.5t32.5 48
t49 30t61.5 10.5h193v-247l-4 -68h4q12 20 29 38.5t40 32.5t52 22t64 8q47 0 89 -19.5t73.5 -54t50 -82.5t18.5 -105t-18.5 -105t-50 -82.5t-73.5 -54t-89 -19.5q-35 0 -64 8.5t-52 22.5t-40 32.5t-29 38.5h-4v-86h-60v662zM924 42q35 0 67.5 14t57 40t39 64t14.5 85
t-14.5 84.5t-39 64t-57 40.5t-67.5 14t-67.5 -13.5t-57 -39.5t-39 -64t-14.5 -86t14.5 -85.5t39 -64t57 -40t67.5 -13.5z" />
    <glyph glyph-name="f_f_h" unicode="ffh" horiz-adv-x="1161" 
d="M686 662h-129q-39 0 -65 -24t-26 -71v-77h128v-58h-128v-432h-64v432h-220v-432h-64v432h-92v58h92v85q0 36 12 64t32.5 47t46.5 28.5t55 9.5q27 0 46.5 -5.5t32.5 -13.5l-18 -56q-11 7 -25.5 11.5t-33.5 4.5q-34 0 -59 -24.5t-25 -71.5v-79h220v78q0 35 12 63.5t32.5 48
t49 30t61.5 10.5h193v-246l-4 -78h4q23 48 68 79t108 31q46 0 80 -15t56.5 -41.5t33 -63t10.5 -79.5v-307h-64v296q0 77 -35 114.5t-96 37.5q-35 0 -64 -16t-51 -42t-34 -61t-12 -72v-257h-64v662z" />
    <glyph glyph-name="f_f_i" unicode="ffi" horiz-adv-x="815" 
d="M264 724q27 0 46.5 -5.5t32.5 -13.5l-18 -56q-11 7 -25.5 11.5t-33.5 4.5q-34 0 -59 -24.5t-25 -71.5v-79h220v85q0 36 12 64t32.5 47t46.5 28.5t55 9.5q27 0 46.5 -5.5t32.5 -13.5l-18 -56q-11 7 -25.5 11.5t-33.5 4.5q-34 0 -59 -24.5t-25 -71.5v-79h284v-490h-64v432
h-220v-432h-64v432h-220v-432h-64v432h-92v58h92v85q0 36 12 64t32.5 47t46.5 28.5t55 9.5zM718 610q-21 0 -35.5 14.5t-14.5 34.5q0 21 14.5 35.5t35.5 14.5q20 0 34.5 -14.5t14.5 -35.5q0 -20 -14.5 -34.5t-34.5 -14.5z" />
    <glyph glyph-name="f_f_j" unicode="ffj" horiz-adv-x="815" 
d="M594 -161q13 -7 31 -7q32 0 46.5 21t14.5 59v520h-220v-432h-64v432h-220v-432h-64v432h-92v58h92v85q0 36 12 64t32.5 47t46.5 28.5t55 9.5q27 0 46.5 -5.5t32.5 -13.5l-18 -56q-11 7 -25.5 11.5t-33.5 4.5q-34 0 -59 -24.5t-25 -71.5v-79h220v85q0 36 11.5 64t31 47
t45 28.5t53.5 9.5q26 0 45 -5.5t32 -13.5l-17 -56q-14 8 -27 12t-31 4q-33 0 -56 -24.5t-23 -69.5v-81h284v-579q0 -67 -32 -102t-91 -35q-29 0 -49 10zM718 610q-21 0 -35.5 14.5t-14.5 34.5q0 21 14.5 35.5t35.5 14.5q20 0 34.5 -14.5t14.5 -35.5q0 -20 -14.5 -34.5
t-34.5 -14.5z" />
    <glyph glyph-name="f_f_k" unicode="ffk" horiz-adv-x="1095" 
d="M686 662h-129q-39 0 -65 -24t-26 -71v-77h128v-58h-128v-432h-64v432h-220v-432h-64v432h-92v58h92v85q0 36 12 64t32.5 47t46.5 28.5t55 9.5q27 0 46.5 -5.5t32.5 -13.5l-18 -56q-11 7 -25.5 11.5t-33.5 4.5q-34 0 -59 -24.5t-25 -71.5v-79h220v78q0 35 12 63.5t32.5 48
t49 30t61.5 10.5h193v-479l248 249h81v-4l-184 -185l202 -297v-4h-75l-173 256l-99 -99v-157h-64v662z" />
    <glyph glyph-name="f_f_l" unicode="ffl" horiz-adv-x="809" 
d="M686 0v662h-129q-39 0 -65 -24t-26 -71v-77h128v-58h-128v-432h-64v432h-220v-432h-64v432h-92v58h92v85q0 36 12 64t32.5 47t46.5 28.5t55 9.5q27 0 46.5 -5.5t32.5 -13.5l-18 -56q-11 7 -25.5 11.5t-33.5 4.5q-34 0 -59 -24.5t-25 -71.5v-79h220v78q0 35 12 63.5
t32.5 48t49 30t61.5 10.5h193v-720h-64z" />
    <glyph glyph-name="f_f_t" unicode="fft" horiz-adv-x="909" 
d="M686 432h-220v-432h-64v432h-220v-432h-64v432h-92v58h92v85q0 36 12 64t32.5 47t46.5 28.5t55 9.5q27 0 46.5 -5.5t32.5 -13.5l-18 -56q-11 7 -25.5 11.5t-33.5 4.5q-34 0 -59 -24.5t-25 -71.5v-79h220v85q0 36 12 64t32.5 47t46.5 28.5t55 9.5q27 0 46.5 -5.5
t32.5 -13.5l-18 -56q-11 7 -25.5 11.5t-33.5 4.5q-34 0 -59 -24.5t-25 -71.5v-79h220v150h64v-150h122v-58h-122v-295q0 -43 21 -64q20 -22 48 -22q15 0 25.5 2.5t23.5 8.5l20 -55q-17 -8 -34.5 -11.5t-41.5 -3.5q-52 0 -88 33q-18 17 -28 41.5t-10 59.5v306z" />
    <glyph glyph-name="f_h" unicode="fh" horiz-adv-x="877" 
d="M402 662h-129q-39 0 -65 -24t-26 -71v-77h128v-58h-128v-432h-64v432h-92v58h92v78q0 35 12 63.5t32.5 48t49 30t61.5 10.5h193v-246l-4 -78h4q23 48 68 79t108 31q46 0 80 -15t56.5 -41.5t33 -63t10.5 -79.5v-307h-64v296q0 77 -35 114.5t-96 37.5q-35 0 -64 -16
t-51 -42t-34 -61t-12 -72v-257h-64v662z" />
    <glyph glyph-name="f_j" unicode="fj" horiz-adv-x="531" 
d="M182 432v-432h-64v432h-92v58h92v85q0 36 12 64t32.5 47t46.5 28.5t55 9.5q27 0 46.5 -5.5t32.5 -13.5l-18 -56q-11 7 -25.5 11.5t-33.5 4.5q-34 0 -59 -24.5t-25 -71.5v-79h284v-579q0 -67 -32 -102t-91 -35q-29 0 -49 10l16 55q13 -7 31 -7q32 0 46.5 21t14.5 59v520
h-220zM434 610q-21 0 -35.5 14.5t-14.5 34.5q0 21 14.5 35.5t35.5 14.5q20 0 34.5 -14.5t14.5 -35.5q0 -20 -14.5 -34.5t-34.5 -14.5z" />
    <glyph glyph-name="f_k" unicode="fk" horiz-adv-x="811" 
d="M402 662h-129q-39 0 -65 -24t-26 -71v-77h128v-58h-128v-432h-64v432h-92v58h92v78q0 35 12 63.5t32.5 48t49 30t61.5 10.5h193v-479l248 249h81v-4l-184 -185l202 -297v-4h-75l-173 256l-99 -99v-157h-64v662z" />
    <glyph glyph-name="f_t" unicode="ft" horiz-adv-x="625" 
d="M402 432h-220v-432h-64v432h-92v58h92v85q0 36 12 64t32.5 47t46.5 28.5t55 9.5q27 0 46.5 -5.5t32.5 -13.5l-18 -56q-11 7 -25.5 11.5t-33.5 4.5q-34 0 -59 -24.5t-25 -71.5v-79h220v150h64v-150h122v-58h-122v-295q0 -43 21 -64q20 -22 48 -22q15 0 25.5 2.5t23.5 8.5
l20 -55q-17 -8 -34.5 -11.5t-41.5 -3.5q-52 0 -88 33q-18 17 -28 41.5t-10 59.5v306z" />
    <glyph glyph-name="r_f" unicode="rf" horiz-adv-x="690" 
d="M120 407h4q18 45 56 71t86 26q12 0 19.5 -0.5t16.5 -2.5v-64q-19 4 -42 4q-29 0 -54 -12.5t-43 -34.5t-28.5 -52.5t-10.5 -66.5v-275h-64v490h60v-83zM607 724q27 0 46.5 -5.5t32.5 -13.5l-18 -56q-11 7 -25.5 11.5t-33.5 4.5q-34 0 -59 -24.5t-25 -71.5v-79h128v-58
h-128v-432h-64v432h-92v58h92v85q0 36 12 64t32.5 47t46.5 28.5t55 9.5z" />
    <glyph glyph-name="r_f_f" unicode="rff" horiz-adv-x="974" 
d="M891 724q27 0 46.5 -5.5t32.5 -13.5l-18 -56q-11 7 -25.5 11.5t-33.5 4.5q-34 0 -59 -24.5t-25 -71.5v-79h128v-58h-128v-432h-64v432h-220v-432h-64v432h-92v58h92v85q0 36 12 64t32.5 47t46.5 28.5t55 9.5q27 0 46.5 -5.5t32.5 -13.5l-18 -56q-11 7 -25.5 11.5
t-33.5 4.5q-34 0 -59 -24.5t-25 -71.5v-79h220v85q0 36 12 64t32.5 47t46.5 28.5t55 9.5zM120 407h4q18 45 56 71t86 26q12 0 19.5 -0.5t16.5 -2.5v-64q-19 4 -42 4q-29 0 -54 -12.5t-43 -34.5t-28.5 -52.5t-10.5 -66.5v-275h-64v490h60v-83z" />
    <glyph glyph-name="r_t" unicode="rt" horiz-adv-x="681" 
d="M120 407h4q18 45 56 71t86 26q12 0 19.5 -0.5t16.5 -2.5v-64q-19 4 -42 4q-29 0 -54 -12.5t-43 -34.5t-28.5 -52.5t-10.5 -66.5v-275h-64v490h60v-83zM458 432h-89v58h89v150h64v-150h122v-58h-122v-295q0 -43 21 -64q20 -22 48 -22q15 0 25.5 2.5t23.5 8.5l20 -55
q-17 -8 -34.5 -11.5t-41.5 -3.5q-52 0 -88 33q-18 17 -28 41.5t-10 59.5v306z" />
    <glyph glyph-name="t_f" unicode="tf" horiz-adv-x="628" 
d="M545 724q27 0 46.5 -5.5t32.5 -13.5l-18 -56q-11 7 -25.5 11.5t-33.5 4.5q-34 0 -59 -24.5t-25 -71.5v-79h128v-58h-128v-432h-64v432h-220v-295q0 -43 21 -64q20 -22 48 -22q15 0 25.5 2.5t23.5 8.5l20 -55q-17 -8 -34.5 -11.5t-41.5 -3.5q-52 0 -88 33q-18 17 -28 41.5
t-10 59.5v306h-89v58h89v150h64v-150h220v85q0 36 12 64t32.5 47t46.5 28.5t55 9.5z" />
    <glyph glyph-name="t_t" unicode="tt" horiz-adv-x="626" 
d="M179 137q0 -43 21 -64q20 -22 48 -22q15 0 25.5 2.5t23.5 8.5l20 -55q-17 -8 -34.5 -11.5t-41.5 -3.5q-52 0 -88 33q-18 17 -28 41.5t-10 59.5v306h-89v58h89v150h64v-150h224v150h64v-150h122v-58h-122v-295q0 -43 21 -64q20 -22 48 -22q15 0 25.5 2.5t23.5 8.5l20 -55
q-17 -8 -34.5 -11.5t-41.5 -3.5q-52 0 -88 33q-18 17 -28 41.5t-10 59.5v306h-224v-295z" />
    <glyph glyph-name=".notdef" horiz-adv-x="566" 
d="M77 716h412v-716h-412v716zM127 47h312v622h-312v-622z" />
    <glyph glyph-name="Eth" unicode="&#xd0;" horiz-adv-x="743" 
d="M136 331h-76v53h76v332h208q84 0 151 -26.5t113.5 -73.5t71 -113t24.5 -145t-24.5 -145t-71 -113t-113.5 -73.5t-151 -26.5h-208v331zM344 61q67 0 121.5 20t93 58t59.5 93t21 126q0 70 -21 125.5t-59.5 93.5t-93 58t-121.5 20h-144v-271h212v-53h-212v-270h144z" />
    <glyph glyph-name="eth" unicode="&#xf0;" horiz-adv-x="568" 
d="M158 562l119 53q-32 19 -65 31.5t-68 22.5l22 55q100 -28 175 -81l96 42l21 -50l-70 -31q137 -129 137 -343q0 -61 -17 -112t-48.5 -87.5t-76.5 -57t-100 -20.5q-50 0 -93.5 19t-76 52.5t-51.5 79t-19 97.5q0 55 19.5 100t52 76.5t74.5 48.5t88 17q31 0 56 -7t44.5 -17.5
t33.5 -22.5t23 -23l6 3q-15 51 -44.5 95t-67.5 75l-149 -66zM283 44q37 0 69 13.5t56 38.5t38 59t14 76q0 41 -14.5 75t-38.5 58.5t-56 38t-66 13.5q-37 0 -69 -13.5t-56 -38t-38 -58.5t-14 -75q0 -42 14 -76t38 -59t55.5 -38.5t67.5 -13.5z" />
    <glyph glyph-name="Lslash" unicode="&#x141;" horiz-adv-x="557" 
d="M143 295l-68 -42l-30 47l98 62v354h64v-310l146 91l30 -48l-176 -110v-278h324v-61h-388v295z" />
    <glyph glyph-name="lslash" unicode="&#x142;" horiz-adv-x="338" 
d="M136 0v316l-70 -51l-34 44l104 76v331h64v-289l83 62l33 -45l-116 -86v-358h-64z" />
    <glyph glyph-name="Scaron" unicode="&#x160;" horiz-adv-x="542" 
d="M140 900h63l63 -72h8l62 72h64v-5l-101 -114h-59l-100 114v5zM270 -16q-39 0 -77 12.5t-71 37t-58.5 60.5t-37.5 83l60 25q9 -34 26.5 -63t41.5 -50t54 -32.5t64 -11.5q33 0 63 9.5t52.5 28t35.5 45t13 59.5q0 57 -42 92.5t-122 63.5l-45 16q-32 11 -63 26.5t-55.5 37.5
t-39.5 52.5t-15 71.5q0 37 15.5 71t43.5 59t67 40t85 15q49 0 86 -14.5t63.5 -36t42 -46.5t22.5 -46l-60 -25q-5 18 -16.5 36.5t-30.5 34.5t-45 26t-61 10q-30 0 -56.5 -9t-47 -25.5t-32 -39.5t-11.5 -50q0 -26 10.5 -45.5t29.5 -35t45 -28t57 -23.5l46 -17q40 -14 75.5 -32
t61.5 -42.5t41.5 -57.5t15.5 -76q0 -54 -21 -93t-54 -64t-74.5 -37t-81.5 -12z" />
    <glyph glyph-name="scaron" unicode="&#x161;" horiz-adv-x="448" 
d="M94 716h63l63 -72h8l62 72h64v-5l-101 -114h-59l-100 114v5zM231 -16q-40 0 -73.5 11.5t-59 31t-44 45t-28.5 53.5l57 24q20 -53 60.5 -80.5t87.5 -27.5q59 0 93 26t34 62q0 15 -5 28t-18 24.5t-35 21t-56 17.5l-68 16q-23 6 -47.5 15.5t-44.5 25t-32.5 37.5t-12.5 51
q0 34 15.5 60t42 44t60.5 27.5t70 9.5q31 0 60 -7.5t53.5 -21.5t43.5 -35.5t30 -49.5l-56 -23q-20 42 -54.5 61t-79.5 19q-22 0 -43.5 -5.5t-38.5 -16t-27.5 -26t-10.5 -34.5q0 -31 26.5 -48t74.5 -29l72 -18q75 -19 110.5 -54.5t35.5 -83.5q0 -31 -13.5 -58t-39 -47.5
t-61 -32.5t-78.5 -12z" />
    <glyph glyph-name="Yacute" unicode="&#xdd;" horiz-adv-x="579" 
d="M260 0v324l-247 392h75l202 -326h4l198 326h75l-243 -392v-324h-64zM257 776l52 124h73l-67 -124h-58z" />
    <glyph glyph-name="yacute" unicode="&#xfd;" horiz-adv-x="478" 
d="M98 -216l113 252l-206 454h71l166 -378h2l159 378h70l-309 -706h-66zM213 592l52 124h73l-67 -124h-58z" />
    <glyph glyph-name="Thorn" unicode="&#xde;" horiz-adv-x="557" 
d="M77 0v716h64v-126h168q46 0 86.5 -15t70.5 -42.5t47.5 -66t17.5 -85.5t-17.5 -85.5t-47.5 -66t-70.5 -42.5t-86.5 -15h-168v-172h-64zM141 529v-296h171q33 0 61 11.5t48.5 31.5t32.5 47t12 58t-12 58.5t-32.5 47t-48.5 31t-61 11.5h-171z" />
    <glyph glyph-name="thorn" unicode="&#xfe;" horiz-adv-x="569" 
d="M309 -16q-35 0 -64 8.5t-52 22.5t-40 32.5t-29 38.5h-4l4 -68v-234h-64v932h64v-243l-4 -68h4q12 20 29 38.5t40 32.5t52 22t64 8q47 0 89 -19.5t73.5 -54t50 -82.5t18.5 -105t-18.5 -105t-50 -82.5t-73.5 -54t-89 -19.5zM298 42q35 0 67.5 14t57 40t39 64t14.5 85
t-14.5 84.5t-39 64t-57 40.5t-67.5 14t-67.5 -13.5t-57 -39.5t-39 -64t-14.5 -86t14.5 -85.5t39 -64t57 -40t67.5 -13.5z" />
    <glyph glyph-name="uni000D" unicode="&#xd;" horiz-adv-x="0" 
d="M0 0z" />
    <glyph glyph-name="Zcaron" unicode="&#x17d;" horiz-adv-x="553" 
d="M153 900h63l63 -72h8l62 72h64v-5l-101 -114h-59l-100 114v5zM34 69l400 586h-384v61h456v-69l-400 -586h404v-61h-476v69z" />
    <glyph glyph-name="zcaron" unicode="&#x17e;" horiz-adv-x="450" 
d="M104 716h63l63 -72h8l62 72h64v-5l-101 -114h-59l-100 114v5zM34 54l300 378h-292v58h370v-54l-300 -378h304v-58h-382v54z" />
    <glyph glyph-name="onehalf" unicode="&#xbd;" horiz-adv-x="769" 
d="M470 1v45l136 136q22 23 36 42t14 45q0 25 -18 42t-47 17q-27 0 -47.5 -15.5t-28.5 -51.5l-46 19q10 45 43.5 70t75.5 25q24 0 45.5 -7.5t38 -21t26 -33.5t9.5 -44q0 -18 -6 -34.5t-14.5 -30t-18.5 -24.5t-19 -20l-112 -112h172v-47h-239zM93 25l467 695l42 -29
l-466 -695zM141 350v303l-71 -31l-18 41l112 53h28v-366h-51z" />
    <glyph glyph-name="onequarter" unicode="&#xbc;" horiz-adv-x="723" 
d="M99 25l467 695l42 -29l-466 -695zM141 350v303l-71 -31l-18 41l112 53h28v-366h-51zM389 114l180 253h43v-241h52v-45h-52v-80h-51v80h-172v33zM561 126v154h-4l-109 -154h113z" />
    <glyph glyph-name="onesuperior" unicode="&#xb9;" horiz-adv-x="230" 
d="M115 350v303l-71 -31l-18 41l112 53h28v-366h-51z" />
    <glyph glyph-name="threequarters" unicode="&#xbe;" horiz-adv-x="823" 
d="M183 342q-21 0 -41.5 5.5t-38.5 17.5t-31.5 30.5t-19.5 44.5l46 18q10 -37 32.5 -53t52.5 -16q33 0 54.5 19t21.5 48q0 31 -22.5 46.5t-53.5 15.5h-37v45h32q27 0 47.5 15.5t20.5 42.5q0 26 -19 41t-45 15q-31 0 -47 -15t-23 -35l-45 18q13 36 42.5 57.5t71.5 21.5
q54 0 85.5 -29t31.5 -72q0 -28 -15 -47.5t-35 -31.5q26 -12 44.5 -33t18.5 -53q0 -27 -10.5 -48.5t-28 -36.5t-40.5 -23t-49 -8zM487 114l180 253h43v-241h52v-45h-52v-80h-51v80h-172v33zM659 126v154h-4l-109 -154h113zM183 25l467 695l42 -29l-466 -695z" />
    <glyph glyph-name="threesuperior" unicode="&#xb3;" horiz-adv-x="319" 
d="M153 342q-21 0 -41.5 5.5t-38.5 17.5t-31.5 30.5t-19.5 44.5l46 18q10 -37 32.5 -53t52.5 -16q33 0 54.5 19t21.5 48q0 31 -22.5 46.5t-53.5 15.5h-37v45h32q27 0 47.5 15.5t20.5 42.5q0 26 -19 41t-45 15q-31 0 -47 -15t-23 -35l-45 18q13 36 42.5 57.5t71.5 21.5
q54 0 85.5 -29t31.5 -72q0 -28 -15 -47.5t-35 -31.5q26 -12 44.5 -33t18.5 -53q0 -27 -10.5 -48.5t-28 -36.5t-40.5 -23t-49 -8z" />
    <glyph glyph-name="twosuperior" unicode="&#xb2;" horiz-adv-x="296" 
d="M21 350v45l136 136q22 23 36 42t14 45q0 25 -18 42t-47 17q-27 0 -47.5 -15.5t-28.5 -51.5l-46 19q10 45 43.5 70t75.5 25q24 0 45.5 -7.5t38 -21t26 -33.5t9.5 -44q0 -18 -6 -34.5t-14.5 -30t-18.5 -24.5t-19 -20l-112 -112h172v-47h-239z" />
    <glyph glyph-name="brokenbar" unicode="&#xa6;" horiz-adv-x="212" 
d="M77 376v380h58v-380h-58zM77 -120v412h58v-412h-58z" />
    <glyph glyph-name="minus" unicode="&#x2212;" horiz-adv-x="544" 
d="M60 244v54h425v-54h-425z" />
    <glyph glyph-name="multiply" unicode="&#xd7;" horiz-adv-x="522" 
d="M223 271l-159 156l37 37l160 -156l160 156l37 -37l-160 -156l160 -155l-37 -37l-160 156l-160 -156l-37 37z" />
    <glyph glyph-name="space" unicode=" " horiz-adv-x="235" 
d="M0 0z" />
    <glyph glyph-name="exclam" unicode="!" horiz-adv-x="205" 
d="M103 -6q-22 0 -37 15t-15 37t15 36.5t37 14.5t36.5 -14.5t14.5 -36.5t-14.5 -37t-36.5 -15zM71 425v291h64v-291l-9 -243h-46z" />
    <glyph glyph-name="quotedbl" unicode="&#x22;" horiz-adv-x="281" 
d="M176 510v206h58v-206h-58zM47 510v206h58v-206h-58z" />
    <glyph glyph-name="numbersign" unicode="#" horiz-adv-x="615" 
d="M119 0l32 213h-126l10 54h124l23 159h-124l9 54h123l31 204h58l-31 -204h158l31 204h58l-31 -204h126l-9 -54h-125l-23 -159h125l-9 -54h-124l-32 -213h-58l32 213h-158l-32 -213h-58zM217 267h158l23 159h-158z" />
    <glyph glyph-name="dollar" unicode="$" horiz-adv-x="525" 
d="M240 -15q-33 3 -66.5 16.5t-62.5 36t-51.5 54.5t-33.5 73l57 24q17 -58 59.5 -96.5t97.5 -46.5v281q-42 17 -76.5 36t-59 42t-37.5 52.5t-13 67.5q0 33 13 63.5t37 54t58.5 38.5t77.5 18v85h54v-86q39 -5 68 -19t50 -33t34.5 -41t20.5 -41l-58 -24q-11 31 -38.5 59.5
t-76.5 36.5v-264q38 -16 72.5 -34.5t60.5 -41.5t41 -53t15 -69q0 -44 -15.5 -77.5t-42 -56.5t-60.5 -36.5t-71 -17.5v-86h-54v85zM419 171q0 24 -9 43t-25 34.5t-39.5 29t-51.5 26.5v-257q55 7 90 38.5t35 85.5zM118 526q0 -48 32 -77.5t90 -54.5v244q-54 -5 -88 -34.5
t-34 -77.5z" />
    <glyph glyph-name="percent" unicode="%" horiz-adv-x="810" 
d="M161 25l445 662l43 -28l-445 -663zM201 358q-36 0 -66.5 14t-53 37t-35 54t-12.5 66q0 34 12.5 65.5t35 54.5t53 37t66.5 14t66.5 -14t53 -37t35 -54.5t12.5 -65.5q0 -35 -12.5 -66t-35 -54t-53 -37t-66.5 -14zM201 407q24 0 45 9t36.5 25.5t24 39t8.5 48.5
q0 27 -8.5 49.5t-24 39t-36.5 25.5t-45 9t-45 -9t-36 -25.5t-24 -39t-9 -49.5q0 -26 9 -48.5t24 -39t36 -25.5t45 -9zM609 -16q-36 0 -66.5 14t-53 37t-35 54t-12.5 66q0 34 12.5 65.5t35 54.5t53 37t66.5 14t66.5 -14t53 -37t35 -54.5t12.5 -65.5q0 -35 -12.5 -66t-35 -54
t-53 -37t-66.5 -14zM609 33q24 0 45 9t36.5 25.5t24 39t8.5 48.5q0 27 -8.5 49.5t-24 39t-36.5 25.5t-45 9t-45 -9t-36 -25.5t-24 -39t-9 -49.5q0 -26 9 -48.5t24 -39t36 -25.5t45 -9z" />
    <glyph glyph-name="ampersand" unicode="&#x26;" horiz-adv-x="604" 
d="M495 113l71 -92l-49 -37l-57 75q-34 -38 -75 -56.5t-95 -18.5t-100 19.5t-79.5 52.5t-52.5 78t-19 96q0 66 36 122t93 91l-6 8q-20 26 -35 57t-15 66q0 33 12.5 61.5t34.5 50t51.5 34t64.5 12.5q31 0 56.5 -10t44.5 -26.5t32 -39t21 -46.5l-55 -29q-5 16 -13.5 32.5
t-20.5 29t-28 20.5t-37 8q-45 0 -72 -27t-27 -69q0 -23 8.5 -45t22.5 -39l250 -327l74 130l51 -31zM291 43q42 0 74.5 16.5t57.5 47.5l-220 289q-45 -25 -74.5 -68t-29.5 -94q0 -41 14.5 -76t40.5 -60.5t61 -40t76 -14.5z" />
    <glyph glyph-name="quotesingle" unicode="'" horiz-adv-x="152" 
d="M47 510v206h58v-206h-58z" />
    <glyph glyph-name="parenleft" unicode="(" horiz-adv-x="315" 
d="M246 -136q-30 34 -61.5 82t-57.5 106.5t-42.5 126.5t-16.5 143q0 76 16.5 144t42.5 126.5t57.5 105.5t61.5 82l48 -34q-32 -38 -61.5 -84.5t-52 -100.5t-36 -114t-13.5 -125t13.5 -125t36 -114t52 -101t61.5 -84z" />
    <glyph glyph-name="parenright" unicode=")" horiz-adv-x="315" 
d="M21 -102q32 37 61.5 84t52 101t36 114t13.5 125t-13.5 125t-36 114t-52 100.5t-61.5 84.5l48 34q30 -35 61.5 -82t57.5 -105.5t42.5 -126.5t16.5 -144q0 -75 -16.5 -143t-42.5 -126.5t-57.5 -106.5t-61.5 -82z" />
    <glyph glyph-name="asterisk" unicode="*" horiz-adv-x="413" 
d="M61 633l110 -39l8 4v118h56v-118l7 -4l111 39l18 -53l-113 -39l-2 -9l75 -102l-46 -33l-74 102h-9l-73 -102l-46 33l75 102l-3 9l-112 39z" />
    <glyph glyph-name="plus" unicode="+" horiz-adv-x="544" 
d="M299 298h186v-54h-186v-185h-54v185h-185v54h185v186h54v-186z" />
    <glyph glyph-name="comma" unicode="," horiz-adv-x="217" 
d="M47 -82l51 81q-13 4 -24 16t-11 31q0 22 14.5 36.5t36.5 14.5t37 -14.5t15 -36.5q0 -14 -6 -25.5t-14 -24.5l-66 -99z" />
    <glyph glyph-name="hyphen" unicode="-" horiz-adv-x="429" 
d="M60 337h310v-54h-310v54z" />
    <glyph glyph-name="period" unicode="." horiz-adv-x="205" 
d="M103 -6q-22 0 -37 15t-15 37t15 36.5t37 14.5t36.5 -14.5t14.5 -36.5t-14.5 -37t-36.5 -15z" />
    <glyph glyph-name="slash" unicode="/" horiz-adv-x="415" 
d="M29 0l297 716h61l-297 -716h-61z" />
    <glyph glyph-name="zero" unicode="0" horiz-adv-x="630" 
d="M315 -16q-62 0 -111.5 28t-84.5 76t-53.5 113.5t-18.5 140.5t18.5 140.5t53.5 114t84.5 76t111.5 27.5t111.5 -27.5t84.5 -76t53.5 -114t18.5 -140.5t-18.5 -140.5t-53.5 -113.5t-84.5 -76t-111.5 -28zM315 45q47 0 84.5 23t64 63t40.5 94t14 117t-14 117.5t-40.5 94
t-64 62.5t-84.5 23t-84.5 -23t-64 -62.5t-40.5 -94t-14 -117.5t14 -117t40.5 -94t64 -63t84.5 -23z" />
    <glyph glyph-name="one" unicode="1" horiz-adv-x="351" 
d="M198 0v605l-130 -62l-25 53l178 88h41v-684h-64z" />
    <glyph glyph-name="two" unicode="2" horiz-adv-x="512" 
d="M43 0v65l101 101q21 21 42 42.5t41 42.5t38 39q17 18 29 32q27 29 45.5 51.5t30 43t17 41.5t5.5 47q0 24 -9 48t-27 43t-45 31t-64 12q-33 0 -58 -11t-42 -28t-27.5 -36.5t-14.5 -36.5l-59 24q6 21 21 47t39.5 48.5t60 38t83.5 15.5t86.5 -16t65 -43t41 -62t14.5 -73
q0 -35 -9.5 -65.5t-25.5 -58t-36.5 -52.5t-42.5 -48l-23 -23q-14 -15 -31 -32l-36 -36q-19 -20 -37 -38q-43 -43 -91 -92h340v-61h-422z" />
    <glyph glyph-name="three" unicode="3" horiz-adv-x="520" 
d="M254 -16q-31 0 -64 9.5t-62.5 30t-53 53t-35.5 77.5l58 24q17 -63 59 -98t98 -35q34 0 63 11t50.5 30.5t33.5 46.5t12 59q0 30 -12.5 55.5t-34 44.5t-50.5 29.5t-63 10.5h-58v60h57q58 0 97.5 33t39.5 92q0 26 -10.5 48.5t-29 39t-43.5 25.5t-54 9q-31 0 -54.5 -9.5
t-40.5 -24.5t-27.5 -34t-16.5 -37l-58 25q7 23 22.5 48t40 45.5t58 34t76.5 13.5q44 0 81 -14t64 -38t42 -57.5t15 -72.5q0 -30 -8.5 -54.5t-22.5 -43t-32 -32t-37 -22.5v-4q51 -19 87.5 -62t36.5 -107q0 -46 -17.5 -84.5t-48 -66t-71.5 -43t-87 -15.5z" />
    <glyph glyph-name="four" unicode="4" horiz-adv-x="579" 
d="M380 0v157h-337v44l329 483h72v-467h88v-60h-88v-157h-64zM380 590h-4l-255 -373h259v373z" />
    <glyph glyph-name="five" unicode="5" horiz-adv-x="550" 
d="M267 -16q-36 0 -71 11t-65 34t-53 57.5t-35 81.5l57 23q18 -70 61 -108t104 -38q38 0 69.5 12t54 34.5t34.5 53t12 68.5q0 37 -12 67.5t-33.5 53t-52 35t-67.5 12.5q-39 0 -74.5 -17.5t-58.5 -49.5l-69 30l44 340h342v-61h-288l-33 -238l4 -1q25 25 61 40.5t83 15.5
q45 0 84.5 -17t69 -47t47 -71.5t17.5 -90.5q0 -48 -17 -90t-47.5 -73t-73.5 -49t-94 -18z" />
    <glyph glyph-name="six" unicode="6" horiz-adv-x="548" 
d="M289 434q41 0 80 -16.5t69.5 -46t49 -70.5t18.5 -89q0 -45 -18 -86.5t-49 -73t-73.5 -50t-90.5 -18.5q-54 0 -97 19.5t-73 52t-46 73.5t-16 84q0 61 26 113t61 104l180 270l52 -36l-182 -259l2 -2q20 14 48 22.5t59 8.5zM275 45q34 0 64.5 12.5t53 35t35.5 53t13 65.5
t-13 65t-35.5 52.5t-53 35t-64.5 12.5q-35 0 -65 -12.5t-53 -35t-36 -52.5t-13 -65t13 -65.5t35.5 -53t53 -35t65.5 -12.5z" />
    <glyph glyph-name="seven" unicode="7" horiz-adv-x="516" 
d="M85 13l323 610h-365l2 61h429v-66l-332 -634z" />
    <glyph glyph-name="eight" unicode="8" horiz-adv-x="541" 
d="M162 363q-41 23 -68 62.5t-27 87.5q0 40 15 74t42 59t64.5 39.5t82.5 14.5q44 0 81.5 -14.5t64.5 -39.5t42.5 -59t15.5 -74q0 -48 -27.5 -87.5t-67.5 -62.5v-4q51 -24 85 -67t34 -106q0 -42 -17 -79t-47.5 -64.5t-72.5 -43t-91 -15.5q-50 0 -92 15.5t-72 43t-47 64.5
t-17 79q0 63 33.5 106t85.5 67v4zM108 189q0 -32 13 -58.5t35 -45.5t52 -29.5t63 -10.5t62.5 10.5t52 29.5t35.5 45.5t13 58.5t-12.5 58t-34.5 45t-52 29t-64 10t-64 -10t-52 -29t-34.5 -45t-12.5 -58zM132 516q0 -59 39 -93t100 -34q60 0 99.5 34t39.5 93q0 29 -11.5 52
t-30.5 38.5t-44 24t-53 8.5t-53.5 -8.5t-44.5 -24t-30 -38.5t-11 -52z" />
    <glyph glyph-name="nine" unicode="9" horiz-adv-x="548" 
d="M260 250q-41 0 -80 16.5t-69.5 46t-49 70.5t-18.5 89q0 45 18 86.5t49 73t73.5 50t90.5 18.5q54 0 97 -20t73 -52t46 -73t16 -84q0 -61 -26 -113t-61 -104l-181 -270l-51 36l181 259l-2 2q-20 -14 -47.5 -22.5t-58.5 -8.5zM274 639q-35 0 -65 -12.5t-53 -35t-36 -53
t-13 -65.5t13.5 -65t36 -52.5t53 -35t64.5 -12.5t64.5 12.5t53 35t36 52.5t13.5 65t-13 65.5t-35.5 53t-53 35t-65.5 12.5z" />
    <glyph glyph-name="colon" unicode=":" horiz-adv-x="205" 
d="M103 -6q-22 0 -37 15t-15 37t15 36.5t37 14.5t36.5 -14.5t14.5 -36.5t-14.5 -37t-36.5 -15zM103 393q-22 0 -37 15t-15 37t15 36.5t37 14.5t36.5 -14.5t14.5 -36.5t-14.5 -37t-36.5 -15z" />
    <glyph glyph-name="semicolon" unicode=";" horiz-adv-x="203" 
d="M101 393q-22 0 -37 15t-15 37t15 36.5t37 14.5t36.5 -14.5t14.5 -36.5t-14.5 -37t-36.5 -15zM34 -72l51 81q-14 3 -25 15.5t-11 30.5q0 22 15 37t37 15t36.5 -15t14.5 -37q0 -14 -5.5 -25t-13.5 -24l-66 -100z" />
    <glyph glyph-name="less" unicode="&#x3c;" horiz-adv-x="490" 
d="M60 247v48l366 180v-61l-294 -141v-4l294 -141v-61z" />
    <glyph glyph-name="equal" unicode="=" horiz-adv-x="556" 
d="M60 441h437v-54h-437v54zM60 251h437v-54h-437v54z" />
    <glyph glyph-name="greater" unicode="&#x3e;" horiz-adv-x="490" 
d="M64 67v61l294 141v4l-294 141v61l366 -180v-48z" />
    <glyph glyph-name="question" unicode="?" horiz-adv-x="485" 
d="M202 233q0 33 5 57.5t15.5 44.5t27.5 38.5t42 41.5q37 34 57 63t20 70q0 54 -35.5 88.5t-97.5 34.5q-30 0 -52.5 -9t-39 -24t-28 -34.5t-18.5 -40.5l-59 25q8 24 23.5 49.5t39.5 46.5t57 34.5t76 13.5q46 0 83 -14.5t63 -39t39.5 -58t13.5 -71.5q0 -32 -9 -57.5t-23 -46
t-31 -37t-33 -31.5q-19 -17 -32.5 -32.5t-22 -32t-12.5 -36.5t-4 -46v-48h-65v51zM234 -6q-22 0 -36.5 15t-14.5 37t14.5 36.5t36.5 14.5t37 -14.5t15 -36.5t-15 -37t-37 -15z" />
    <glyph glyph-name="at" unicode="@" horiz-adv-x="869" 
d="M436 690q82 0 152.5 -30t122.5 -82.5t81.5 -123t29.5 -150.5q0 -45 -9.5 -83t-27.5 -65.5t-44.5 -43.5t-60.5 -16q-42 0 -71 25t-40 60q-24 -40 -62 -62.5t-87 -22.5q-40 0 -74.5 15t-60 42t-40.5 64.5t-15 82.5t15 82.5t40.5 64.5t60 42t72.5 15q45 0 81 -20.5t57 -51.5
h4v58h53v-261q0 -35 17.5 -60t52.5 -25q23 0 39.5 13.5t27 36t15 51t4.5 59.5q0 69 -26 130t-71 106t-105.5 71t-130.5 26q-69 0 -129.5 -26t-106 -71t-71.5 -105.5t-26 -130.5q0 -69 26 -130t71.5 -106t106 -71t129.5 -26q36 0 68 7t61 23l21 -51q-35 -16 -71.5 -24
t-78.5 -8q-83 0 -154 30.5t-123.5 83t-82 122.5t-29.5 150q0 79 30 149.5t82.5 123t123.5 83t153 30.5zM424 150q28 0 53 10.5t43.5 30t29.5 47t11 62.5t-11 63t-30 47.5t-44 29.5t-52 10t-52 -10.5t-43.5 -30t-30 -47t-11.5 -62.5t11 -62.5t29.5 -47t43.5 -30t53 -10.5z
" />
    <glyph glyph-name="A" unicode="A" horiz-adv-x="653" 
d="M290 716h74l277 -716h-70l-78 207h-332l-78 -207h-70zM470 267l-141 371h-4l-141 -371h286z" />
    <glyph glyph-name="B" unicode="B" horiz-adv-x="587" 
d="M77 716h253q40 0 76 -14t63.5 -39t43.5 -59.5t16 -75.5q0 -54 -28 -94t-74 -62v-4q55 -17 90.5 -62.5t35.5 -105.5q0 -44 -17 -81t-45.5 -63.5t-67 -41t-80.5 -14.5h-266v716zM329 396q31 0 56 11t43 29t27.5 41.5t9.5 48.5t-9.5 48t-27 41t-41.5 29t-54 11h-192v-259
h188zM350 61q29 0 54 11t44 30t29.5 44t10.5 53t-11 52.5t-30 43.5t-45 30t-56 11h-205v-275h209z" />
    <glyph glyph-name="C" unicode="C" horiz-adv-x="725" 
d="M686 114q-48 -58 -117.5 -94t-161.5 -36q-79 0 -146 29t-116 79.5t-77 119t-28 146.5t28 146.5t77 119t116 79.5t146 29q83 0 147 -30.5t112 -86.5l-46 -44q-82 100 -213 100q-62 0 -117 -23t-96 -64t-65 -98.5t-24 -127.5t24 -127.5t65 -99t96 -64t117 -22.5
q75 0 132 30t101 83z" />
    <glyph glyph-name="D" unicode="D" horiz-adv-x="685" 
d="M77 716h208q84 0 151 -26.5t113.5 -73.5t71 -113t24.5 -145t-24.5 -145t-71 -113t-113.5 -73.5t-151 -26.5h-208v716zM285 61q67 0 121.5 20t93 58t59.5 93t21 126q0 70 -21 125.5t-59.5 93.5t-93 58t-121.5 20h-144v-594h144z" />
    <glyph glyph-name="E" unicode="E" horiz-adv-x="537" 
d="M141 655v-267h308v-60h-308v-267h340v-61h-404v716h404v-61h-340z" />
    <glyph glyph-name="F" unicode="F" horiz-adv-x="515" 
d="M77 716h404v-61h-340v-275h308v-60h-308v-320h-64v716z" />
    <glyph glyph-name="G" unicode="G" horiz-adv-x="798" 
d="M415 375h337q2 -12 3 -23.5t1 -23.5q0 -64 -20 -125.5t-65 -110.5q-48 -51 -113.5 -79.5t-148.5 -28.5q-77 0 -144 28.5t-117 79t-79 118.5t-29 148q0 79 29 147.5t79 119t117 79t144 28.5q79 0 147 -27.5t113 -78.5l-47 -47q-37 45 -92 68.5t-120 23.5
q-60 0 -115.5 -22.5t-97.5 -63.5t-67 -98.5t-25 -128.5t25.5 -128.5t67.5 -98.5t97 -63.5t115 -22.5q78 0 131.5 26t86.5 64t47.5 82t16.5 98h-277v60z" />
    <glyph glyph-name="H" unicode="H" horiz-adv-x="682" 
d="M77 716h64v-320h400v320h64v-716h-64v336h-400v-336h-64v716z" />
    <glyph glyph-name="I" unicode="I" horiz-adv-x="218" 
d="M77 716h64v-716h-64v716z" />
    <glyph glyph-name="J" unicode="J" horiz-adv-x="514" 
d="M240 -16q-76 0 -133.5 43t-80.5 124l58 24q23 -73 64 -101.5t92 -28.5q66 0 106 45t40 123v503h64v-497q0 -57 -16 -100.5t-44 -73.5t-66.5 -45.5t-83.5 -15.5z" />
    <glyph glyph-name="K" unicode="K" horiz-adv-x="595" 
d="M77 716h64v-399h4l344 399h81v-4l-262 -303l285 -405v-4h-77l-252 359l-123 -142v-217h-64v716z" />
    <glyph glyph-name="L" unicode="L" horiz-adv-x="491" 
d="M77 716h64v-655h324v-61h-388v716z" />
    <glyph glyph-name="M" unicode="M" horiz-adv-x="825" 
d="M77 716h63l271 -473h4l270 473h63v-716h-63v477l4 120h-4l-254 -445h-37l-254 445h-4l4 -120v-477h-63v716z" />
    <glyph glyph-name="N" unicode="N" horiz-adv-x="690" 
d="M77 716h83l389 -604h4l-4 138v466h64v-716h-66l-406 631h-4l4 -138v-493h-64v716z" />
    <glyph glyph-name="O" unicode="O" horiz-adv-x="809" 
d="M405 -16q-79 0 -146 29.5t-115.5 80.5t-76 119t-27.5 145t27.5 145t76 119t115.5 80.5t146 29.5q78 0 145 -29.5t116 -80.5t76.5 -119t27.5 -145t-27.5 -145t-76.5 -119t-116 -80.5t-145 -29.5zM405 45q61 0 116 23t95.5 64.5t64.5 99t24 126.5t-24 126.5t-64.5 99
t-95.5 64.5t-116 23q-62 0 -116.5 -23t-95.5 -64.5t-64.5 -99t-23.5 -126.5t23.5 -126.5t64.5 -99t95.5 -64.5t116.5 -23z" />
    <glyph glyph-name="P" unicode="P" horiz-adv-x="557" 
d="M77 0v716h232q46 0 86.5 -15t70.5 -42.5t47.5 -66t17.5 -85.5t-17.5 -85.5t-47.5 -66t-70.5 -42.5t-86.5 -15h-168v-298h-64zM312 359q33 0 61 11.5t48.5 31.5t32.5 47t12 58t-12 58.5t-32.5 47t-48.5 31t-61 11.5h-171v-296h171z" />
    <glyph glyph-name="Q" unicode="Q" horiz-adv-x="809" 
d="M588 33q-40 -23 -86 -36t-97 -13q-79 0 -146 29.5t-115.5 80.5t-76 119t-27.5 145t27.5 145t76 119t115.5 80.5t146 29.5q78 0 145 -29.5t116 -80.5t76.5 -119t27.5 -145q0 -89 -35.5 -164t-97.5 -127l47 -72l-49 -32zM405 45q41 0 78 10.5t70 29.5l-95 142l50 34
l93 -141q48 42 76 102.5t28 135.5q0 69 -24 126.5t-64.5 99t-95.5 64.5t-116 23q-62 0 -116.5 -23t-95.5 -64.5t-64.5 -99t-23.5 -126.5t23.5 -126.5t64.5 -99t95.5 -64.5t116.5 -23z" />
    <glyph glyph-name="R" unicode="R" horiz-adv-x="569" 
d="M77 716h237q45 0 84.5 -15.5t69 -43t46.5 -66t17 -84.5q0 -38 -13.5 -71.5t-37 -59.5t-55.5 -44.5t-69 -26.5l-2 -3l204 -298v-4h-73l-202 298h-142v-298h-64v716zM305 358q32 0 61 11t51.5 30.5t35.5 47t13 60.5q0 31 -12 58.5t-32.5 47t-48.5 31t-61 11.5h-171v-297
h164z" />
    <glyph glyph-name="S" unicode="S" horiz-adv-x="542" 
d="M270 -16q-39 0 -77 12.5t-71 37t-58.5 60.5t-37.5 83l60 25q9 -34 26.5 -63t41.5 -50t54 -32.5t64 -11.5q33 0 63 9.5t52.5 28t35.5 45t13 59.5q0 57 -42 92.5t-122 63.5l-45 16q-32 11 -63 26.5t-55.5 37.5t-39.5 52.5t-15 71.5q0 37 15.5 71t43.5 59t67 40t85 15
q49 0 86 -14.5t63.5 -36t42 -46.5t22.5 -46l-60 -25q-5 18 -16.5 36.5t-30.5 34.5t-45 26t-61 10q-30 0 -56.5 -9t-47 -25.5t-32 -39.5t-11.5 -50q0 -26 10.5 -45.5t29.5 -35t45 -28t57 -23.5l46 -17q40 -14 75.5 -32t61.5 -42.5t41.5 -57.5t15.5 -76q0 -54 -21 -93t-54 -64
t-74.5 -37t-81.5 -12z" />
    <glyph glyph-name="T" unicode="T" horiz-adv-x="521" 
d="M229 0v655h-203v61h470v-61h-203v-655h-64z" />
    <glyph glyph-name="U" unicode="U" horiz-adv-x="635" 
d="M318 -16q-58 0 -105.5 20t-81.5 57t-52.5 88t-18.5 113v454h64v-458q0 -45 13 -84t37.5 -67.5t60.5 -45t83 -16.5q46 0 82 16.5t61 45t38 67.5t13 84v458h64v-454q0 -62 -17.5 -113t-51 -88t-81.5 -57t-108 -20z" />
    <glyph glyph-name="V" unicode="V" horiz-adv-x="613" 
d="M13 716h71l217 -616h4l225 616h71l-268 -716h-62z" />
    <glyph glyph-name="W" unicode="W" horiz-adv-x="908" 
d="M694 0h-67l-167 520h-4l-167 -520h-67l-205 716h67l171 -609h4l167 513h64l167 -513h4l163 609h67z" />
    <glyph glyph-name="X" unicode="X" horiz-adv-x="612" 
d="M265 370l-235 346h79l195 -294h4l197 294h77l-234 -346l247 -370h-77l-210 315h-4l-210 -315h-77z" />
    <glyph glyph-name="Y" unicode="Y" horiz-adv-x="579" 
d="M260 0v324l-247 392h75l202 -326h4l198 326h75l-243 -392v-324h-64z" />
    <glyph glyph-name="Z" unicode="Z" horiz-adv-x="553" 
d="M34 69l400 586h-384v61h456v-69l-400 -586h404v-61h-476v69z" />
    <glyph glyph-name="bracketleft" unicode="[" horiz-adv-x="304" 
d="M77 792h193v-53h-135v-810h135v-53h-193v916z" />
    <glyph glyph-name="backslash" unicode="\" horiz-adv-x="415" 
d="M326 0l-297 716h61l297 -716h-61z" />
    <glyph glyph-name="bracketright" unicode="]" horiz-adv-x="304" 
d="M227 -124h-193v53h135v810h-135v53h193v-916z" />
    <glyph glyph-name="asciicircum" unicode="^" horiz-adv-x="451" 
d="M370 410l-142 242h-4l-142 -242h-69l187 306h52l187 -306h-69z" />
    <glyph glyph-name="underscore" unicode="_" horiz-adv-x="468" 
d="M1 -162h466v-54h-466v54z" />
    <glyph glyph-name="grave" unicode="`" horiz-adv-x="390" 
d="M170 592l-67 124h73l52 -124h-58z" />
    <glyph glyph-name="a" unicode="a" horiz-adv-x="506" 
d="M393 87h-4q-25 -43 -69.5 -73t-103.5 -30q-40 0 -74 12.5t-59 34t-39 51.5t-14 65q0 40 16.5 71t45 52t66 31.5t79.5 10.5q50 0 90 -11.5t66 -26.5v30q0 33 -12 60t-32 46t-47.5 29t-57.5 10q-45 0 -80 -19.5t-58 -56.5l-56 35q29 45 79 71.5t113 26.5q49 0 88 -14.5
t67 -41t43 -63t15 -81.5v-306h-62v87zM393 218q-30 18 -65.5 29.5t-80.5 11.5q-33 0 -60.5 -8t-48 -22.5t-32 -35.5t-11.5 -47q0 -24 10.5 -43.5t28.5 -33t40.5 -21t46.5 -7.5q33 0 64 14t55 38.5t38.5 56.5t14.5 68z" />
    <glyph glyph-name="b" unicode="b" horiz-adv-x="569" 
d="M60 716h64v-243l-4 -68h4q12 20 29 38.5t40 32.5t52 22t64 8q47 0 89 -19.5t73.5 -54t50 -82.5t18.5 -105t-18.5 -105t-50 -82.5t-73.5 -54t-89 -19.5q-35 0 -64 8.5t-52 22.5t-40 32.5t-29 38.5h-4v-86h-60v716zM298 42q35 0 67.5 14t57 40t39 64t14.5 85t-14.5 84.5
t-39 64t-57 40.5t-67.5 14t-67.5 -13.5t-57 -39.5t-39 -64t-14.5 -86t14.5 -85.5t39 -64t57 -40t67.5 -13.5z" />
    <glyph glyph-name="c" unicode="c" horiz-adv-x="513" 
d="M488 124q-13 -30 -32.5 -55.5t-45.5 -44t-60 -29.5t-75 -11q-53 0 -98 20t-77.5 55t-51 82.5t-18.5 103.5t18.5 103.5t51 82.5t77.5 55t98 20q41 0 74.5 -10.5t60 -29.5t45.5 -44t31 -55l-57 -25q-22 51 -61 78.5t-96 27.5q-34 0 -66 -14.5t-57 -41t-40 -64t-15 -83.5
t15 -83.5t40 -64t57 -41t66 -14.5q57 0 97 27.5t62 78.5z" />
    <glyph glyph-name="d" unicode="d" horiz-adv-x="569" 
d="M450 86h-4q-12 -20 -29 -38.5t-40 -32.5t-52 -22.5t-64 -8.5q-47 0 -89 19.5t-73.5 54t-50 82.5t-18.5 105t18.5 105t50 82.5t73.5 54t89 19.5q70 0 116 -30t69 -71h4l-4 68v243h64v-716h-60v86zM272 42q35 0 67.5 13.5t57 40t39 64t14.5 85.5t-14.5 86t-39 64t-57 39.5
t-67.5 13.5t-67.5 -14t-57 -40.5t-39 -64t-14.5 -84.5t14.5 -85t39 -64t57 -40t67.5 -14z" />
    <glyph glyph-name="e" unicode="e" horiz-adv-x="528" 
d="M489 116q-13 -27 -33 -51t-46.5 -42t-60.5 -28.5t-75 -10.5q-53 0 -98 19.5t-77.5 54.5t-50.5 82.5t-18 104.5q0 53 16.5 100.5t47.5 83t75 56.5t99 21q53 0 95.5 -18.5t72.5 -52t46.5 -80.5t16.5 -104v-6q-1 -3 -1 -5v-6h-403q1 -51 18 -87t43 -59.5t58 -34.5t62 -11
q62 0 98 28.5t60 72.5zM432 288q-1 24 -10 52t-28 52t-50.5 40t-77.5 16q-30 0 -58 -10.5t-50.5 -30.5t-38 -50t-20.5 -69h333z" />
    <glyph glyph-name="f" unicode="f" horiz-adv-x="347" 
d="M264 724q27 0 46.5 -5.5t32.5 -13.5l-18 -56q-11 7 -25.5 11.5t-33.5 4.5q-34 0 -59 -24.5t-25 -71.5v-79h128v-58h-128v-432h-64v432h-92v58h92v85q0 36 12 64t32.5 47t46.5 28.5t55 9.5z" />
    <glyph glyph-name="g" unicode="g" horiz-adv-x="567" 
d="M268 -232q-48 0 -84 13t-62.5 33t-43.5 45.5t-26 50.5l60 24q16 -50 58 -79t98 -29q88 0 133 51.5t45 142.5v64h-5q-23 -39 -68.5 -69.5t-111.5 -30.5q-47 0 -88.5 19.5t-73.5 54.5t-50.5 83t-18.5 104t18.5 104t50.5 83t73.5 54.5t88.5 19.5q66 0 111.5 -30t68.5 -69h5
v83h62v-474q0 -62 -18.5 -108.5t-51 -77.5t-76.5 -46.5t-94 -15.5zM270 42q34 0 66.5 13.5t57 39.5t39.5 63.5t15 86.5t-15 86.5t-39.5 63.5t-57 39.5t-66.5 13.5t-65.5 -14t-56 -40t-39.5 -63.5t-15 -85.5q0 -47 15 -85t39.5 -64t56 -40t65.5 -14z" />
    <glyph glyph-name="h" unicode="h" horiz-adv-x="535" 
d="M60 716h64v-242l-4 -78h4q23 48 68 79t108 31q46 0 80 -15t56.5 -41.5t33 -63t10.5 -79.5v-307h-64v296q0 77 -35 114.5t-96 37.5q-35 0 -64 -16t-51 -42t-34 -61t-12 -72v-257h-64v716z" />
    <glyph glyph-name="i" unicode="i" horiz-adv-x="195" 
d="M98 610q-21 0 -35.5 14.5t-14.5 34.5q0 21 14.5 35.5t35.5 14.5q20 0 34.5 -14.5t14.5 -35.5q0 -20 -14.5 -34.5t-34.5 -14.5zM66 0v490h64v-490h-64z" />
    <glyph glyph-name="j" unicode="j" horiz-adv-x="195" 
d="M-26 -161q13 -7 31 -7q32 0 46.5 21t14.5 59v578h64v-579q0 -67 -32 -102t-91 -35q-28 0 -50 10zM98 610q-21 0 -35.5 14.5t-14.5 34.5q0 21 14.5 35.5t35.5 14.5q20 0 34.5 -14.5t14.5 -35.5q0 -20 -14.5 -34.5t-34.5 -14.5z" />
    <glyph glyph-name="k" unicode="k" horiz-adv-x="469" 
d="M60 716h64v-475l248 249h81v-4l-184 -185l202 -297v-4h-75l-173 256l-99 -99v-157h-64v716z" />
    <glyph glyph-name="l" unicode="l" horiz-adv-x="183" 
d="M60 0v716h64v-716h-64z" />
    <glyph glyph-name="m" unicode="m" horiz-adv-x="841" 
d="M60 490h60v-92h4q10 22 27 41.5t38.5 34.5t47 23.5t52.5 8.5q61 0 100 -32t53 -81q24 48 69 80.5t108 32.5q44 0 75.5 -14.5t52 -40.5t30 -62t9.5 -78v-311h-64v300q0 73 -28 110.5t-91 37.5q-33 0 -60.5 -15.5t-47 -41t-30 -59t-10.5 -69.5v-263h-64v298
q0 75 -28.5 112.5t-89.5 37.5q-34 0 -61.5 -16t-47 -43t-30 -61.5t-10.5 -71.5v-256h-64v490z" />
    <glyph glyph-name="n" unicode="n" horiz-adv-x="535" 
d="M120 398h4q12 22 29 41.5t39.5 34.5t49.5 23.5t58 8.5q45 0 79 -14.5t56.5 -41t33.5 -63t11 -80.5v-307h-64v296q0 79 -35 115.5t-98 36.5q-35 0 -64 -15.5t-50 -42t-33 -60.5t-12 -71v-259h-64v490h60v-92z" />
    <glyph glyph-name="o" unicode="o" horiz-adv-x="554" 
d="M277 506q54 0 99.5 -20t78.5 -55t51.5 -82.5t18.5 -103.5t-18.5 -103.5t-51.5 -82.5t-78.5 -55t-99.5 -20q-53 0 -98.5 20t-78.5 55t-51.5 82.5t-18.5 103.5t18.5 103.5t51.5 82.5t78.5 55t98.5 20zM277 42q36 0 69 14.5t58.5 41t41 64t15.5 83.5t-15.5 83.5t-41 64
t-58.5 41t-69 14.5t-69 -14.5t-58.5 -41t-40.5 -64t-15 -83.5t15 -83.5t40.5 -64t58.5 -41t69 -14.5z" />
    <glyph glyph-name="p" unicode="p" horiz-adv-x="565" 
d="M56 490h60v-85h4q12 20 29 38.5t40 32.5t52 22t64 8q47 0 89 -19.5t73.5 -54t50 -82.5t18.5 -105t-18.5 -105t-50 -82.5t-73.5 -54t-89 -19.5q-35 0 -64 8.5t-52 22.5t-40 32.5t-29 38.5h-4l4 -68v-234h-64v706zM294 42q35 0 67.5 14t57 40t39 64t14.5 85t-14.5 84.5
t-39 64t-57 40.5t-67.5 14t-67.5 -13.5t-57 -39.5t-39 -64t-14.5 -86t14.5 -85.5t39 -64t57 -40t67.5 -13.5z" />
    <glyph glyph-name="q" unicode="q" horiz-adv-x="565" 
d="M446 18l4 68h-4q-12 -20 -29 -38.5t-40 -32.5t-52 -22.5t-64 -8.5q-47 0 -89 19.5t-73.5 54t-50 82.5t-18.5 105t18.5 105t50 82.5t73.5 54t89 19.5q70 0 116 -30t69 -71h4v85h60v-706h-64v234zM272 42q35 0 67.5 13.5t57 40t39 64t14.5 85.5t-14.5 86t-39 64t-57 39.5
t-67.5 13.5t-67.5 -14t-57 -40.5t-39 -64t-14.5 -84.5t14.5 -85t39 -64t57 -40t67.5 -14z" />
    <glyph glyph-name="r" unicode="r" horiz-adv-x="335" 
d="M60 0v490h60v-86h4q7 22 22.5 40.5t35 32t41 20.5t41.5 7q23 0 38 -3t29 -10l-20 -60q-20 10 -55 10q-26 0 -50 -12.5t-42 -34.5t-29 -52.5t-11 -66.5v-275h-64z" />
    <glyph glyph-name="s" unicode="s" horiz-adv-x="448" 
d="M231 -16q-40 0 -73.5 11.5t-59 31t-44 45t-28.5 53.5l57 24q20 -53 60.5 -80.5t87.5 -27.5q59 0 93 26t34 62q0 15 -5 28t-18 24.5t-35 21t-56 17.5l-68 16q-23 6 -47.5 15.5t-44.5 25t-32.5 37.5t-12.5 51q0 34 15.5 60t42 44t60.5 27.5t70 9.5q31 0 60 -7.5t53.5 -21.5
t43.5 -35.5t30 -49.5l-56 -23q-20 42 -54.5 61t-79.5 19q-22 0 -43.5 -5.5t-38.5 -16t-27.5 -26t-10.5 -34.5q0 -31 26.5 -48t74.5 -29l72 -18q75 -19 110.5 -54.5t35.5 -83.5q0 -31 -13.5 -58t-39 -47.5t-61 -32.5t-78.5 -12z" />
    <glyph glyph-name="t" unicode="t" horiz-adv-x="338" 
d="M115 432h-89v58h89v150h64v-150h122v-58h-122v-295q0 -43 21 -64q20 -22 48 -22q15 0 25.5 2.5t23.5 8.5l20 -55q-17 -8 -34.5 -11.5t-41.5 -3.5q-52 0 -88 33q-18 17 -28 41.5t-10 59.5v306z" />
    <glyph glyph-name="u" unicode="u" horiz-adv-x="535" 
d="M416 92h-4q-12 -22 -29 -41.5t-39.5 -34.5t-50 -23.5t-58.5 -8.5q-45 0 -79 14.5t-56 41t-33 63t-11 80.5v307h64v-296q0 -78 34.5 -115t97.5 -37q35 0 64.5 16t50.5 42t33 60.5t12 71.5v258h64v-490h-60v92z" />
    <glyph glyph-name="v" unicode="v" horiz-adv-x="481" 
d="M5 490h68l167 -418h2l168 418h67l-202 -490h-70z" />
    <glyph glyph-name="w" unicode="w" horiz-adv-x="732" 
d="M504 0l-139 414l-137 -414h-62l-162 490h65l129 -403h1l134 403h68l135 -401h1l128 401h63l-162 -490h-62z" />
    <glyph glyph-name="x" unicode="x" horiz-adv-x="447" 
d="M364 0l-141 202l-139 -202h-75l177 249l-171 241h74l135 -193l133 193h76l-173 -241l179 -249h-75z" />
    <glyph glyph-name="y" unicode="y" horiz-adv-x="478" 
d="M98 -216l113 252l-206 454h71l166 -378h2l159 378h70l-309 -706h-66z" />
    <glyph glyph-name="z" unicode="z" horiz-adv-x="450" 
d="M34 54l300 378h-292v58h370v-54l-300 -378h304v-58h-382v54z" />
    <glyph glyph-name="braceleft" unicode="{" horiz-adv-x="309" 
d="M140.5 -80q-40.5 44 -40.5 114v186q0 43 -19.5 64.5t-54.5 21.5v56q35 0 54.5 22t19.5 65v186q0 69 40.5 113t112.5 44h22v-53h-18q-47 0 -73 -28.5t-26 -79.5v-186q0 -86 -62 -109v-4q62 -21 62 -108v-187q0 -51 26 -79.5t73 -28.5h18v-53h-22q-72 0 -112.5 44z" />
    <glyph glyph-name="bar" unicode="|" horiz-adv-x="212" 
d="M77 792h58v-912h-58v912z" />
    <glyph glyph-name="braceright" unicode="}" horiz-adv-x="309" 
d="M34 -124v53h18q47 0 73 28.5t26 79.5v187q0 87 62 108v4q-62 23 -62 109v186q0 51 -26 79.5t-73 28.5h-18v53h22q72 0 112.5 -44t40.5 -113v-186q0 -43 19.5 -65t54.5 -22v-56q-35 0 -54.5 -21.5t-19.5 -64.5v-186q0 -70 -40.5 -114t-112.5 -44h-22z" />
    <glyph glyph-name="asciitilde" unicode="~" horiz-adv-x="518" 
d="M370 242q-29 0 -58 11.5t-57 25.5t-54.5 25.5t-50.5 11.5q-29 0 -45.5 -19t-18.5 -45h-52q0 29 10 52t26.5 38.5t37 24t41.5 8.5q29 0 58 -11.5t57 -25.5q28 -15 54.5 -26.5t50.5 -11.5q29 0 45 19t18 45h52q0 -29 -10 -51.5t-26 -38.5t-36.5 -24t-41.5 -8z" />
    <glyph glyph-name="Adieresis" unicode="&#xc4;" horiz-adv-x="653" 
d="M290 716h74l277 -716h-70l-78 207h-332l-78 -207h-70zM470 267l-141 371h-4l-141 -371h286zM404 799q-18 0 -31.5 13t-13.5 31q0 20 13.5 32.5t31.5 12.5q19 0 31.5 -12.5t12.5 -32.5q0 -18 -12.5 -31t-31.5 -13zM250 799q-18 0 -31.5 13t-13.5 31q0 20 13.5 32.5
t31.5 12.5q19 0 31.5 -12.5t12.5 -32.5q0 -18 -12.5 -31t-31.5 -13z" />
    <glyph glyph-name="Aring" unicode="&#xc5;" horiz-adv-x="653" 
d="M272 670q-21 14 -34 36.5t-13 49.5q0 43 29.5 72.5t72.5 29.5q21 0 39.5 -8t32.5 -21.5t22 -32.5t8 -40q0 -27 -13 -49.5t-34 -36.5l259 -670h-70l-78 207h-332l-78 -207h-70zM470 267l-141 371h-4l-141 -371h286zM327 702q22 0 37.5 15.5t15.5 38.5t-15.5 38.5
t-37.5 15.5t-37.5 -15.5t-15.5 -38.5t15.5 -38.5t37.5 -15.5z" />
    <glyph glyph-name="Ccedilla" unicode="&#xc7;" horiz-adv-x="725" 
d="M413 -237q-33 0 -58 19.5t-35 47.5l42 18q6 -17 19 -29t32 -12q23 0 37 14.5t14 37.5q0 22 -13.5 37.5t-36.5 15.5q-26 0 -42 -21l-36 17l30 78q-71 7 -130.5 39t-103 81.5t-68 114t-24.5 137.5q0 78 28 146.5t77 119t116 79.5t146 29q83 0 147 -30.5t112 -86.5l-46 -44
q-82 100 -213 100q-62 0 -117 -23t-96 -64t-65 -98.5t-24 -127.5t24 -127.5t65 -99t96 -64t117 -22.5q75 0 132 30t101 83l46 -44q-48 -58 -117 -93.5t-160 -36.5l-17 -38q5 3 12.5 5.5t18.5 2.5q37 0 63.5 -26.5t26.5 -68.5q0 -20 -7.5 -37t-21 -30.5t-31.5 -21t-40 -7.5z
" />
    <glyph glyph-name="Eacute" unicode="&#xc9;" horiz-adv-x="537" 
d="M247 776l52 124h73l-67 -124h-58zM141 655v-267h308v-60h-308v-267h340v-61h-404v716h404v-61h-340z" />
    <glyph glyph-name="Ntilde" unicode="&#xd1;" horiz-adv-x="690" 
d="M77 716h83l389 -604h4l-4 138v466h64v-716h-66l-406 631h-4l4 -138v-493h-64v716zM417 786q-20 0 -37.5 8.5t-32.5 18.5t-29 18.5t-26 8.5q-40 0 -46 -44h-54q0 26 9.5 45.5t23.5 32t32 18.5t35 6q20 0 37.5 -8.5t32.5 -17.5q15 -10 29 -18.5t26 -8.5q40 0 45 43h54
q0 -26 -9.5 -45.5t-23.5 -32t-31.5 -18.5t-34.5 -6z" />
    <glyph glyph-name="Odieresis" unicode="&#xd6;" horiz-adv-x="809" 
d="M482 799q-18 0 -31.5 13t-13.5 31q0 20 13.5 32.5t31.5 12.5q19 0 31.5 -12.5t12.5 -32.5q0 -18 -12.5 -31t-31.5 -13zM328 799q-18 0 -31.5 13t-13.5 31q0 20 13.5 32.5t31.5 12.5q19 0 31.5 -12.5t12.5 -32.5q0 -18 -12.5 -31t-31.5 -13zM405 -16q-79 0 -146 29.5
t-115.5 80.5t-76 119t-27.5 145t27.5 145t76 119t115.5 80.5t146 29.5q78 0 145 -29.5t116 -80.5t76.5 -119t27.5 -145t-27.5 -145t-76.5 -119t-116 -80.5t-145 -29.5zM405 45q61 0 116 23t95.5 64.5t64.5 99t24 126.5t-24 126.5t-64.5 99t-95.5 64.5t-116 23
q-62 0 -116.5 -23t-95.5 -64.5t-64.5 -99t-23.5 -126.5t23.5 -126.5t64.5 -99t95.5 -64.5t116.5 -23z" />
    <glyph glyph-name="Udieresis" unicode="&#xdc;" horiz-adv-x="635" 
d="M395 799q-18 0 -31.5 13t-13.5 31q0 20 13.5 32.5t31.5 12.5q19 0 31.5 -12.5t12.5 -32.5q0 -18 -12.5 -31t-31.5 -13zM241 799q-18 0 -31.5 13t-13.5 31q0 20 13.5 32.5t31.5 12.5q19 0 31.5 -12.5t12.5 -32.5q0 -18 -12.5 -31t-31.5 -13zM318 -16q-58 0 -105.5 20
t-81.5 57t-52.5 88t-18.5 113v454h64v-458q0 -45 13 -84t37.5 -67.5t60.5 -45t83 -16.5q46 0 82 16.5t61 45t38 67.5t13 84v458h64v-454q0 -62 -17.5 -113t-51 -88t-81.5 -57t-108 -20z" />
    <glyph glyph-name="aacute" unicode="&#xe1;" horiz-adv-x="506" 
d="M393 87h-4q-25 -43 -69.5 -73t-103.5 -30q-40 0 -74 12.5t-59 34t-39 51.5t-14 65q0 40 16.5 71t45 52t66 31.5t79.5 10.5q50 0 90 -11.5t66 -26.5v30q0 33 -12 60t-32 46t-47.5 29t-57.5 10q-45 0 -80 -19.5t-58 -56.5l-56 35q29 45 79 71.5t113 26.5q49 0 88 -14.5
t67 -41t43 -63t15 -81.5v-306h-62v87zM393 218q-30 18 -65.5 29.5t-80.5 11.5q-33 0 -60.5 -8t-48 -22.5t-32 -35.5t-11.5 -47q0 -24 10.5 -43.5t28.5 -33t40.5 -21t46.5 -7.5q33 0 64 14t55 38.5t38.5 56.5t14.5 68zM216 592l52 124h73l-67 -124h-58z" />
    <glyph glyph-name="agrave" unicode="&#xe0;" horiz-adv-x="506" 
d="M393 87h-4q-25 -43 -69.5 -73t-103.5 -30q-40 0 -74 12.5t-59 34t-39 51.5t-14 65q0 40 16.5 71t45 52t66 31.5t79.5 10.5q50 0 90 -11.5t66 -26.5v30q0 33 -12 60t-32 46t-47.5 29t-57.5 10q-45 0 -80 -19.5t-58 -56.5l-56 35q29 45 79 71.5t113 26.5q49 0 88 -14.5
t67 -41t43 -63t15 -81.5v-306h-62v87zM393 218q-30 18 -65.5 29.5t-80.5 11.5q-33 0 -60.5 -8t-48 -22.5t-32 -35.5t-11.5 -47q0 -24 10.5 -43.5t28.5 -33t40.5 -21t46.5 -7.5q33 0 64 14t55 38.5t38.5 56.5t14.5 68zM231 592l-67 124h73l52 -124h-58z" />
    <glyph glyph-name="acircumflex" unicode="&#xe2;" horiz-adv-x="506" 
d="M393 87h-4q-25 -43 -69.5 -73t-103.5 -30q-40 0 -74 12.5t-59 34t-39 51.5t-14 65q0 40 16.5 71t45 52t66 31.5t79.5 10.5q50 0 90 -11.5t66 -26.5v30q0 33 -12 60t-32 46t-47.5 29t-57.5 10q-45 0 -80 -19.5t-58 -56.5l-56 35q29 45 79 71.5t113 26.5q49 0 88 -14.5
t67 -41t43 -63t15 -81.5v-306h-62v87zM393 218q-30 18 -65.5 29.5t-80.5 11.5q-33 0 -60.5 -8t-48 -22.5t-32 -35.5t-11.5 -47q0 -24 10.5 -43.5t28.5 -33t40.5 -21t46.5 -7.5q33 0 64 14t55 38.5t38.5 56.5t14.5 68zM116 602l100 114h59l101 -114v-5h-64l-62 72h-8l-63 -72
h-63v5z" />
    <glyph glyph-name="adieresis" unicode="&#xe4;" horiz-adv-x="506" 
d="M393 87h-4q-25 -43 -69.5 -73t-103.5 -30q-40 0 -74 12.5t-59 34t-39 51.5t-14 65q0 40 16.5 71t45 52t66 31.5t79.5 10.5q50 0 90 -11.5t66 -26.5v30q0 33 -12 60t-32 46t-47.5 29t-57.5 10q-45 0 -80 -19.5t-58 -56.5l-56 35q29 45 79 71.5t113 26.5q49 0 88 -14.5
t67 -41t43 -63t15 -81.5v-306h-62v87zM393 218q-30 18 -65.5 29.5t-80.5 11.5q-33 0 -60.5 -8t-48 -22.5t-32 -35.5t-11.5 -47q0 -24 10.5 -43.5t28.5 -33t40.5 -21t46.5 -7.5q33 0 64 14t55 38.5t38.5 56.5t14.5 68zM331 615q-18 0 -31.5 13t-13.5 31q0 20 13.5 32.5
t31.5 12.5q19 0 31.5 -12.5t12.5 -32.5q0 -18 -12.5 -31t-31.5 -13zM177 615q-18 0 -31.5 13t-13.5 31q0 20 13.5 32.5t31.5 12.5q19 0 31.5 -12.5t12.5 -32.5q0 -18 -12.5 -31t-31.5 -13z" />
    <glyph glyph-name="atilde" unicode="&#xe3;" horiz-adv-x="506" 
d="M393 87h-4q-25 -43 -69.5 -73t-103.5 -30q-40 0 -74 12.5t-59 34t-39 51.5t-14 65q0 40 16.5 71t45 52t66 31.5t79.5 10.5q50 0 90 -11.5t66 -26.5v30q0 33 -12 60t-32 46t-47.5 29t-57.5 10q-45 0 -80 -19.5t-58 -56.5l-56 35q29 45 79 71.5t113 26.5q49 0 88 -14.5
t67 -41t43 -63t15 -81.5v-306h-62v87zM393 218q-30 18 -65.5 29.5t-80.5 11.5q-33 0 -60.5 -8t-48 -22.5t-32 -35.5t-11.5 -47q0 -24 10.5 -43.5t28.5 -33t40.5 -21t46.5 -7.5q33 0 64 14t55 38.5t38.5 56.5t14.5 68zM319 603q-20 0 -37.5 8.5t-32.5 18.5t-29 18.5t-26 8.5
q-40 0 -46 -44h-54q0 26 9.5 45.5t23.5 32t32 18.5t35 6q20 0 37.5 -8.5t32.5 -17.5q15 -10 29 -18.5t26 -8.5q40 0 45 43h54q0 -26 -9.5 -45.5t-23.5 -32t-31.5 -18.5t-34.5 -6z" />
    <glyph glyph-name="aring" unicode="&#xe5;" horiz-adv-x="506" 
d="M393 87h-4q-25 -43 -69.5 -73t-103.5 -30q-40 0 -74 12.5t-59 34t-39 51.5t-14 65q0 40 16.5 71t45 52t66 31.5t79.5 10.5q50 0 90 -11.5t66 -26.5v30q0 33 -12 60t-32 46t-47.5 29t-57.5 10q-45 0 -80 -19.5t-58 -56.5l-56 35q29 45 79 71.5t113 26.5q49 0 88 -14.5
t67 -41t43 -63t15 -81.5v-306h-62v87zM393 218q-30 18 -65.5 29.5t-80.5 11.5q-33 0 -60.5 -8t-48 -22.5t-32 -35.5t-11.5 -47q0 -24 10.5 -43.5t28.5 -33t40.5 -21t46.5 -7.5q33 0 64 14t55 38.5t38.5 56.5t14.5 68zM255 567q-21 0 -40 8t-32.5 22t-21.5 32.5t-8 39.5
q0 43 29.5 72.5t72.5 29.5q21 0 39.5 -8t32.5 -21.5t22 -32.5t8 -40t-8 -39.5t-22 -32.5t-32.5 -22t-39.5 -8zM255 613q23 0 39 16t16 40t-16 40t-39 16t-39 -16t-16 -40t16 -40t39 -16z" />
    <glyph glyph-name="ccedilla" unicode="&#xe7;" horiz-adv-x="513" 
d="M279 -237q-33 0 -58 19.5t-35 47.5l42 18q6 -17 19 -29t32 -12q23 0 37 14.5t14 37.5q0 22 -13.5 37.5t-36.5 15.5q-26 0 -42 -21l-36 17l30 80q-45 7 -82 29.5t-63.5 56.5t-41.5 77.5t-15 93.5q0 56 18.5 103.5t51 82.5t77.5 55t98 20q41 0 74.5 -10.5t60 -29.5
t45.5 -44t31 -55l-57 -25q-22 51 -61 78.5t-96 27.5q-34 0 -66 -14.5t-57 -41t-40 -64t-15 -83.5t15 -83.5t40 -64t57 -41t66 -14.5q57 0 97 27.5t62 78.5l57 -24q-13 -30 -32.5 -55.5t-45.5 -44t-60 -29.5t-75 -11l-17 -38q5 3 12.5 5.5t18.5 2.5q37 0 63.5 -26.5
t26.5 -68.5q0 -20 -7.5 -37t-21 -30.5t-31.5 -21t-40 -7.5z" />
    <glyph glyph-name="eacute" unicode="&#xe9;" horiz-adv-x="528" 
d="M230 592l52 124h73l-67 -124h-58zM489 116q-13 -27 -33 -51t-46.5 -42t-60.5 -28.5t-75 -10.5q-53 0 -98 19.5t-77.5 54.5t-50.5 82.5t-18 104.5q0 53 16.5 100.5t47.5 83t75 56.5t99 21q53 0 95.5 -18.5t72.5 -52t46.5 -80.5t16.5 -104v-6q-1 -3 -1 -5v-6h-403
q1 -51 18 -87t43 -59.5t58 -34.5t62 -11q62 0 98 28.5t60 72.5zM432 288q-1 24 -10 52t-28 52t-50.5 40t-77.5 16q-30 0 -58 -10.5t-50.5 -30.5t-38 -50t-20.5 -69h333z" />
    <glyph glyph-name="egrave" unicode="&#xe8;" horiz-adv-x="528" 
d="M489 116q-13 -27 -33 -51t-46.5 -42t-60.5 -28.5t-75 -10.5q-53 0 -98 19.5t-77.5 54.5t-50.5 82.5t-18 104.5q0 53 16.5 100.5t47.5 83t75 56.5t99 21q53 0 95.5 -18.5t72.5 -52t46.5 -80.5t16.5 -104v-6q-1 -3 -1 -5v-6h-403q1 -51 18 -87t43 -59.5t58 -34.5t62 -11
q62 0 98 28.5t60 72.5zM432 288q-1 24 -10 52t-28 52t-50.5 40t-77.5 16q-30 0 -58 -10.5t-50.5 -30.5t-38 -50t-20.5 -69h333zM238 592l-67 124h73l52 -124h-58z" />
    <glyph glyph-name="ecircumflex" unicode="&#xea;" horiz-adv-x="528" 
d="M138 593l100 114h59l101 -114v-5h-64l-62 72h-8l-63 -72h-63v5zM489 116q-13 -27 -33 -51t-46.5 -42t-60.5 -28.5t-75 -10.5q-53 0 -98 19.5t-77.5 54.5t-50.5 82.5t-18 104.5q0 53 16.5 100.5t47.5 83t75 56.5t99 21q53 0 95.5 -18.5t72.5 -52t46.5 -80.5t16.5 -104v-6
q-1 -3 -1 -5v-6h-403q1 -51 18 -87t43 -59.5t58 -34.5t62 -11q62 0 98 28.5t60 72.5zM432 288q-1 24 -10 52t-28 52t-50.5 40t-77.5 16q-30 0 -58 -10.5t-50.5 -30.5t-38 -50t-20.5 -69h333z" />
    <glyph glyph-name="edieresis" unicode="&#xeb;" horiz-adv-x="528" 
d="M340 615q-18 0 -31.5 13t-13.5 31q0 20 13.5 32.5t31.5 12.5q19 0 31.5 -12.5t12.5 -32.5q0 -18 -12.5 -31t-31.5 -13zM186 615q-18 0 -31.5 13t-13.5 31q0 20 13.5 32.5t31.5 12.5q19 0 31.5 -12.5t12.5 -32.5q0 -18 -12.5 -31t-31.5 -13zM489 116q-13 -27 -33 -51
t-46.5 -42t-60.5 -28.5t-75 -10.5q-53 0 -98 19.5t-77.5 54.5t-50.5 82.5t-18 104.5q0 53 16.5 100.5t47.5 83t75 56.5t99 21q53 0 95.5 -18.5t72.5 -52t46.5 -80.5t16.5 -104v-6q-1 -3 -1 -5v-6h-403q1 -51 18 -87t43 -59.5t58 -34.5t62 -11q62 0 98 28.5t60 72.5zM432 288
q-1 24 -10 52t-28 52t-50.5 40t-77.5 16q-30 0 -58 -10.5t-50.5 -30.5t-38 -50t-20.5 -69h333z" />
    <glyph glyph-name="iacute" unicode="&#xed;" horiz-adv-x="195" 
d="M69 592l52 124h73l-67 -124h-58zM66 0v490h64v-490h-64z" />
    <glyph glyph-name="igrave" unicode="&#xec;" horiz-adv-x="195" 
d="M66 0v490h64v-490h-64zM71 592l-67 124h73l52 -124h-58z" />
    <glyph glyph-name="icircumflex" unicode="&#xee;" horiz-adv-x="195" 
d="M-31 602l100 114h59l101 -114v-5h-64l-62 72h-8l-63 -72h-63v5zM66 0v490h64v-490h-64z" />
    <glyph glyph-name="idieresis" unicode="&#xef;" horiz-adv-x="195" 
d="M36 615q-18 0 -31.5 13t-13.5 31q0 20 13.5 32.5t31.5 12.5q19 0 31.5 -12.5t12.5 -32.5q0 -18 -12.5 -31t-31.5 -13zM160 615q-18 0 -31.5 13t-13.5 31q0 20 13.5 32.5t31.5 12.5q19 0 31.5 -12.5t12.5 -32.5q0 -18 -12.5 -31t-31.5 -13zM66 0v490h64v-490h-64z" />
    <glyph glyph-name="ntilde" unicode="&#xf1;" horiz-adv-x="535" 
d="M120 398h4q12 22 29 41.5t39.5 34.5t49.5 23.5t58 8.5q45 0 79 -14.5t56.5 -41t33.5 -63t11 -80.5v-307h-64v296q0 79 -35 115.5t-98 36.5q-35 0 -64 -15.5t-50 -42t-33 -60.5t-12 -71v-259h-64v490h60v-92zM339 603q-20 0 -37.5 8.5t-32.5 18.5t-29 18.5t-26 8.5
q-40 0 -46 -44h-54q0 26 9.5 45.5t23.5 32t32 18.5t35 6q20 0 37.5 -8.5t32.5 -17.5q15 -10 29 -18.5t26 -8.5q40 0 45 43h54q0 -26 -9.5 -45.5t-23.5 -32t-31.5 -18.5t-34.5 -6z" />
    <glyph glyph-name="oacute" unicode="&#xf3;" horiz-adv-x="554" 
d="M246 592l52 124h73l-67 -124h-58zM277 506q54 0 99.5 -20t78.5 -55t51.5 -82.5t18.5 -103.5t-18.5 -103.5t-51.5 -82.5t-78.5 -55t-99.5 -20q-53 0 -98.5 20t-78.5 55t-51.5 82.5t-18.5 103.5t18.5 103.5t51.5 82.5t78.5 55t98.5 20zM277 42q36 0 69 14.5t58.5 41t41 64
t15.5 83.5t-15.5 83.5t-41 64t-58.5 41t-69 14.5t-69 -14.5t-58.5 -41t-40.5 -64t-15 -83.5t15 -83.5t40.5 -64t58.5 -41t69 -14.5z" />
    <glyph glyph-name="ograve" unicode="&#xf2;" horiz-adv-x="554" 
d="M277 506q54 0 99.5 -20t78.5 -55t51.5 -82.5t18.5 -103.5t-18.5 -103.5t-51.5 -82.5t-78.5 -55t-99.5 -20q-53 0 -98.5 20t-78.5 55t-51.5 82.5t-18.5 103.5t18.5 103.5t51.5 82.5t78.5 55t98.5 20zM277 42q36 0 69 14.5t58.5 41t41 64t15.5 83.5t-15.5 83.5t-41 64
t-58.5 41t-69 14.5t-69 -14.5t-58.5 -41t-40.5 -64t-15 -83.5t15 -83.5t40.5 -64t58.5 -41t69 -14.5zM241 592l-67 124h73l52 -124h-58z" />
    <glyph glyph-name="ocircumflex" unicode="&#xf4;" horiz-adv-x="554" 
d="M148 602l100 114h59l101 -114v-5h-64l-62 72h-8l-63 -72h-63v5zM277 506q54 0 99.5 -20t78.5 -55t51.5 -82.5t18.5 -103.5t-18.5 -103.5t-51.5 -82.5t-78.5 -55t-99.5 -20q-53 0 -98.5 20t-78.5 55t-51.5 82.5t-18.5 103.5t18.5 103.5t51.5 82.5t78.5 55t98.5 20zM277 42
q36 0 69 14.5t58.5 41t41 64t15.5 83.5t-15.5 83.5t-41 64t-58.5 41t-69 14.5t-69 -14.5t-58.5 -41t-40.5 -64t-15 -83.5t15 -83.5t40.5 -64t58.5 -41t69 -14.5z" />
    <glyph glyph-name="odieresis" unicode="&#xf6;" horiz-adv-x="554" 
d="M355 615q-18 0 -31.5 13t-13.5 31q0 20 13.5 32.5t31.5 12.5q19 0 31.5 -12.5t12.5 -32.5q0 -18 -12.5 -31t-31.5 -13zM201 615q-18 0 -31.5 13t-13.5 31q0 20 13.5 32.5t31.5 12.5q19 0 31.5 -12.5t12.5 -32.5q0 -18 -12.5 -31t-31.5 -13zM277 506q54 0 99.5 -20
t78.5 -55t51.5 -82.5t18.5 -103.5t-18.5 -103.5t-51.5 -82.5t-78.5 -55t-99.5 -20q-53 0 -98.5 20t-78.5 55t-51.5 82.5t-18.5 103.5t18.5 103.5t51.5 82.5t78.5 55t98.5 20zM277 42q36 0 69 14.5t58.5 41t41 64t15.5 83.5t-15.5 83.5t-41 64t-58.5 41t-69 14.5t-69 -14.5
t-58.5 -41t-40.5 -64t-15 -83.5t15 -83.5t40.5 -64t58.5 -41t69 -14.5z" />
    <glyph glyph-name="otilde" unicode="&#xf5;" horiz-adv-x="554" 
d="M277 506q54 0 99.5 -20t78.5 -55t51.5 -82.5t18.5 -103.5t-18.5 -103.5t-51.5 -82.5t-78.5 -55t-99.5 -20q-53 0 -98.5 20t-78.5 55t-51.5 82.5t-18.5 103.5t18.5 103.5t51.5 82.5t78.5 55t98.5 20zM277 42q36 0 69 14.5t58.5 41t41 64t15.5 83.5t-15.5 83.5t-41 64
t-58.5 41t-69 14.5t-69 -14.5t-58.5 -41t-40.5 -64t-15 -83.5t15 -83.5t40.5 -64t58.5 -41t69 -14.5zM340 603q-20 0 -37.5 8.5t-32.5 18.5t-29 18.5t-26 8.5q-40 0 -46 -44h-54q0 26 9.5 45.5t23.5 32t32 18.5t35 6q20 0 37.5 -8.5t32.5 -17.5q15 -10 29 -18.5t26 -8.5
q40 0 45 43h54q0 -26 -9.5 -45.5t-23.5 -32t-31.5 -18.5t-34.5 -6z" />
    <glyph glyph-name="uacute" unicode="&#xfa;" horiz-adv-x="535" 
d="M232 592l52 124h73l-67 -124h-58zM416 92h-4q-12 -22 -29 -41.5t-39.5 -34.5t-50 -23.5t-58.5 -8.5q-45 0 -79 14.5t-56 41t-33 63t-11 80.5v307h64v-296q0 -78 34.5 -115t97.5 -37q35 0 64.5 16t50.5 42t33 60.5t12 71.5v258h64v-490h-60v92z" />
    <glyph glyph-name="ugrave" unicode="&#xf9;" horiz-adv-x="535" 
d="M416 92h-4q-12 -22 -29 -41.5t-39.5 -34.5t-50 -23.5t-58.5 -8.5q-45 0 -79 14.5t-56 41t-33 63t-11 80.5v307h64v-296q0 -78 34.5 -115t97.5 -37q35 0 64.5 16t50.5 42t33 60.5t12 71.5v258h64v-490h-60v92zM244 592l-67 124h73l52 -124h-58z" />
    <glyph glyph-name="ucircumflex" unicode="&#xfb;" horiz-adv-x="535" 
d="M138 587l100 114h59l101 -114v-5h-64l-62 72h-8l-63 -72h-63v5zM416 92h-4q-12 -22 -29 -41.5t-39.5 -34.5t-50 -23.5t-58.5 -8.5q-45 0 -79 14.5t-56 41t-33 63t-11 80.5v307h64v-296q0 -78 34.5 -115t97.5 -37q35 0 64.5 16t50.5 42t33 60.5t12 71.5v258h64v-490h-60
v92z" />
    <glyph glyph-name="udieresis" unicode="&#xfc;" horiz-adv-x="535" 
d="M347 615q-18 0 -31.5 13t-13.5 31q0 20 13.5 32.5t31.5 12.5q19 0 31.5 -12.5t12.5 -32.5q0 -18 -12.5 -31t-31.5 -13zM193 615q-18 0 -31.5 13t-13.5 31q0 20 13.5 32.5t31.5 12.5q19 0 31.5 -12.5t12.5 -32.5q0 -18 -12.5 -31t-31.5 -13zM416 92h-4q-12 -22 -29 -41.5
t-39.5 -34.5t-50 -23.5t-58.5 -8.5q-45 0 -79 14.5t-56 41t-33 63t-11 80.5v307h64v-296q0 -78 34.5 -115t97.5 -37q35 0 64.5 16t50.5 42t33 60.5t12 71.5v258h64v-490h-60v92z" />
    <glyph glyph-name="dagger" unicode="&#x2020;" horiz-adv-x="418" 
d="M34 562h143v154h64v-154h143v-59h-143v-345h-64v345h-143v59z" />
    <glyph glyph-name="degree" unicode="&#xb0;" horiz-adv-x="326" 
d="M163 442q-27 0 -50.5 10t-41 27t-27.5 41t-10 51t10 51t27.5 41t41 27t50.5 10t50.5 -10t41 -27t27.5 -41t10 -51t-10 -51t-27.5 -41t-41 -27t-50.5 -10zM163 489q34 0 56.5 23.5t22.5 58.5t-22.5 58.5t-56.5 23.5t-56.5 -23.5t-22.5 -58.5t22.5 -58.5t56.5 -23.5z" />
    <glyph glyph-name="cent" unicode="&#xa2;" horiz-adv-x="511" 
d="M246 84q-47 5 -86.5 26.5t-68.5 56t-45 79t-16 96.5t16 97t45 79t68.5 55t86.5 26v85h54v-84q70 -7 115.5 -45t68.5 -92l-58 -24q-19 44 -50 70t-76 33v-400q45 7 77.5 33.5t51.5 70.5l56 -25q-23 -54 -69 -92t-116 -45v-84h-54v84zM94 342q0 -41 12.5 -75.5t33.5 -60.5
t48.5 -42.5t57.5 -21.5v400q-30 -5 -57.5 -21t-48.5 -42t-33.5 -60.5t-12.5 -76.5z" />
    <glyph glyph-name="sterling" unicode="&#xa3;" horiz-adv-x="508" 
d="M199 257q3 -11 3 -27q0 -45 -20 -90t-52 -76l3 -3h207q46 0 66 17t31 49l54 -22q-17 -51 -52.5 -78t-98.5 -27h-306v52q25 12 44 31.5t32.5 42.5t20.5 47.5t7 48.5q0 10 -1 19t-3 16h-98v54h77q-11 22 -24 44q-14 21 -25.5 44.5t-19.5 49.5t-8 56q0 38 14 73.5t40.5 62.5
t63.5 43t82 16q43 0 75 -12.5t55.5 -32.5t38.5 -45t23 -49l-59 -24q-6 19 -16.5 37.5t-26.5 32.5t-38 23t-52 9q-33 0 -58 -11.5t-42.5 -30.5t-26.5 -43t-9 -49q0 -30 8.5 -54.5t21 -47.5t27.5 -45q14 -23 25 -47h145v-54h-128z" />
    <glyph glyph-name="section" unicode="&#xa7;" horiz-adv-x="524" 
d="M266 -232q-82 0 -141 48t-82 133l61 25q18 -63 57.5 -104t104.5 -41q31 0 58.5 9.5t47.5 26t31.5 39.5t11.5 49q0 30 -11 52.5t-33.5 40.5t-55.5 32.5t-78 28.5q-79 25 -125 65t-46 107q0 44 24.5 80.5t68.5 59.5q-47 25 -72.5 60t-25.5 86q0 30 13 60t38.5 53.5
t62.5 38.5t85 15q45 0 79 -14.5t59 -36t40 -46.5t22 -46l-61 -25q-6 19 -16.5 38t-27.5 34.5t-40 25t-54 9.5q-30 0 -54.5 -9t-42.5 -23.5t-28 -33.5t-10 -39q0 -24 9.5 -42.5t27.5 -32.5t44 -25.5t58 -22.5q48 -16 88 -33.5t68.5 -40.5t44 -54t15.5 -73q0 -47 -22 -83
t-55 -59q37 -26 56.5 -61t19.5 -85q0 -42 -17.5 -76.5t-47 -59t-68.5 -37.5t-81 -13zM264 163q24 -8 45 -16t41 -17q31 17 48.5 48t17.5 61q0 29 -12 50.5t-34.5 39t-56 31.5t-75.5 27l-13 4q-21 -6 -38.5 -17.5t-30 -26.5t-19 -32t-6.5 -33q0 -45 33 -71t100 -48z" />
    <glyph glyph-name="bullet" unicode="&#x2022;" horiz-adv-x="355" 
d="M178 232q-19 0 -36 7t-29.5 19.5t-19.5 29.5t-7 36t7 36t19.5 29.5t29.5 19.5t36 7t35.5 -7t29 -19.5t20 -29.5t7.5 -36t-7.5 -36t-20 -29.5t-29 -19.5t-35.5 -7z" />
    <glyph glyph-name="paragraph" unicode="&#xb6;" horiz-adv-x="602" 
d="M294 -216v512h-44q-45 0 -85.5 14.5t-71 41.5t-49 66t-18.5 88t18.5 88t49 66t71 41.5t85.5 14.5h266v-932h-60v871h-102v-871h-60z" />
    <glyph glyph-name="germandbls" unicode="&#xdf;" horiz-adv-x="549" 
d="M384 384q25 -9 48.5 -24.5t42 -38t29.5 -51.5t11 -65q0 -46 -16 -85t-45.5 -67.5t-70.5 -44.5t-90 -16q-14 0 -29.5 1.5t-30.5 4.5v60q33 -6 60 -6q34 0 63 11t50 31.5t32.5 48t11.5 60.5q0 31 -12.5 58.5t-34.5 48t-52.5 32.5t-67.5 12h-42v59h32q69 0 107 37t38 95
q0 30 -11 53.5t-29.5 40t-43 25t-51.5 8.5q-63 0 -102 -41t-39 -116v-515h-65v516q0 47 14 86.5t40 68.5t64.5 45t87.5 16q44 0 81 -14t63.5 -39t41 -58.5t14.5 -73.5q0 -64 -28.5 -101.5t-70.5 -57.5v-4z" />
    <glyph glyph-name="registered" unicode="&#xae;" horiz-adv-x="537" 
d="M269 272q-48 0 -89.5 18t-73 49.5t-49.5 73t-18 89.5q0 47 18 89t49.5 73.5t73 49.5t89.5 18q47 0 89 -18t73.5 -49.5t49.5 -73.5t18 -89q0 -48 -18 -89.5t-49.5 -73t-73.5 -49.5t-89 -18zM269 311q39 0 74 15t61 41.5t41 61t15 73.5q0 40 -15 74.5t-41 60.5t-61 41
t-74 15t-74 -15t-61 -41t-41 -60.5t-15 -74.5q0 -39 15 -73.5t41 -61t61 -41.5t74 -15zM194 389v226h92q29 0 51.5 -19.5t22.5 -50.5q0 -25 -15 -42.5t-36 -23.5l-2 -2l60 -86v-2h-44l-58 86h-32v-86h-39zM282 511q15 0 27 8.5t12 25.5q0 15 -11 24t-27 9h-50v-67h49z" />
    <glyph glyph-name="copyright" unicode="&#xa9;" horiz-adv-x="537" 
d="M269 272q-48 0 -89.5 18t-73 49.5t-49.5 73t-18 89.5q0 47 18 89t49.5 73.5t73 49.5t89.5 18q47 0 89 -18t73.5 -49.5t49.5 -73.5t18 -89q0 -48 -18 -89.5t-49.5 -73t-73.5 -49.5t-89 -18zM269 311q39 0 74 15t61 41.5t41 61t15 73.5q0 40 -15 74.5t-41 60.5t-61 41
t-74 15t-74 -15t-61 -41t-41 -60.5t-15 -74.5q0 -39 15 -73.5t41 -61t61 -41.5t74 -15zM273 383q-25 0 -46.5 9.5t-37.5 25.5t-25 38t-9 46q0 25 9 46.5t25 37.5t37.5 25.5t46.5 9.5q30 0 49.5 -10.5t35.5 -27.5l-27 -25q-11 12 -24 19t-34 7q-31 0 -55 -22.5t-24 -59.5
q0 -36 24 -59t55 -23q23 0 38 9t26 24l28 -23q-16 -21 -38 -34t-54 -13z" />
    <glyph glyph-name="trademark" unicode="&#x2122;" horiz-adv-x="498" 
d="M435 490v133l2 44h-2l-72 -177h-27l-73 177h-2l2 -44v-133h-37v226h56l66 -170h2l67 170h55v-226h-37zM79 490v191h-70v35h176v-35h-67v-191h-39z" />
    <glyph glyph-name="acute" unicode="&#xb4;" horiz-adv-x="390" 
d="M163 592l52 124h73l-67 -124h-58z" />
    <glyph glyph-name="dieresis" unicode="&#xa8;" horiz-adv-x="369" 
d="M262 615q-18 0 -31.5 13t-13.5 31q0 20 13.5 32.5t31.5 12.5q19 0 31.5 -12.5t12.5 -32.5q0 -18 -12.5 -31t-31.5 -13zM108 615q-18 0 -31.5 13t-13.5 31q0 20 13.5 32.5t31.5 12.5q19 0 31.5 -12.5t12.5 -32.5q0 -18 -12.5 -31t-31.5 -13z" />
    <glyph glyph-name="notequal" unicode="&#x2260;" horiz-adv-x="556" 
d="M60 441h265l88 141l43 -28l-71 -113h112v-54h-145l-85 -136h230v-54h-264l-87 -140l-44 27l70 113h-112v54h146l85 136h-231v54z" />
    <glyph glyph-name="AE" unicode="&#xc6;" horiz-adv-x="936" 
d="M4 0l433 716h444v-61h-340v-267h308v-60h-308v-267h340v-61h-404v207h-274l-125 -207h-74zM239 267h238v388h-4z" />
    <glyph glyph-name="Oslash" unicode="&#xd8;" horiz-adv-x="809" 
d="M148 -3l37 60q-68 51 -106.5 129t-38.5 172q0 77 27.5 145t76 119t115.5 80.5t146 29.5q48 0 92 -11.5t82 -31.5l37 60l46 -30l-37 -60q67 -51 106 -129.5t39 -171.5q0 -77 -27.5 -145t-76.5 -119t-116 -80.5t-145 -29.5q-48 0 -92 11.5t-82 31.5l-36 -59zM105 358
q0 -79 30.5 -142.5t82.5 -105.5l328 526q-64 35 -141 35q-62 0 -116.5 -23t-95.5 -64.5t-64.5 -99t-23.5 -126.5zM405 45q61 0 116 23t95.5 64.5t64.5 99t24 126.5q0 78 -31 142t-82 106l-327 -526q64 -35 140 -35z" />
    <glyph glyph-name="infinity" unicode="&#x221e;" horiz-adv-x="739" 
d="M548 105q-31 0 -56 9.5t-46 25t-40 36.5t-37 45q-19 -24 -37.5 -45t-39 -36.5t-45 -25t-55.5 -9.5q-35 0 -65.5 13t-53 35t-35 52t-12.5 65q0 34 12.5 64.5t35 52.5t53 35t65.5 13q31 0 55.5 -9t45 -25t39 -37t37.5 -45q19 24 37.5 45t39.5 37t46 25t56 9q35 0 65 -13
t52.5 -35t35.5 -52.5t13 -64.5q0 -35 -13 -65t-35.5 -52t-52.5 -35t-65 -13zM547 384q-22 0 -39.5 -7t-34 -21t-33.5 -35.5t-39 -50.5q22 -29 39.5 -50.5t34 -35.5t33.5 -20.5t39 -6.5q48 0 79 30.5t31 82.5q0 53 -31 83.5t-79 30.5zM193 384q-48 0 -79 -30.5t-31 -83.5
q0 -52 31 -82.5t79 -30.5q21 0 38 6.5t33.5 20.5t34 35.5t40.5 50.5q-23 29 -40.5 50.5t-34 35.5t-33.5 21t-38 7z" />
    <glyph glyph-name="plusminus" unicode="&#xb1;" horiz-adv-x="544" 
d="M299 361h186v-54h-186v-158h-54v158h-185v54h185v159h54v-159zM60 0v54h425v-54h-425z" />
    <glyph glyph-name="lessequal" unicode="&#x2264;" horiz-adv-x="490" 
d="M60 0v54h366v-54h-366zM60 310v48l366 180v-61l-294 -141v-4l294 -141v-61z" />
    <glyph glyph-name="greaterequal" unicode="&#x2265;" horiz-adv-x="490" 
d="M64 0v54h366v-54h-366zM64 130v61l294 141v4l-294 141v61l366 -180v-48z" />
    <glyph glyph-name="yen" unicode="&#xa5;" horiz-adv-x="548" 
d="M76 231h168v87h-168v54h134l-197 312h73l188 -308h4l184 308h74l-194 -312h131v-54h-165v-87h165v-54h-165v-177h-64v177h-168v54z" />
    <glyph glyph-name="mu" unicode="&#xb5;" horiz-adv-x="535" 
d="M416 0v92h-4q-12 -22 -28.5 -41.5t-38 -34.5t-48.5 -23.5t-60 -8.5q-36 0 -66.5 17.5t-50.5 41.5h-4l4 -73v-186h-64v706h64v-291q0 -79 36 -118t96 -39q35 0 64.5 16t50.5 42t33 60.5t12 71.5v258h64v-490h-60z" />
    <glyph glyph-name="partialdiff" unicode="&#x2202;" horiz-adv-x="568" 
d="M439 408q-17 53 -46 95t-67 74t-84.5 54t-97.5 35l22 58q177 -50 268 -169.5t91 -293.5q0 -61 -17 -112t-48.5 -87.5t-76.5 -57t-100 -20.5q-50 0 -93.5 19t-76 52.5t-51.5 79t-19 97.5q0 55 19.5 100t52 76.5t74.5 48.5t88 17q31 0 56 -7t44.5 -17.5t33 -22.5t22.5 -23z
M283 44q37 0 69 13.5t56 38.5t38 59t14 76q0 41 -14.5 75t-38.5 58.5t-56 38t-66 13.5q-37 0 -69 -13.5t-56 -38t-38 -58.5t-14 -75q0 -42 14 -76t38 -59t55.5 -38.5t67.5 -13.5z" />
    <glyph glyph-name="summation" unicode="&#x2211;" horiz-adv-x="495" 
d="M114 655l231 -289l-231 -305h352v-61h-423v67l225 300l-225 282v67h423v-61h-352z" />
    <glyph glyph-name="product" unicode="&#x220f;" horiz-adv-x="658" 
d="M77 716h504v-716h-64v655h-376v-655h-64v716z" />
    <glyph glyph-name="pi" unicode="&#x3c0;" horiz-adv-x="677" 
d="M651 5q-13 -6 -28 -9.5t-35 -3.5q-54 0 -91 34t-37 105v301h-249v-432h-64v432h-121v58h620v-58h-122v-300q0 -41 18 -61.5t46 -20.5q21 0 41 9z" />
    <glyph glyph-name="integral" unicode="&#x222b;" horiz-adv-x="340" 
d="M202 -72q0 -72 -40.5 -113t-107.5 -41h-20v58h16q39 0 63.5 23.5t24.5 71.5v711q0 72 41 113t108 41h19v-58h-16q-39 0 -63.5 -23.5t-24.5 -71.5v-711z" />
    <glyph glyph-name="ordfeminine" unicode="&#xaa;" horiz-adv-x="462" 
d="M203 272q-34 0 -63 11t-50.5 30.5t-34 46t-12.5 58.5q0 36 15 63.5t39.5 46.5t57.5 28.5t69 9.5q43 0 77.5 -10t57.5 -24v19q0 60 -36 93.5t-90 33.5q-80 0 -116 -64l-54 27q20 36 61 63.5t107 27.5q40 0 74.5 -12.5t60 -35.5t39.5 -56t14 -75v-267h-60v78h-4
q-22 -42 -61.5 -67t-90.5 -25zM210 326q28 0 55 11.5t48 32t33.5 48.5t12.5 62q-16 9 -47 23t-76 14q-64 0 -96.5 -28t-32.5 -73q0 -21 8.5 -38t23 -28.5t33 -17.5t38.5 -6z" />
    <glyph glyph-name="ordmasculine" unicode="&#xba;" horiz-adv-x="513" 
d="M257 272q-47 0 -87 17.5t-69 48.5t-45.5 73t-16.5 91t16.5 91t45.5 73t69 48.5t87 17.5t87 -17.5t69 -48.5t45.5 -73t16.5 -91t-16.5 -91t-45.5 -73t-69 -48.5t-87 -17.5zM257 328q30 0 58 12.5t49.5 35.5t34.5 55t13 71t-13 71t-34.5 55t-49.5 35.5t-58 12.5t-58 -12.5
t-49.5 -35.5t-34.5 -55t-13 -71t13 -71t34.5 -55t49.5 -35.5t58 -12.5z" />
    <glyph glyph-name="Omega" unicode="&#x2126;" horiz-adv-x="781" 
d="M450 0v97q45 12 85.5 38.5t70.5 64t47.5 85t17.5 102.5q0 59 -21.5 110.5t-59.5 90t-89 61t-110 22.5t-110 -22.5t-89 -61t-59.5 -90t-21.5 -110.5q0 -55 17.5 -102.5t47.5 -85t70.5 -64t85.5 -38.5v-97h-271v61h195v4q-104 49 -157 134t-53 189q0 68 26 130.5t71.5 110
t109 75.5t138.5 28t138.5 -28t109 -75.5t71.5 -110t26 -130.5q0 -104 -53.5 -189t-156.5 -134v-4h195v-61h-271z" />
    <glyph glyph-name="ae" unicode="&#xe6;" horiz-adv-x="893" 
d="M639 -16q-75 0 -131 37.5t-84 101.5q-29 -65 -84 -102t-124 -37q-40 0 -74 12.5t-59 34t-39 51.5t-14 65q0 40 16.5 71t45 52t66 31.5t79.5 10.5q50 0 91 -11.5t67 -26.5v30q0 33 -11.5 60t-32 46t-47 29t-56.5 10q-46 0 -81.5 -21t-53.5 -58l-58 29q24 48 73 77.5
t118 29.5t118 -31.5t72 -83.5q30 51 80 83t117 32q53 0 95.5 -18.5t72.5 -52t46.5 -80.5t16.5 -104v-6q-1 -3 -1 -5v-6h-404q1 -51 18 -87t43.5 -59.5t58.5 -34.5t62 -11q62 0 98 28.5t60 72.5l55 -27q-13 -27 -33 -51t-46.5 -42t-60.5 -28.5t-75 -10.5zM221 41
q33 0 64 14.5t55.5 38.5t39.5 56t15 68q-20 11 -57 26t-91 15q-33 0 -60.5 -8t-48 -22.5t-32 -35.5t-11.5 -47q0 -24 10.5 -43.5t28.5 -33t40.5 -21t46.5 -7.5zM797 288q-1 24 -10 52t-28 52t-50.5 40t-77.5 16q-30 0 -58 -10.5t-51 -30.5t-38.5 -50t-20.5 -69h334z" />
    <glyph glyph-name="oslash" unicode="&#xf8;" horiz-adv-x="554" 
d="M277 506q63 0 116 -28l27 43l44 -27l-28 -45q42 -35 65.5 -88t23.5 -116q0 -56 -18.5 -103.5t-51.5 -82.5t-78.5 -55t-99.5 -20q-32 0 -60.5 7t-53.5 20l-25 -40l-45 25l27 44q-42 35 -66 88t-24 117q0 56 18.5 103.5t51.5 82.5t78.5 55t98.5 20zM94 245
q0 -48 16.5 -86.5t43.5 -64.5l207 332q-41 22 -84 22q-36 0 -69 -14.5t-58.5 -41t-40.5 -64t-15 -83.5zM277 42q36 0 69 14.5t58.5 41t41 64t15.5 83.5q0 48 -16 85.5t-43 64.5l-207 -332q39 -21 82 -21z" />
    <glyph glyph-name="questiondown" unicode="&#xbf;" horiz-adv-x="473" 
d="M265.968 266.968q0 -32.9961 -5 -57.4932q-4.99902 -24.4971 -15.498 -44.4951q-10.498 -19.9971 -27.4961 -38.4951t-41.9951 -41.4951q-36.9951 -33.9951 -56.9932 -62.9922q-19.9971 -28.9961 -19.9971 -69.9912q0 -53.9932 35.4951 -88.4893
q35.4961 -34.4961 97.4883 -34.4961q29.9961 0 52.4932 8.99902q22.498 8.99902 38.9961 23.9971t27.9961 34.4961q11.499 19.4971 18.498 40.4951l58.9922 -24.9971q-7.99902 -23.9971 -23.4971 -49.4941t-39.4951 -46.4941t-56.9932 -34.4961
q-32.9951 -13.498 -75.9902 -13.498q-45.9941 0 -82.9902 14.498q-36.9951 14.498 -62.9922 38.9951t-39.4951 57.9932t-13.498 71.4912q0 31.9961 8.99902 57.4932t22.9971 45.9941q13.998 20.498 30.9961 36.9961q16.998 16.4971 32.9961 31.4961
q18.9971 16.9971 32.4961 32.4961q13.498 15.498 21.9971 31.9961q8.49902 16.4971 12.498 36.4951q4 19.998 4 45.9941v47.9941h64.9922v-50.9932zM233.972 505.938q21.9971 0 36.4951 -14.998q14.498 -14.999 14.498 -36.9961t-14.498 -36.4951t-36.4951 -14.498
t-36.9961 14.498q-14.998 14.498 -14.998 36.4951t14.998 36.9961q14.999 14.998 36.9961 14.998z" />
    <glyph glyph-name="exclamdown" unicode="&#xa1;" horiz-adv-x="205" 
d="M103 505.938q-22 0 -37 -14.998q-15 -14.999 -15 -36.9961t15 -36.4951t37 -14.498t36.5 14.498t14.5 36.4951t-14.5 36.9961q-14.5 14.998 -36.5 14.998zM71 74.9912v-290.965h64v290.965l-9 242.97h-46z" />
    <glyph glyph-name="logicalnot" unicode="&#xac;" horiz-adv-x="557" 
d="M51 374h420v-269h-54v215h-366v54z" />
    <glyph glyph-name="radical" unicode="&#x221a;" horiz-adv-x="668" 
d="M535 758l-266 -806h-77l-179 538h72l144 -448h4l248 774h175v-58h-121z" />
    <glyph glyph-name="uni0192" unicode="&#x192;" horiz-adv-x="556" 
d="M107 -220q-20 0 -35.5 4.5t-29.5 11.5l17 55q21 -13 51 -13q31 0 50.5 21.5t27.5 60.5l81 415h-111v58h122l39 195q12 60 52.5 96t102.5 36q22 0 38.5 -3.5t30.5 -10.5l-22 -55q-19 11 -49 11q-35 0 -59.5 -20t-32.5 -64l-36 -185h138v-58h-149l-85 -425q-11 -58 -46 -94
t-95 -36z" />
    <glyph glyph-name="approxequal" unicode="&#x2248;" horiz-adv-x="552" 
d="M387 347q-29 0 -58 11.5t-57 25.5t-54.5 25.5t-50.5 11.5q-29 0 -45.5 -19t-18.5 -45h-52q0 29 10 52t26.5 38.5t37 24t41.5 8.5q29 0 58 -11.5t57 -25.5q28 -15 54.5 -26.5t50.5 -11.5q29 0 45 19t18 45h52q0 -29 -10 -51.5t-26 -38.5t-36.5 -24t-41.5 -8zM387 160
q-29 0 -58 11.5t-57 25.5t-54.5 25.5t-50.5 11.5q-29 0 -45.5 -19t-18.5 -45h-52q0 29 10 52t26.5 38.5t37 24t41.5 8.5q29 0 58 -11.5t57 -25.5q28 -15 54.5 -26.5t50.5 -11.5q29 0 45 19t18 45h52q0 -29 -10 -51.5t-26 -38.5t-36.5 -24t-41.5 -8z" />
    <glyph glyph-name="Delta" unicode="&#x2206;" horiz-adv-x="634" 
d="M282 716h74l269 -716h-612zM105 61h427l-211 577h-4z" />
    <glyph glyph-name="guillemotleft" unicode="&#xab;" horiz-adv-x="540" 
d="M276 96l-39 -36l-194 211l194 211l39 -36l-163 -175zM476 96l-39 -36l-194 211l194 211l39 -36l-163 -175z" />
    <glyph glyph-name="guillemotright" unicode="&#xbb;" horiz-adv-x="540" 
d="M227 271l-163 175l39 36l195 -211l-195 -211l-39 36zM427 271l-163 175l39 36l195 -211l-195 -211l-39 36z" />
    <glyph glyph-name="ellipsis" unicode="&#x2026;" horiz-adv-x="633" 
d="M103 -6q-22 0 -37 15t-15 37t15 36.5t37 14.5t36.5 -14.5t14.5 -36.5t-14.5 -37t-36.5 -15zM317 -6q-22 0 -37 15t-15 37t15 36.5t37 14.5t36.5 -14.5t14.5 -36.5t-14.5 -37t-36.5 -15zM531 -6q-22 0 -37 15t-15 37t15 36.5t37 14.5t36.5 -14.5t14.5 -36.5t-14.5 -37
t-36.5 -15z" />
    <glyph glyph-name="Agrave" unicode="&#xc0;" horiz-adv-x="653" 
d="M290 716h74l277 -716h-70l-78 207h-332l-78 -207h-70zM470 267l-141 371h-4l-141 -371h286zM294 776l-67 124h73l52 -124h-58z" />
    <glyph glyph-name="Atilde" unicode="&#xc3;" horiz-adv-x="653" 
d="M290 716h74l277 -716h-70l-78 207h-332l-78 -207h-70zM470 267l-141 371h-4l-141 -371h286zM391 786q-20 0 -37.5 8.5t-32.5 18.5t-29 18.5t-26 8.5q-40 0 -46 -44h-54q0 26 9.5 45.5t23.5 32t32 18.5t35 6q20 0 37.5 -8.5t32.5 -17.5q15 -10 29 -18.5t26 -8.5
q40 0 45 43h54q0 -26 -9.5 -45.5t-23.5 -32t-31.5 -18.5t-34.5 -6z" />
    <glyph glyph-name="Otilde" unicode="&#xd5;" horiz-adv-x="809" 
d="M405 -16q-79 0 -146 29.5t-115.5 80.5t-76 119t-27.5 145t27.5 145t76 119t115.5 80.5t146 29.5q78 0 145 -29.5t116 -80.5t76.5 -119t27.5 -145t-27.5 -145t-76.5 -119t-116 -80.5t-145 -29.5zM405 45q61 0 116 23t95.5 64.5t64.5 99t24 126.5t-24 126.5t-64.5 99
t-95.5 64.5t-116 23q-62 0 -116.5 -23t-95.5 -64.5t-64.5 -99t-23.5 -126.5t23.5 -126.5t64.5 -99t95.5 -64.5t116.5 -23zM468 786q-20 0 -37.5 8.5t-32.5 18.5t-29 18.5t-26 8.5q-40 0 -46 -44h-54q0 26 9.5 45.5t23.5 32t32 18.5t35 6q20 0 37.5 -8.5t32.5 -17.5
q15 -10 29 -18.5t26 -8.5q40 0 45 43h54q0 -26 -9.5 -45.5t-23.5 -32t-31.5 -18.5t-34.5 -6z" />
    <glyph glyph-name="OE" unicode="&#x152;" horiz-adv-x="1164" 
d="M769 655v-267h308v-60h-308v-267h340v-61h-404v152q-45 -75 -123 -121.5t-177 -46.5q-79 0 -146 29.5t-115.5 80.5t-76 119t-27.5 145t27.5 145t76 119t115.5 80.5t146 29.5q100 0 177.5 -46t122.5 -122v152h404v-61h-340zM405 45q61 0 116 23t95.5 64.5t64.5 99
t24 126.5t-24 126.5t-64.5 99t-95.5 64.5t-116 23q-62 0 -116.5 -23t-95.5 -64.5t-64.5 -99t-23.5 -126.5t23.5 -126.5t64.5 -99t95.5 -64.5t116.5 -23z" />
    <glyph glyph-name="oe" unicode="&#x153;" horiz-adv-x="961" 
d="M707 -16q-74 0 -129.5 36t-84.5 99q-29 -62 -85.5 -98.5t-130.5 -36.5q-53 0 -98.5 20t-78.5 55t-51.5 82.5t-18.5 103.5t18.5 103.5t51.5 82.5t78.5 55t98.5 20q74 0 130.5 -36.5t85.5 -98.5q28 60 81 97.5t127 37.5q53 0 95.5 -18.5t72.5 -52t46.5 -80.5t16.5 -104v-6
q-1 -3 -1 -5v-6h-404q1 -51 18 -87t43.5 -59.5t58.5 -34.5t62 -11q62 0 98 28.5t60 72.5l55 -27q-13 -27 -33 -51t-46.5 -42t-60.5 -28.5t-75 -10.5zM277 42q36 0 69 14.5t58.5 41t41 64t15.5 83.5t-15.5 83.5t-41 64t-58.5 41t-69 14.5t-69 -14.5t-58.5 -41t-40.5 -64
t-15 -83.5t15 -83.5t40.5 -64t58.5 -41t69 -14.5zM865 288q-1 24 -10 52t-28 52t-50.5 40t-77.5 16q-30 0 -58 -10.5t-51 -30.5t-38.5 -50t-20.5 -69h334z" />
    <glyph glyph-name="endash" unicode="&#x2013;" horiz-adv-x="585" 
d="M60 337h466v-54h-466v54z" />
    <glyph glyph-name="emdash" unicode="&#x2014;" horiz-adv-x="884" 
d="M60 337h765v-54h-765v54z" />
    <glyph glyph-name="quotedblleft" unicode="&#x201c;" horiz-adv-x="364" 
d="M165 711l-46 -70q13 -3 24 -15.5t11 -30.5q0 -22 -14.5 -37t-36.5 -15t-37 15t-15 37q0 14 6 25.5t14 23.5l61 88zM313 711l-46 -70q13 -3 24 -15.5t11 -30.5q0 -22 -14.5 -37t-36.5 -15t-37 15t-15 37q0 14 6 25.5t14 23.5l61 88z" />
    <glyph glyph-name="quotedblright" unicode="&#x201d;" horiz-adv-x="364" 
d="M51 565l46 69q-13 4 -24 16t-11 31q0 22 14.5 36.5t36.5 14.5t37 -14.5t15 -36.5q0 -14 -6 -26t-14 -24l-61 -88zM199 565l46 69q-13 4 -24 16t-11 31q0 22 14.5 36.5t36.5 14.5t37 -14.5t15 -36.5q0 -14 -6 -26t-14 -24l-61 -88z" />
    <glyph glyph-name="quoteleft" unicode="&#x2018;" horiz-adv-x="216" 
d="M165 711l-46 -70q13 -3 24 -15.5t11 -30.5q0 -22 -14.5 -37t-36.5 -15t-37 15t-15 37q0 14 6 25.5t14 23.5l61 88z" />
    <glyph glyph-name="quoteright" unicode="&#x2019;" horiz-adv-x="216" 
d="M51 565l46 69q-13 4 -24 16t-11 31q0 22 14.5 36.5t36.5 14.5t37 -14.5t15 -36.5q0 -14 -6 -26t-14 -24l-61 -88z" />
    <glyph glyph-name="divide" unicode="&#xf7;" horiz-adv-x="544" 
d="M60 244v54h425v-54h-425zM272 20q-22 0 -36.5 15t-14.5 37t14.5 36.5t36.5 14.5t37 -14.5t15 -36.5t-15 -37t-37 -15zM272 419q-22 0 -36.5 15t-14.5 37t14.5 36.5t36.5 14.5t37 -14.5t15 -36.5t-15 -37t-37 -15z" />
    <glyph glyph-name="lozenge" unicode="&#x25ca;" horiz-adv-x="527" 
d="M231 0l-205 358l205 358h66l205 -358l-205 -358h-66zM94 358l168 -299h4l168 299l-168 299h-4z" />
    <glyph glyph-name="ydieresis" unicode="&#xff;" horiz-adv-x="478" 
d="M98 -216l113 252l-206 454h71l166 -378h2l159 378h70l-309 -706h-66zM319 615q-18 0 -31.5 13t-13.5 31q0 20 13.5 32.5t31.5 12.5q19 0 31.5 -12.5t12.5 -32.5q0 -18 -12.5 -31t-31.5 -13zM165 615q-18 0 -31.5 13t-13.5 31q0 20 13.5 32.5t31.5 12.5q19 0 31.5 -12.5
t12.5 -32.5q0 -18 -12.5 -31t-31.5 -13z" />
    <glyph glyph-name="Ydieresis" unicode="&#x178;" horiz-adv-x="579" 
d="M260 0v324l-247 392h75l202 -326h4l198 326h75l-243 -392v-324h-64zM369 799q-18 0 -31.5 13t-13.5 31q0 20 13.5 32.5t31.5 12.5q19 0 31.5 -12.5t12.5 -32.5q0 -18 -12.5 -31t-31.5 -13zM215 799q-18 0 -31.5 13t-13.5 31q0 20 13.5 32.5t31.5 12.5q19 0 31.5 -12.5
t12.5 -32.5q0 -18 -12.5 -31t-31.5 -13z" />
    <glyph glyph-name="fraction" unicode="&#x2044;" horiz-adv-x="181" 
d="M-164 25l467 695l42 -29l-466 -695z" />
    <glyph glyph-name="Euro" unicode="&#x20ac;" horiz-adv-x="619" 
d="M26 450h92q15 58 45 104.5t71.5 78.5t92.5 49.5t107 17.5q41 0 79 -11.5t68 -31.5l-30 -51q-29 17 -57 25t-61 8q-41 0 -79.5 -12t-71.5 -35.5t-58 -59t-39 -82.5h239v-54h-250q-4 -23 -4 -54t4 -54h250v-54h-239q14 -47 40 -82t59 -58.5t72.5 -35.5t80.5 -12
q38 0 68 8.5t60 26.5l29 -56q-33 -20 -73.5 -30.5t-84.5 -10.5q-57 0 -108 17.5t-93 49.5t-72 78.5t-45 104.5h-92v54h82q-3 25 -3 54q0 27 3 54h-82v54z" />
    <glyph glyph-name="guilsinglleft" unicode="&#x2039;" horiz-adv-x="340" 
d="M276 96l-39 -36l-194 211l194 211l39 -36l-163 -175z" />
    <glyph glyph-name="guilsinglright" unicode="&#x203a;" horiz-adv-x="340" 
d="M227 271l-163 175l39 36l195 -211l-195 -211l-39 36z" />
    <glyph glyph-name="daggerdbl" unicode="&#x2021;" horiz-adv-x="418" 
d="M34 562h143v154h64v-154h143v-59h-143v-273h143v-59h-143v-171h-64v171h-143v59h143v273h-143v59z" />
    <glyph glyph-name="periodcentered" unicode="&#xb7;" horiz-adv-x="145" 
d="M73 273q-22 0 -37 14.5t-15 36.5t15 37t37 15t36.5 -15t14.5 -37t-14.5 -36.5t-36.5 -14.5z" />
    <glyph glyph-name="quotesinglbase" unicode="&#x201a;" horiz-adv-x="216" 
d="M51 -68l46 69q-13 4 -24 16t-11 31q0 22 14.5 36.5t36.5 14.5t37 -14.5t15 -36.5q0 -14 -6 -26t-14 -24l-61 -88z" />
    <glyph glyph-name="quotedblbase" unicode="&#x201e;" horiz-adv-x="364" 
d="M51 -68l46 69q-13 4 -24 16t-11 31q0 22 14.5 36.5t36.5 14.5t37 -14.5t15 -36.5q0 -14 -6 -26t-14 -24l-61 -88zM199 -68l46 69q-13 4 -24 16t-11 31q0 22 14.5 36.5t36.5 14.5t37 -14.5t15 -36.5q0 -14 -6 -26t-14 -24l-61 -88z" />
    <glyph glyph-name="perthousand" unicode="&#x2030;" horiz-adv-x="1098" 
d="M897 -16q-48 0 -86 25t-58 63q-20 -38 -58 -63t-86 -25q-36 0 -66.5 14t-53 37t-35 54t-12.5 66q0 34 12.5 65.5t35 54.5t53 37t66.5 14q48 0 86 -25t58 -63q20 38 58 63t86 25q36 0 66.5 -14t53 -37t35 -54.5t12.5 -65.5q0 -35 -12.5 -66t-35 -54t-53 -37t-66.5 -14z
M201 358q-36 0 -66.5 14t-53 37t-35 54t-12.5 66q0 34 12.5 65.5t35 54.5t53 37t66.5 14t66.5 -14t53 -37t35 -54.5t12.5 -65.5q0 -35 -12.5 -66t-35 -54t-53 -37t-66.5 -14zM609 33q24 0 45 9t36.5 25.5t24 39t8.5 48.5q0 27 -8.5 49.5t-24 39t-36.5 25.5t-45 9t-45 -9
t-36 -25.5t-24 -39t-9 -49.5q0 -26 9 -48.5t24 -39t36 -25.5t45 -9zM897 33q24 0 45 9t36.5 25.5t24 39t8.5 48.5q0 27 -8.5 49.5t-24 39t-36.5 25.5t-45 9t-45 -9t-36 -25.5t-24 -39t-9 -49.5q0 -26 9 -48.5t24 -39t36 -25.5t45 -9zM201 407q24 0 45 9t36.5 25.5t24 39
t8.5 48.5q0 27 -8.5 49.5t-24 39t-36.5 25.5t-45 9t-45 -9t-36 -25.5t-24 -39t-9 -49.5q0 -26 9 -48.5t24 -39t36 -25.5t45 -9zM606 687l43 -28l-445 -663l-43 29z" />
    <glyph glyph-name="Acircumflex" unicode="&#xc2;" horiz-adv-x="653" 
d="M290 716h74l277 -716h-70l-78 207h-332l-78 -207h-70zM470 267l-141 371h-4l-141 -371h286zM197 786l100 114h59l101 -114v-5h-64l-62 72h-8l-63 -72h-63v5z" />
    <glyph glyph-name="Ecircumflex" unicode="&#xca;" horiz-adv-x="537" 
d="M150 786l100 114h59l101 -114v-5h-64l-62 72h-8l-63 -72h-63v5zM141 655v-267h308v-60h-308v-267h340v-61h-404v716h404v-61h-340z" />
    <glyph glyph-name="Aacute" unicode="&#xc1;" horiz-adv-x="653" 
d="M290 716h74l277 -716h-70l-78 207h-332l-78 -207h-70zM470 267l-141 371h-4l-141 -371h286zM302 776l52 124h73l-67 -124h-58z" />
    <glyph glyph-name="Edieresis" unicode="&#xcb;" horiz-adv-x="537" 
d="M353 799q-18 0 -31.5 13t-13.5 31q0 20 13.5 32.5t31.5 12.5q19 0 31.5 -12.5t12.5 -32.5q0 -18 -12.5 -31t-31.5 -13zM199 799q-18 0 -31.5 13t-13.5 31q0 20 13.5 32.5t31.5 12.5q19 0 31.5 -12.5t12.5 -32.5q0 -18 -12.5 -31t-31.5 -13zM141 655v-267h308v-60h-308
v-267h340v-61h-404v716h404v-61h-340z" />
    <glyph glyph-name="Egrave" unicode="&#xc8;" horiz-adv-x="537" 
d="M141 655v-267h308v-60h-308v-267h340v-61h-404v716h404v-61h-340zM257 776l-67 124h73l52 -124h-58z" />
    <glyph glyph-name="Iacute" unicode="&#xcd;" horiz-adv-x="218" 
d="M77 716h64v-716h-64v716zM82 776l52 124h73l-67 -124h-58z" />
    <glyph glyph-name="Icircumflex" unicode="&#xce;" horiz-adv-x="218" 
d="M77 716h64v-716h-64v716zM-20 786l100 114h59l101 -114v-5h-64l-62 72h-8l-63 -72h-63v5z" />
    <glyph glyph-name="Idieresis" unicode="&#xcf;" horiz-adv-x="218" 
d="M47 799q-18 0 -31 13.5t-13 31.5q0 19 13 31.5t31 12.5q20 0 32.5 -12.5t12.5 -31.5q0 -18 -12.5 -31.5t-32.5 -13.5zM171 799q-18 0 -31 13.5t-13 31.5q0 19 13 31.5t31 12.5q20 0 32.5 -12.5t12.5 -31.5q0 -18 -12.5 -31.5t-32.5 -13.5zM77 716h64v-716h-64v716z" />
    <glyph glyph-name="Igrave" unicode="&#xcc;" horiz-adv-x="218" 
d="M77 716h64v-716h-64v716zM80 776l-67 124h73l52 -124h-58z" />
    <glyph glyph-name="Oacute" unicode="&#xd3;" horiz-adv-x="809" 
d="M377 776l52 124h73l-67 -124h-58zM405 -16q-79 0 -146 29.5t-115.5 80.5t-76 119t-27.5 145t27.5 145t76 119t115.5 80.5t146 29.5q78 0 145 -29.5t116 -80.5t76.5 -119t27.5 -145t-27.5 -145t-76.5 -119t-116 -80.5t-145 -29.5zM405 45q61 0 116 23t95.5 64.5t64.5 99
t24 126.5t-24 126.5t-64.5 99t-95.5 64.5t-116 23q-62 0 -116.5 -23t-95.5 -64.5t-64.5 -99t-23.5 -126.5t23.5 -126.5t64.5 -99t95.5 -64.5t116.5 -23z" />
    <glyph glyph-name="Ocircumflex" unicode="&#xd4;" horiz-adv-x="809" 
d="M275 787l100 114h59l101 -114v-5h-64l-62 72h-8l-63 -72h-63v5zM405 -16q-79 0 -146 29.5t-115.5 80.5t-76 119t-27.5 145t27.5 145t76 119t115.5 80.5t146 29.5q78 0 145 -29.5t116 -80.5t76.5 -119t27.5 -145t-27.5 -145t-76.5 -119t-116 -80.5t-145 -29.5zM405 45
q61 0 116 23t95.5 64.5t64.5 99t24 126.5t-24 126.5t-64.5 99t-95.5 64.5t-116 23q-62 0 -116.5 -23t-95.5 -64.5t-64.5 -99t-23.5 -126.5t23.5 -126.5t64.5 -99t95.5 -64.5t116.5 -23z" />
    <glyph glyph-name="uniF8FF" unicode="&#xf8ff;" horiz-adv-x="1000" 
d="M891 451q4 -21 5.5 -42t1.5 -44q0 -89 -28.5 -163.5t-81 -128.5t-126 -84t-163.5 -30q-86 0 -162 32.5t-132.5 89t-89 132.5t-32.5 162t32.5 162t89 132.5t132.5 89t162 32.5q85 0 154.5 -28.5t123.5 -79.5l-119 -120q-65 62 -159 62q-51 0 -96 -20t-78 -54t-52.5 -79.5
t-19.5 -96.5t19.5 -96.5t52.5 -80t78 -54.5t96 -20q46 0 84 12.5t67 34.5t47.5 52.5t25.5 66.5h-224v161h392z" />
    <glyph glyph-name="Ograve" unicode="&#xd2;" horiz-adv-x="809" 
d="M405 -16q-79 0 -146 29.5t-115.5 80.5t-76 119t-27.5 145t27.5 145t76 119t115.5 80.5t146 29.5q78 0 145 -29.5t116 -80.5t76.5 -119t27.5 -145t-27.5 -145t-76.5 -119t-116 -80.5t-145 -29.5zM405 45q61 0 116 23t95.5 64.5t64.5 99t24 126.5t-24 126.5t-64.5 99
t-95.5 64.5t-116 23q-62 0 -116.5 -23t-95.5 -64.5t-64.5 -99t-23.5 -126.5t23.5 -126.5t64.5 -99t95.5 -64.5t116.5 -23zM374 776l-67 124h73l52 -124h-58z" />
    <glyph glyph-name="Uacute" unicode="&#xda;" horiz-adv-x="635" 
d="M285 776l52 124h73l-67 -124h-58zM318 -16q-58 0 -105.5 20t-81.5 57t-52.5 88t-18.5 113v454h64v-458q0 -45 13 -84t37.5 -67.5t60.5 -45t83 -16.5q46 0 82 16.5t61 45t38 67.5t13 84v458h64v-454q0 -62 -17.5 -113t-51 -88t-81.5 -57t-108 -20z" />
    <glyph glyph-name="Ucircumflex" unicode="&#xdb;" horiz-adv-x="635" 
d="M188 786l100 114h59l101 -114v-5h-64l-62 72h-8l-63 -72h-63v5zM318 -16q-58 0 -105.5 20t-81.5 57t-52.5 88t-18.5 113v454h64v-458q0 -45 13 -84t37.5 -67.5t60.5 -45t83 -16.5q46 0 82 16.5t61 45t38 67.5t13 84v458h64v-454q0 -62 -17.5 -113t-51 -88t-81.5 -57
t-108 -20z" />
    <glyph glyph-name="Ugrave" unicode="&#xd9;" horiz-adv-x="635" 
d="M318 -16q-58 0 -105.5 20t-81.5 57t-52.5 88t-18.5 113v454h64v-458q0 -45 13 -84t37.5 -67.5t60.5 -45t83 -16.5q46 0 82 16.5t61 45t38 67.5t13 84v458h64v-454q0 -62 -17.5 -113t-51 -88t-81.5 -57t-108 -20zM292 776l-67 124h73l52 -124h-58z" />
    <glyph glyph-name="dotlessi" unicode="&#x131;" horiz-adv-x="195" 
d="M66 0v490h64v-490h-64z" />
    <glyph glyph-name="circumflex" unicode="&#x2c6;" horiz-adv-x="381" 
d="M61 602l100 114h59l101 -114v-5h-64l-62 72h-8l-63 -72h-63v5z" />
    <glyph glyph-name="tilde" unicode="&#x2dc;" horiz-adv-x="392" 
d="M259 602q-20 0 -37.5 8.5t-32.5 18.5t-29 18.5t-26 8.5q-40 0 -46 -44h-54q0 26 9.5 45.5t23.5 32t32 18.5t35 6q20 0 37.5 -8.5t32.5 -17.5q15 -10 29 -18.5t26 -8.5q40 0 45 43h54q0 -26 -9.5 -45.5t-23.5 -32t-31.5 -18.5t-34.5 -6z" />
    <glyph glyph-name="macron" unicode="&#xaf;" horiz-adv-x="396" 
d="M64 633v52h268v-52h-268z" />
    <glyph glyph-name="breve" unicode="&#x2d8;" horiz-adv-x="398" 
d="M200 592q-24 0 -46 9t-39.5 25t-27.5 38t-10 48h55q0 -27 18 -48t50 -21q31 0 49.5 21t18.5 48h53q0 -26 -10 -48t-26.5 -38t-38.5 -25t-46 -9z" />
    <glyph glyph-name="dotaccent" unicode="&#x2d9;" horiz-adv-x="215" 
d="M108 615q-18 0 -31.5 13t-13.5 31q0 20 13.5 32.5t31.5 12.5q19 0 31.5 -12.5t12.5 -32.5q0 -18 -12.5 -31t-31.5 -13z" />
    <glyph glyph-name="ring" unicode="&#x2da;" horiz-adv-x="409" 
d="M205 570q-21 0 -40 8t-32.5 22t-21.5 32.5t-8 39.5q0 43 29.5 72.5t72.5 29.5q21 0 39.5 -8t32.5 -21.5t22 -32.5t8 -40t-8 -39.5t-22 -32.5t-32.5 -22t-39.5 -8zM205 616q23 0 39 16t16 40t-16 40t-39 16t-39 -16t-16 -40t16 -40t39 -16z" />
    <glyph glyph-name="cedilla" unicode="&#xb8;" horiz-adv-x="412" 
d="M169 -237q-33 0 -58 19.5t-35 47.5l42 18q6 -17 19 -29t32 -12q23 0 37 14.5t14 37.5q0 22 -13.5 37.5t-36.5 15.5q-26 0 -42 -21l-36 17l35 92h45l-24 -54q5 3 12.5 5.5t18.5 2.5q37 0 63.5 -26.5t26.5 -68.5q0 -20 -7.5 -37t-21 -30.5t-31.5 -21t-40 -7.5z" />
    <glyph glyph-name="hungarumlaut" unicode="&#x2dd;" horiz-adv-x="357" 
d="M78 592l52 124h73l-67 -124h-58zM221 592l52 124h73l-67 -124h-58z" />
    <glyph glyph-name="ogonek" unicode="&#x2db;" horiz-adv-x="405" 
d="M208 -224q-53 0 -83.5 32t-30.5 78q0 20 6.5 37.5t16.5 32t22 25.5t24 19h64q-32 -24 -53 -49.5t-21 -57.5q0 -29 17.5 -46t41.5 -17q20 0 34 7l20 -49q-13 -6 -26 -9t-32 -3z" />
    <glyph glyph-name="caron" unicode="&#x2c7;" horiz-adv-x="381" 
d="M61 716h63l63 -72h8l62 72h64v-5l-101 -114h-59l-100 114v5z" />
    <glyph glyph-name="NULL" horiz-adv-x="0" 
d="M0 0z" />
    <glyph glyph-name="NULL" horiz-adv-x="0" 
d="M0 0z" />
    <glyph glyph-name="uni0002" horiz-adv-x="0" 
d="M0 0z" />
    <glyph glyph-name="uni0009" unicode="&#x9;" horiz-adv-x="0" 
d="M0 0z" />
    <glyph glyph-name="uni000A" unicode="&#xa;" horiz-adv-x="0" 
d="M0 0z" />
    <glyph glyph-name="uni00A0" unicode="&#xa0;" horiz-adv-x="220" 
d="M0 0z" />
    <glyph glyph-name="space.tf" horiz-adv-x="325" 
d="M0 0z" />
    <glyph glyph-name="numbersign.tf" 
d="M132 0l32 213h-126l10 54h124l23 159h-124l9 54h123l31 204h58l-31 -204h158l31 204h58l-31 -204h126l-9 -54h-125l-23 -159h125l-9 -54h-124l-32 -213h-58l32 213h-158l-32 -213h-58zM230 267h158l23 159h-158z" />
    <glyph glyph-name="numbersign.cap" horiz-adv-x="621" 
d="M122 0l32 215h-128l9 54h127l24 164h-126l9 54h125l35 229h58l-35 -229h158l35 229h58l-35 -229h128l-9 -54h-127l-24 -164h127l-9 -54h-126l-32 -215h-58l32 215h-158l-32 -215h-58zM220 269h158l24 164h-158z" />
    <glyph glyph-name="dollar.tf" 
d="M300 -15q-33 3 -66.5 16.5t-62.5 36t-51.5 54.5t-33.5 73l57 24q17 -58 59.5 -96.5t97.5 -46.5v281q-42 17 -76.5 36t-59 42t-37.5 52.5t-13 67.5q0 33 13 63.5t37 54t58.5 38.5t77.5 18v85h54v-86q39 -5 68 -19t50 -33t34.5 -41t20.5 -41l-58 -24q-11 31 -38.5 59.5
t-76.5 36.5v-264q38 -16 72.5 -34.5t60.5 -41.5t41 -53t15 -69q0 -44 -15.5 -77.5t-42 -56.5t-60.5 -36.5t-71 -17.5v-86h-54v85zM479 171q0 24 -9 43t-25 34.5t-39.5 29t-51.5 26.5v-257q55 7 90 38.5t35 85.5zM178 526q0 -48 32 -77.5t90 -54.5v244q-54 -5 -88 -34.5
t-34 -77.5z" />
    <glyph glyph-name="dollar.cap" horiz-adv-x="538" 
d="M243 -14q-35 4 -69 18t-63 38t-51.5 58t-33.5 77l58 23q16 -62 58.5 -104t100.5 -50v298q-87 32 -139 80t-52 122q0 34 13 66t37.5 57t60 41.5t80.5 20.5v65h56v-66q41 -5 72 -20t53.5 -35t36.5 -42.5t21 -43.5l-59 -25q-5 15 -14.5 32t-24.5 31.5t-36 25.5t-49 16v-280
q42 -17 77.5 -35t62 -41t41.5 -53.5t15 -70.5q0 -49 -16.5 -85.5t-43.5 -61t-62.5 -38.5t-73.5 -18v-66h-56v66zM431 185q0 50 -34.5 80.5t-97.5 56.5v-276q57 8 94.5 43.5t37.5 95.5zM116 546q0 -48 34 -79t93 -56v259q-57 -7 -92 -40.5t-35 -83.5z" />
    <glyph glyph-name="percent.tf" 
d="M81 25l445 662l42 -28l-444 -663zM481 256q28 0 53 -10.5t43.5 -29t29 -43.5t10.5 -53t-10.5 -53t-29 -43.5t-43.5 -29t-53 -10.5q-29 0 -53.5 10.5t-43 29t-29 43.5t-10.5 53t10.5 53t29 43.5t43 29t53.5 10.5zM481 31q36 0 61 26.5t25 62.5q0 37 -25 63t-61 26t-61 -26
t-25 -63q0 -36 25 -62.5t61 -26.5zM171 700q28 0 52.5 -10.5t43 -29t29 -43.5t10.5 -53t-10.5 -53t-29 -43.5t-43 -29t-52.5 -10.5q-29 0 -54 10.5t-43.5 29t-29 43.5t-10.5 53t10.5 53t29 43.5t43.5 29t54 10.5zM171 475q18 0 33.5 7t27 19.5t18 28.5t6.5 34t-6.5 34.5
t-18 28.5t-27 19t-33.5 7q-37 0 -62 -26t-25 -63q0 -36 25 -62.5t62 -26.5z" />
    <glyph glyph-name="percent.cap" horiz-adv-x="810" 
d="M151 25l466 695l43 -29l-466 -695zM201 390q-36 0 -66.5 14t-53 37t-35 54t-12.5 66q0 34 12.5 65.5t35 54.5t53 37t66.5 14t66.5 -14t53 -37t35 -54.5t12.5 -65.5q0 -35 -12.5 -66t-35 -54t-53 -37t-66.5 -14zM201 439q24 0 45 9t36.5 25.5t24 39t8.5 48.5
q0 27 -8.5 49.5t-24 39t-36.5 25.5t-45 9t-45 -9t-36 -25.5t-24 -39t-9 -49.5q0 -26 9 -48.5t24 -39t36 -25.5t45 -9zM609 -16q-36 0 -66.5 14t-53 37t-35 54t-12.5 66q0 34 12.5 65.5t35 54.5t53 37t66.5 14t66.5 -14t53 -37t35 -54.5t12.5 -65.5q0 -35 -12.5 -66t-35 -54
t-53 -37t-66.5 -14zM609 33q24 0 45 9t36.5 25.5t24 39t8.5 48.5q0 27 -8.5 49.5t-24 39t-36.5 25.5t-45 9t-45 -9t-36 -25.5t-24 -39t-9 -49.5q0 -26 9 -48.5t24 -39t36 -25.5t45 -9z" />
    <glyph glyph-name="ampersand.alt" horiz-adv-x="618" 
d="M272 -16q-53 0 -96.5 17t-75 46t-49 69t-17.5 86q0 36 10 65t27.5 51.5t40 39t46.5 26.5v4q-36 18 -64 55.5t-28 99.5q0 39 14.5 73.5t42 60t67 40.5t89.5 15q29 0 48.5 -5.5t35.5 -12.5l-22 -57q-13 7 -29 10.5t-33 3.5q-35 0 -62 -10t-46.5 -27.5t-29.5 -41t-10 -49.5
q0 -58 37.5 -94t109.5 -36h158v102h64v-102h92v-59h-92v-120q0 -57 -16 -103.5t-46 -79t-72 -50t-94 -17.5zM272 45q75 0 119.5 50t44.5 139v120h-170q-38 0 -69 -13t-53 -34t-33.5 -48t-11.5 -56q0 -33 13 -61.5t36 -50t54.5 -34t69.5 -12.5z" />
    <glyph glyph-name="parenleft.cap" horiz-adv-x="315" 
d="M246 -104q-30 34 -61.5 82t-57.5 106.5t-42.5 126.5t-16.5 143q0 76 16.5 144t42.5 126.5t57.5 105.5t61.5 82l48 -34q-32 -38 -61.5 -84.5t-52 -100.5t-36 -114t-13.5 -125t13.5 -125t36 -114t52 -101t61.5 -84z" />
    <glyph glyph-name="parenright.cap" horiz-adv-x="315" 
d="M21 -70q32 37 61.5 84t52 101t36 114t13.5 125t-13.5 125t-36 114t-52 100.5t-61.5 84.5l48 34q30 -35 61.5 -82t57.5 -105.5t42.5 -126.5t16.5 -144q0 -75 -16.5 -143t-42.5 -126.5t-57.5 -106.5t-61.5 -82z" />
    <glyph glyph-name="plus.tf" 
d="M350 298h186v-54h-186v-185h-54v185h-185v54h185v186h54v-186z" />
    <glyph glyph-name="comma.tf" horiz-adv-x="325" 
d="M69 -83l71 205h77l-91 -205h-57z" />
    <glyph glyph-name="comma.alt" horiz-adv-x="237" 
d="M47 -83l71 205h77l-91 -205h-57z" />
    <glyph glyph-name="hyphen.cap" horiz-adv-x="429" 
d="M60 398h310v-54h-310v54z" />
    <glyph glyph-name="period.tf" horiz-adv-x="325" 
d="M163 -6q-22 0 -36.5 15t-14.5 37t14.5 36.5t36.5 14.5t37 -14.5t15 -36.5t-15 -37t-37 -15z" />
    <glyph glyph-name="zero.alt" horiz-adv-x="630" 
d="M315 291q-22 0 -36.5 14.5t-14.5 36.5t14.5 37t36.5 15t37 -15t15 -37t-15 -36.5t-37 -14.5zM315 -16q-62 0 -111.5 28t-84.5 76t-53.5 113.5t-18.5 140.5t18.5 140.5t53.5 114t84.5 76t111.5 27.5t111.5 -27.5t84.5 -76t53.5 -114t18.5 -140.5t-18.5 -140.5
t-53.5 -113.5t-84.5 -76t-111.5 -28zM315 45q47 0 84.5 23t64 63t40.5 94t14 117t-14 117.5t-40.5 94t-64 62.5t-84.5 23t-84.5 -23t-64 -62.5t-40.5 -94t-14 -117.5t14 -117t40.5 -94t64 -63t84.5 -23z" />
    <glyph glyph-name="zero.tf" 
d="M325 -16q-62 0 -111.5 28t-84.5 76t-53.5 113.5t-18.5 140.5t18.5 140.5t53.5 114t84.5 76t111.5 27.5t111.5 -27.5t84.5 -76t53.5 -114t18.5 -140.5t-18.5 -140.5t-53.5 -113.5t-84.5 -76t-111.5 -28zM325 45q47 0 84.5 23t64 63t40.5 94t14 117t-14 117.5t-40.5 94
t-64 62.5t-84.5 23t-84.5 -23t-64 -62.5t-40.5 -94t-14 -117.5t14 -117t40.5 -94t64 -63t84.5 -23z" />
    <glyph glyph-name="zero.numerator" horiz-adv-x="370" 
d="M185 342q-38 0 -66 16.5t-47 43t-28.5 61t-9.5 70.5t9.5 70.5t28.5 61t47 43t66 16.5q37 0 65.5 -16.5t47.5 -43t28.5 -61t9.5 -70.5t-9.5 -70.5t-28.5 -61t-47.5 -43t-65.5 -16.5zM185 389q26 0 44.5 13t30.5 34t18 46.5t6 50.5t-6 50.5t-18 46.5t-30.5 34t-44.5 13
t-44.5 -13t-30.5 -34t-18 -46.5t-6 -50.5t6 -50.5t18 -46.5t30.5 -34t44.5 -13z" />
    <glyph glyph-name="zero.denominator" horiz-adv-x="370" 
d="M185 -7q-38 0 -66 16.5t-47 43t-28.5 61t-9.5 70.5t9.5 70.5t28.5 61t47 43t66 16.5q37 0 65.5 -16.5t47.5 -43t28.5 -61t9.5 -70.5t-9.5 -70.5t-28.5 -61t-47.5 -43t-65.5 -16.5zM185 40q26 0 44.5 13t30.5 34t18 46.5t6 50.5t-6 50.5t-18 46.5t-30.5 34t-44.5 13
t-44.5 -13t-30.5 -34t-18 -46.5t-6 -50.5t6 -50.5t18 -46.5t30.5 -34t44.5 -13z" />
    <glyph glyph-name="zero.cap" horiz-adv-x="646" 
d="M323 -16q-64 0 -115 29.5t-87 80.5t-55 119t-19 145t19 145t55 119t87 80.5t115 29.5t115 -29.5t87 -80.5t55 -119t19 -145t-19 -145t-55 -119t-87 -80.5t-115 -29.5zM323 45q48 0 87 25t66.5 67.5t42.5 99.5t15 121t-15 121t-42.5 99.5t-66.5 67.5t-87 25t-87 -25
t-66.5 -67.5t-42.5 -99.5t-15 -121t15 -121t42.5 -99.5t66.5 -67.5t87 -25z" />
    <glyph glyph-name="zero.altcap" horiz-adv-x="646" 
d="M323 307q-22 0 -36.5 14.5t-14.5 36.5t14.5 37t36.5 15t37 -15t15 -37t-15 -36.5t-37 -14.5zM323 -16q-64 0 -115 29.5t-87 80.5t-55 119t-19 145t19 145t55 119t87 80.5t115 29.5t115 -29.5t87 -80.5t55 -119t19 -145t-19 -145t-55 -119t-87 -80.5t-115 -29.5zM323 45
q48 0 87 25t66.5 67.5t42.5 99.5t15 121t-15 121t-42.5 99.5t-66.5 67.5t-87 25t-87 -25t-66.5 -67.5t-42.5 -99.5t-15 -121t15 -121t42.5 -99.5t66.5 -67.5t87 -25z" />
    <glyph glyph-name="one.alt" horiz-adv-x="475" 
d="M49 61h163v544l-130 -62l-25 53l178 88h41v-623h157v-61h-384v61z" />
    <glyph glyph-name="one.tf" 
d="M150 61h163v544l-129 -62l-26 53l178 88h41v-623h157v-61h-384v61z" />
    <glyph glyph-name="one.denominator" horiz-adv-x="230" 
d="M115 1v303l-71 -31l-18 41l112 53h28v-366h-51z" />
    <glyph glyph-name="one.numerator" horiz-adv-x="230" 
d="M115 350v303l-71 -31l-18 41l112 53h28v-366h-51z" />
    <glyph glyph-name="one.cap" horiz-adv-x="351" 
d="M198 0v637l-130 -62l-25 53l178 88h41v-716h-64z" />
    <glyph glyph-name="one.altcap" horiz-adv-x="477" 
d="M47 0v61h165v576l-130 -62l-25 53l178 88h41v-655h159v-61h-388z" />
    <glyph glyph-name="two.tf" 
d="M111 0v65l101 101q21 21 42 42.5t41 42.5t38 39q17 18 29 32q27 29 45.5 51.5t30 43t17 41.5t5.5 47q0 24 -9 48t-27 43t-45 31t-64 12q-33 0 -58 -11t-42 -28t-27.5 -36.5t-14.5 -36.5l-59 24q6 21 21 47t39.5 48.5t60 38t83.5 15.5t86.5 -16t65 -43t41 -62t14.5 -73
q0 -35 -9.5 -65.5t-25.5 -58t-36.5 -52.5t-42.5 -48l-23 -23q-14 -15 -31 -32l-36 -36q-19 -20 -37 -38q-43 -43 -91 -92h340v-61h-422z" />
    <glyph glyph-name="two.denominator" horiz-adv-x="296" 
d="M27 1v45l136 136q22 23 36 42t14 45q0 25 -18 42t-47 17q-27 0 -47.5 -15.5t-28.5 -51.5l-46 19q10 45 43.5 70t75.5 25q24 0 45.5 -7.5t38 -21t26 -33.5t9.5 -44q0 -18 -6 -34.5t-14.5 -30t-18.5 -24.5t-19 -20l-112 -112h172v-47h-239z" />
    <glyph glyph-name="two.numerator" horiz-adv-x="296" 
d="M27 350v45l136 136q22 23 36 42t14 45q0 25 -18 42t-47 17q-27 0 -47.5 -15.5t-28.5 -51.5l-46 19q10 45 43.5 70t75.5 25q24 0 45.5 -7.5t38 -21t26 -33.5t9.5 -44q0 -18 -6 -34.5t-14.5 -30t-18.5 -24.5t-19 -20l-112 -112h172v-47h-239z" />
    <glyph glyph-name="two.cap" horiz-adv-x="526" 
d="M43 0v67q56 58 106 111q21 22 44 46q22 23 43 45q20 22 38 41t31 33q28 30 47.5 54t31.5 45.5t17.5 43t5.5 47.5q0 25 -9.5 50t-29 44.5t-48 31.5t-65.5 12q-35 0 -61 -11.5t-44 -28.5t-29.5 -37t-15.5 -37l-60 25q6 21 21.5 47.5t41 49t62.5 38t86 15.5q50 0 90 -16
t68 -43.5t43 -63.5t15 -75q0 -36 -9.5 -68t-26 -60.5t-37.5 -54.5t-45 -50q-9 -9 -23 -24l-33 -33q-18 -19 -38 -40t-39 -41q-46 -48 -98 -102h356v-61h-436z" />
    <glyph glyph-name="three.tf" 
d="M309 -16q-31 0 -64 9.5t-62.5 30t-53 53t-35.5 77.5l58 24q17 -63 59 -98t98 -35q34 0 63 11t50.5 30.5t33.5 46.5t12 59q0 30 -12.5 55.5t-34 44.5t-50.5 29.5t-63 10.5h-58v60h57q58 0 97.5 33t39.5 92q0 26 -10.5 48.5t-29 39t-43.5 25.5t-54 9q-31 0 -54.5 -9.5
t-40.5 -24.5t-27.5 -34t-16.5 -37l-58 25q7 23 22.5 48t40 45.5t58 34t76.5 13.5q44 0 81 -14t64 -38t42 -57.5t15 -72.5q0 -30 -8.5 -54.5t-22.5 -43t-32 -32t-37 -22.5v-4q51 -19 87.5 -62t36.5 -107q0 -46 -17.5 -84.5t-48 -66t-71.5 -43t-87 -15.5z" />
    <glyph glyph-name="three.denominator" horiz-adv-x="319" 
d="M157 -7q-21 0 -41.5 5.5t-38.5 17.5t-31.5 30.5t-19.5 44.5l46 18q10 -37 32.5 -53t52.5 -16q33 0 54.5 19t21.5 48q0 31 -22.5 46.5t-53.5 15.5h-37v45h32q27 0 47.5 15.5t20.5 42.5q0 26 -19 41t-45 15q-31 0 -47 -15t-23 -35l-45 18q13 36 42.5 57.5t71.5 21.5
q54 0 85.5 -29t31.5 -72q0 -28 -15 -47.5t-35 -31.5q26 -12 44.5 -33t18.5 -53q0 -27 -10.5 -48.5t-28 -36.5t-40.5 -23t-49 -8z" />
    <glyph glyph-name="three.numerator" horiz-adv-x="319" 
d="M157 342q-21 0 -41.5 5.5t-38.5 17.5t-31.5 30.5t-19.5 44.5l46 18q10 -37 32.5 -53t52.5 -16q33 0 54.5 19t21.5 48q0 31 -22.5 46.5t-53.5 15.5h-37v45h32q27 0 47.5 15.5t20.5 42.5q0 26 -19 41t-45 15q-31 0 -47 -15t-23 -35l-45 18q13 36 42.5 57.5t71.5 21.5
q54 0 85.5 -29t31.5 -72q0 -28 -15 -47.5t-35 -31.5q26 -12 44.5 -33t18.5 -53q0 -27 -10.5 -48.5t-28 -36.5t-40.5 -23t-49 -8z" />
    <glyph glyph-name="three.cap" horiz-adv-x="538" 
d="M264 -16q-32 0 -66.5 10t-66 31t-56 54.5t-36.5 80.5l59 24q17 -65 63 -102t103 -37q35 0 65.5 11.5t53 31.5t35.5 48.5t13 63.5q0 31 -13.5 57.5t-37 46t-54.5 30.5t-65 11h-58v60h57q29 0 55.5 10t47 27.5t32.5 42.5t12 55q0 27 -11.5 50.5t-31 41.5t-46.5 28.5
t-58 10.5q-30 0 -54.5 -10.5t-42.5 -26.5t-30 -35.5t-18 -38.5l-59 25q7 23 23.5 49t42 47.5t60 36t78.5 14.5q46 0 85 -15t67 -41t44 -60.5t16 -74.5q0 -32 -9 -58t-24 -46t-35 -34t-41 -23v-4q27 -9 51 -25.5t42.5 -38.5t29 -50t10.5 -61q0 -49 -18.5 -89t-50 -68.5
t-73.5 -44t-90 -15.5z" />
    <glyph glyph-name="four.tf" 
d="M409 0v157h-337v44l329 483h72v-467h88v-60h-88v-157h-64zM409 590h-4l-255 -373h259v373z" />
    <glyph glyph-name="four.denominator" horiz-adv-x="334" 
d="M30 114l180 253h43v-241h52v-45h-52v-80h-51v80h-172v33zM202 126v154h-4l-109 -154h113z" />
    <glyph glyph-name="four.numerator" horiz-adv-x="334" 
d="M30 463l180 253h43v-241h52v-45h-52v-80h-51v80h-172v33zM202 475v154h-4l-109 -154h113z" />
    <glyph glyph-name="four.cap" horiz-adv-x="596" 
d="M392 0v168h-349v44l343 504h70v-488h93v-60h-93v-168h-64zM392 619h-4l-267 -391h271v391z" />
    <glyph glyph-name="five.tf" 
d="M313 -16q-36 0 -71 11t-65 34t-53 57.5t-35 81.5l57 23q18 -70 61 -108t104 -38q38 0 69.5 12t54 34.5t34.5 53t12 68.5q0 37 -12 67.5t-33.5 53t-52 35t-67.5 12.5q-39 0 -74.5 -17.5t-58.5 -49.5l-69 30l44 340h342v-61h-288l-33 -238l4 -1q25 25 61 40.5t83 15.5
q45 0 84.5 -17t69 -47t47 -71.5t17.5 -90.5q0 -48 -17 -90t-47.5 -73t-73.5 -49t-94 -18z" />
    <glyph glyph-name="five.denominator" horiz-adv-x="311" 
d="M156 -7q-20 0 -40.5 5t-38 16t-31 28t-20.5 42l48 19q8 -31 29 -47t53 -16q33 0 55 23t22 58q0 36 -22.5 58.5t-55.5 22.5q-42 0 -74 -43l-43 18l25 189h201v-45h-158l-15 -101q13 11 31 18t40 7q53 0 88 -34t35 -91q0 -28 -10 -51t-27.5 -40t-41 -26.5t-50.5 -9.5z" />
    <glyph glyph-name="five.numerator" horiz-adv-x="311" 
d="M156 343q-20 0 -40.5 5t-38 16t-31 28t-20.5 42l48 19q8 -31 29 -47t53 -16q33 0 55 23t22 58q0 36 -22.5 58.5t-55.5 22.5q-42 0 -74 -43l-43 18l25 189h201v-45h-158l-15 -101q13 11 31 18t40 7q53 0 88 -34t35 -91q0 -28 -10 -51t-27.5 -40t-41 -26.5t-50.5 -9.5z" />
    <glyph glyph-name="five.cap" horiz-adv-x="564" 
d="M136 401l4 -2q26 24 62 41t87 17q45 0 86 -17.5t71.5 -49t48.5 -74.5t18 -94q0 -50 -18 -93.5t-49.5 -75.5t-76 -50.5t-96.5 -18.5q-36 0 -72.5 12t-67.5 35.5t-54.5 59t-35.5 83.5l58 23q19 -72 64 -112t108 -40q39 0 71 13t55.5 36t36 56t12.5 72q0 36 -12.5 68t-35 56
t-53.5 38t-69 14q-44 0 -79.5 -19.5t-58.5 -49.5l-69 30l45 357h351v-61h-297z" />
    <glyph glyph-name="six.alt" horiz-adv-x="548" 
d="M289 434q41 0 80 -16.5t69.5 -46t49 -70.5t18.5 -89q0 -45 -18 -86.5t-49 -73t-73.5 -50t-90.5 -18.5q-54 0 -97 19.5t-73 52t-46 73.5t-16 84q0 61 26 113t61 104l169 254h76l-195 -279l2 -2q20 14 48 22.5t59 8.5zM275 45q34 0 64.5 12.5t53 35t35.5 53t13 65.5t-13 65
t-35.5 52.5t-53 35.5t-64.5 13q-35 0 -65 -13t-53 -35.5t-36 -52.5t-13 -65t13 -65.5t35.5 -53t53 -35t65.5 -12.5z" />
    <glyph glyph-name="six.tf" 
d="M338 434q41 0 80 -16.5t69.5 -46t49 -70.5t18.5 -89q0 -45 -18 -86.5t-49 -73t-73.5 -50t-90.5 -18.5q-54 0 -97 19.5t-73 52t-46 73.5t-16 84q0 61 26 113t61 104l180 270l52 -36l-182 -259l2 -2q20 14 48 22.5t59 8.5zM324 45q34 0 64.5 12.5t53 35t35.5 53t13 65.5
t-13 65t-35.5 52.5t-53 35t-64.5 12.5q-35 0 -65 -12.5t-53 -35t-36 -52.5t-13 -65t13 -65.5t35.5 -53t53 -35t65.5 -12.5z" />
    <glyph glyph-name="six.denominator" horiz-adv-x="312" 
d="M156 -7q-28 0 -51.5 10t-41 27t-27.5 40t-10 49q0 31 12.5 58.5t32.5 55.5q9 13 27 38l36 50q21 29 45 62l40 -28l-96 -123q16 11 42 11t48 -10.5t38.5 -27.5t25.5 -39.5t9 -46.5q0 -26 -10.5 -49t-28 -40t-41 -27t-50.5 -10zM155 40q35 0 57 23.5t22 55.5t-22 55.5
t-57 23.5q-34 0 -55.5 -23.5t-21.5 -55.5t21 -55.5t56 -23.5z" />
    <glyph glyph-name="six.numerator" horiz-adv-x="312" 
d="M156 342q-28 0 -51.5 10t-41 27t-27.5 40t-10 49q0 31 12.5 58.5t32.5 55.5q9 13 27 38l36 50q21 29 45 62l40 -28l-96 -123q16 11 42 11t48 -10.5t38.5 -27.5t25.5 -39.5t9 -46.5q0 -26 -10.5 -49t-28 -40t-41 -27t-50.5 -10zM155 389q35 0 57 23.5t22 55.5t-22 55.5
t-57 23.5q-34 0 -55.5 -23.5t-21.5 -55.5t21 -55.5t56 -23.5z" />
    <glyph glyph-name="six.cap" horiz-adv-x="561" 
d="M295 454q42 0 82.5 -17.5t72 -48.5t50.5 -73.5t19 -92.5q0 -47 -18.5 -90t-50.5 -76t-75.5 -52.5t-93.5 -19.5q-55 0 -99 21t-75 55t-47.5 76.5t-16.5 86.5q0 30 6 56.5t16.5 52t25.5 50.5t33 51l202 299l52 -36l-190 -270l3 -2q15 11 42 20.5t62 9.5zM281 45
q35 0 66.5 14t55 38t37.5 56t14 68t-14 67.5t-37.5 55.5t-55 38t-66.5 14q-36 0 -67.5 -14t-55 -38t-37 -55.5t-13.5 -67.5t13.5 -68t37 -56t55 -38t67.5 -14z" />
    <glyph glyph-name="six.altcap" horiz-adv-x="561" 
d="M295 454q42 0 82.5 -17.5t72 -48.5t50.5 -73.5t19 -92.5q0 -47 -18.5 -90t-50.5 -76t-75.5 -52.5t-93.5 -19.5q-55 0 -99 21t-75 55t-47.5 76.5t-16.5 86.5q0 30 6 56.5t16.5 52t25.5 50.5t33 51l191 283h77l-204 -290l3 -2q15 11 42 20.5t62 9.5zM281 45q35 0 66.5 14
t55 38t37.5 56t14 68t-14 67.5t-37.5 55.5t-55 38t-66.5 14q-36 0 -67.5 -14t-55 -38t-37 -55.5t-13.5 -67.5t13.5 -68t37 -56t55 -38t67.5 -14z" />
    <glyph glyph-name="seven.alt" horiz-adv-x="516" 
d="M78 0l330 623h-365l2 61h429v-66l-324 -618h-72z" />
    <glyph glyph-name="seven.tf" 
d="M152 13l323 610h-365l2 61h429v-66l-332 -634z" />
    <glyph glyph-name="seven.denominator" horiz-adv-x="292" 
d="M46 9l164 310h-184v47h241v-43l-177 -338z" />
    <glyph glyph-name="seven.numerator" horiz-adv-x="292" 
d="M46 359l162 310h-182v47h241v-43l-177 -338z" />
    <glyph glyph-name="seven.cap" horiz-adv-x="525" 
d="M77 13l338 642h-372v61h440v-67l-350 -665z" />
    <glyph glyph-name="seven.altcap" horiz-adv-x="525" 
d="M70 0l345 655h-372v61h440v-67l-341 -649h-72z" />
    <glyph glyph-name="eight.tf" 
d="M216 363q-41 23 -68 62.5t-27 87.5q0 40 15 74t42 59t64.5 39.5t82.5 14.5q44 0 81.5 -14.5t64.5 -39.5t42.5 -59t15.5 -74q0 -48 -27.5 -87.5t-67.5 -62.5v-4q51 -24 85 -67t34 -106q0 -42 -17 -79t-47.5 -64.5t-72.5 -43t-91 -15.5q-50 0 -92 15.5t-72 43t-47 64.5
t-17 79q0 63 33.5 106t85.5 67v4zM162 189q0 -32 13 -58.5t35 -45.5t52 -29.5t63 -10.5t62.5 10.5t52 29.5t35.5 45.5t13 58.5t-12.5 58t-34.5 45t-52 29t-64 10t-64 -10t-52 -29t-34.5 -45t-12.5 -58zM186 516q0 -59 39 -93t100 -34q60 0 99.5 34t39.5 93q0 29 -11.5 52
t-30.5 38.5t-44 24t-53 8.5t-53.5 -8.5t-44.5 -24t-30 -38.5t-11 -52z" />
    <glyph glyph-name="eight.denominator" horiz-adv-x="312" 
d="M156 -7q-25 0 -48.5 8t-41.5 22.5t-29 35t-11 46.5q0 27 15 51t44 38q-20 11 -33.5 31.5t-13.5 44.5t9.5 43t26 33t37.5 21.5t45 7.5t45.5 -7.5t38 -21.5t26 -33t9.5 -43q0 -23 -14 -44t-34 -32q29 -14 44.5 -38t15.5 -51q0 -26 -11 -46.5t-29.5 -35t-42 -22.5t-48.5 -8z
M156 214q28 0 47.5 16t19.5 41q0 24 -18.5 40.5t-48.5 16.5t-48 -16.5t-18 -40.5q0 -26 19 -41.5t47 -15.5zM156 40q14 0 28 4.5t25.5 13.5t18.5 21.5t7 27.5q0 14 -7 26t-18.5 20.5t-25.5 13.5t-28 5t-28 -4.5t-25 -13t-18 -20.5t-7 -27t6.5 -27.5t17.5 -21.5t25 -13.5
t29 -4.5z" />
    <glyph glyph-name="eight.numerator" horiz-adv-x="312" 
d="M156 342q-25 0 -48.5 8t-41.5 22.5t-29 35t-11 46.5q0 27 15 51t44 38q-20 11 -33.5 31.5t-13.5 44.5t9.5 43t26 33t37.5 21.5t45 7.5t45.5 -7.5t38 -21.5t26 -33t9.5 -43q0 -23 -14 -44t-34 -32q29 -14 44.5 -38t15.5 -51q0 -26 -11 -46.5t-29.5 -35t-42 -22.5t-48.5 -8
zM156 563q28 0 47.5 16t19.5 41q0 24 -18.5 40.5t-48.5 16.5t-48 -16.5t-18 -40.5q0 -26 19 -41.5t47 -15.5zM156 389q14 0 28 4.5t25.5 13.5t18.5 21.5t7 27.5q0 14 -7 26t-18.5 20.5t-25.5 13.5t-28 5t-28 -4.5t-25 -13t-18 -20.5t-7 -27t6.5 -27.5t17.5 -21.5t25 -13.5
t29 -4.5z" />
    <glyph glyph-name="eight.cap" horiz-adv-x="553" 
d="M382 374q27 -11 50.5 -28t41 -40.5t27.5 -51.5t10 -60q0 -43 -17.5 -81t-49 -66.5t-74 -45.5t-93.5 -17t-94 17t-74 45.5t-48.5 66.5t-17.5 81q0 64 37 111.5t92 68.5v4q-44 22 -74.5 63t-30.5 95q0 40 15.5 75.5t43.5 62.5t66.5 42.5t84.5 15.5t84.5 -15.5t66 -42.5
t43 -62.5t15.5 -75.5q0 -54 -30.5 -95t-73.5 -63v-4zM277 671q-30 0 -56.5 -9.5t-46 -27t-31 -42t-11.5 -54.5t11.5 -54.5t31 -42.5t46 -27.5t56.5 -9.5t56 9.5t45.5 27.5t31 42.5t11.5 54.5t-11.5 54.5t-31 42t-45.5 27t-56 9.5zM277 45q34 0 65 11t54 31t36.5 47.5
t13.5 61.5q0 33 -13.5 61t-36.5 47.5t-54 30.5t-65 11q-35 0 -65.5 -11t-53.5 -30.5t-36.5 -47.5t-13.5 -61q0 -34 13.5 -61.5t36.5 -47.5t53.5 -31t65.5 -11z" />
    <glyph glyph-name="nine.alt" horiz-adv-x="548" 
d="M260 250q-41 0 -80 16.5t-69.5 46t-49 70.5t-18.5 89q0 45 18 86.5t49 73t73.5 50t90.5 18.5q54 0 97 -20t73 -52t46 -73t16 -84q0 -61 -26 -113t-61 -104l-170 -254h-75l194 279l-2 2q-20 -14 -47.5 -22.5t-58.5 -8.5zM274 639q-35 0 -65 -12.5t-53 -35t-36 -53
t-13 -65.5t13.5 -65t36 -52.5t53 -35.5t64.5 -13t64.5 13t53 35.5t36 52.5t13.5 65t-13 65.5t-35.5 53t-53 35t-65.5 12.5z" />
    <glyph glyph-name="nine.tf" 
d="M310 250q-41 0 -80 16.5t-69.5 46t-49 70.5t-18.5 89q0 45 18 86.5t49 73t73.5 50t90.5 18.5q54 0 97 -20t73 -52t46 -73t16 -84q0 -61 -26 -113t-61 -104l-181 -270l-51 36l181 259l-2 2q-20 -14 -47.5 -22.5t-58.5 -8.5zM324 639q-35 0 -65 -12.5t-53 -35t-36 -53
t-13 -65.5t13.5 -65t36 -52.5t53 -35t64.5 -12.5t64.5 12.5t53 35t36 52.5t13.5 65t-13 65.5t-35.5 53t-53 35t-65.5 12.5z" />
    <glyph glyph-name="nine.denominator" horiz-adv-x="312" 
d="M156 375q28 0 51.5 -10t41 -27t27.5 -39.5t10 -48.5q0 -31 -12.5 -59t-32.5 -56l-27.5 -38.5t-35.5 -49.5q-21 -29 -45 -62l-40 29l96 122q-8 -5 -19 -8t-23 -3q-26 0 -48 10.5t-38.5 27.5t-25.5 40t-9 47q0 26 10.5 48.5t28 39.5t41 27t50.5 10zM157 328q-35 0 -57 -23
t-22 -56q0 -32 22 -55.5t57 -23.5q34 0 55.5 23.5t21.5 55.5t-21 55.5t-56 23.5z" />
    <glyph glyph-name="nine.numerator" horiz-adv-x="312" 
d="M156 724q28 0 51.5 -10t41 -27t27.5 -39.5t10 -48.5q0 -31 -12.5 -59t-32.5 -56l-27.5 -38.5t-35.5 -49.5q-21 -29 -45 -62l-40 29l96 122q-8 -5 -19 -8t-23 -3q-26 0 -48 10.5t-38.5 27.5t-25.5 40t-9 47q0 26 10.5 48.5t28 39.5t41 27t50.5 10zM157 677q-35 0 -57 -23
t-22 -56q0 -32 22 -55.5t57 -23.5q34 0 55.5 23.5t21.5 55.5t-21 55.5t-56 23.5z" />
    <glyph glyph-name="nine.cap" horiz-adv-x="561" 
d="M267 262q-42 0 -82.5 17.5t-72 48.5t-50.5 73.5t-19 92.5q0 47 18.5 90t50.5 76t75 52.5t93 19.5q55 0 99.5 -21t75.5 -54.5t47.5 -76.5t16.5 -87q0 -60 -23 -108.5t-58 -100.5l-203 -300l-52 37l190 270l-2 2q-16 -12 -42.5 -21.5t-61.5 -9.5zM280 671q-35 0 -66.5 -14
t-55 -38t-37 -56t-13.5 -68t13.5 -67.5t37 -55.5t55 -38t66.5 -14q36 0 67.5 14t55 38t37 55.5t13.5 67.5t-13.5 68t-37 56t-55 38t-67.5 14z" />
    <glyph glyph-name="nine.altcap" horiz-adv-x="561" 
d="M267 262q-42 0 -82.5 17.5t-72 48.5t-50.5 73.5t-19 92.5q0 47 18.5 90t50.5 76t75 52.5t93 19.5q55 0 99.5 -21t75.5 -54.5t47.5 -76.5t16.5 -87q0 -60 -23 -108.5t-58 -100.5l-192 -284h-76l203 291l-2 2q-16 -12 -42.5 -21.5t-61.5 -9.5zM280 671q-35 0 -66.5 -14
t-55 -38t-37 -56t-13.5 -68t13.5 -67.5t37 -55.5t55 -38t66.5 -14q36 0 67.5 14t55 38t37 55.5t13.5 67.5t-13.5 68t-37 56t-55 38t-67.5 14z" />
    <glyph glyph-name="colon.tf" horiz-adv-x="325" 
d="M163 -6q-22 0 -36.5 15t-14.5 37t14.5 36.5t36.5 14.5t37 -14.5t15 -36.5t-15 -37t-37 -15zM163 393q-22 0 -36.5 15t-14.5 37t14.5 36.5t36.5 14.5t37 -14.5t15 -36.5t-15 -37t-37 -15z" />
    <glyph glyph-name="semicolon.tf" horiz-adv-x="325" 
d="M69 -83l71 205h76l-92 -205h-55zM163 393q-22 0 -36.5 15t-14.5 37t14.5 36.5t36.5 14.5t37 -14.5t15 -36.5t-15 -37t-37 -15z" />
    <glyph glyph-name="semicolon.alt" horiz-adv-x="237" 
d="M43 -83l71 205h76l-92 -205h-55zM137 393q-22 0 -36.5 15t-14.5 37t14.5 36.5t36.5 14.5t37 -14.5t15 -36.5t-15 -37t-37 -15z" />
    <glyph glyph-name="less.tf" 
d="M139 247v48l366 180v-61l-294 -141v-4l294 -141v-61z" />
    <glyph glyph-name="equal.tf" 
d="M103 441h437v-54h-437v54zM103 251h437v-54h-437v54z" />
    <glyph glyph-name="greater.tf" 
d="M146 67v61l294 141v4l-294 141v61l366 -180v-48z" />
    <glyph glyph-name="at.cap" horiz-adv-x="869" 
d="M436 732q82 0 152.5 -30t122.5 -82.5t81.5 -123t29.5 -150.5q0 -45 -9.5 -83t-27.5 -65.5t-44.5 -43.5t-60.5 -16q-42 0 -71 25t-40 60q-24 -40 -62 -62.5t-87 -22.5q-40 0 -74.5 15t-60 42t-40.5 64.5t-15 82.5t15 82.5t40.5 64.5t60 42t72.5 15q45 0 81 -20.5t57 -51.5
h4v58h53v-261q0 -35 17.5 -60t52.5 -25q23 0 39.5 13.5t27 36t15 51t4.5 59.5q0 69 -26 130t-71 106t-105.5 71t-130.5 26q-69 0 -129.5 -26t-106 -71t-71.5 -105.5t-26 -130.5q0 -69 26 -130t71.5 -106t106 -71t129.5 -26q36 0 68 7t61 23l21 -51q-35 -16 -71.5 -24
t-78.5 -8q-83 0 -154 30.5t-123.5 83t-82 122.5t-29.5 150q0 79 30 149.5t82.5 123t123.5 83t153 30.5zM424 192q28 0 53 10.5t43.5 30t29.5 47t11 62.5t-11 63t-30 47.5t-44 29.5t-52 10t-52 -10.5t-43.5 -30t-30 -47t-11.5 -62.5t11 -62.5t29.5 -47t43.5 -30t53 -10.5z
" />
    <glyph glyph-name="G.alt" horiz-adv-x="798" 
d="M406 732q81 0 148 -28t112 -79l-47 -47q-37 45 -92 69t-120 24q-60 0 -115 -22.5t-96.5 -63.5t-66 -98.5t-24.5 -128.5t24.5 -128.5t65.5 -98.5t95 -63.5t113 -22.5q67 0 116.5 23.5t82.5 61.5t49.5 86.5t17.5 99.5h-258v59h319v-375h-61v125h-4q-41 -64 -107.5 -102.5
t-155.5 -38.5q-76 0 -142 28.5t-115 79t-77 118.5t-28 148q0 79 28.5 147.5t78 119t116 79t143.5 28.5z" />
    <glyph glyph-name="I.alt" horiz-adv-x="431" 
d="M248 655v-594h158v-61h-380v61h158v594h-158v61h380v-61h-158z" />
    <glyph glyph-name="J.alt" horiz-adv-x="514" 
d="M240 -16q-76 0 -133.5 43t-80.5 124l58 24q23 -73 64 -101.5t92 -28.5q66 0 106 45t40 123v442h-270v61h334v-497q0 -57 -16 -100.5t-44 -73.5t-66.5 -45.5t-83.5 -15.5z" />
    <glyph glyph-name="K.alt" horiz-adv-x="581" 
d="M568 712l-346 -363l356 -345v-4h-89l-344 339h-4v-339h-64v716h64v-360h4l339 360h84v-4z" />
    <glyph glyph-name="M.alt" horiz-adv-x="850" 
d="M773 716v-716h-63v492l4 129h-4l-260 -621h-49l-261 621h-4l4 -129v-492h-63v716h92l254 -614h4l254 614h92z" />
    <glyph glyph-name="Q.alt" horiz-adv-x="809" 
d="M405 -16q-79 0 -146 29.5t-115.5 80.5t-76 119t-27.5 145t27.5 145t76 119t115.5 80.5t146 29.5q78 0 145 -29.5t116 -80.5t76.5 -119t27.5 -145q0 -72 -23 -134.5t-65 -112.5l94 -109l-47 -43l-92 108q-47 -38 -106 -60.5t-126 -22.5zM413 286q36 0 69 -12t62 -30.5
t53 -41t42 -43.5q31 40 48.5 90t17.5 109q0 69 -24 126.5t-64.5 99t-95.5 64.5t-116 23q-62 0 -116.5 -23t-95.5 -64.5t-64.5 -99t-23.5 -126.5q0 -93 41.5 -164.5t109.5 -109.5q-14 28 -14 60q0 30 12 56t34.5 45t54 30t70.5 11zM405 45q54 0 102 17.5t87 49.5
q-51 59 -93.5 86t-87.5 27q-48 0 -77.5 -23.5t-29.5 -64.5q0 -42 28.5 -67t70.5 -25z" />
    <glyph glyph-name="R.alt" horiz-adv-x="548" 
d="M309 716q45 0 84.5 -15.5t69 -43t46.5 -66t17 -84.5t-17 -84.5t-46.5 -66t-69.5 -43t-86 -15.5h-60l-2 -3l300 -291v-4h-87l-300 298h-22v-298h-64v716h237zM304 358q31 0 59 10.5t50 29.5t35 46.5t13 62.5q0 31 -12 58.5t-32.5 47t-48.5 31t-61 11.5h-171v-297h168z" />
    <glyph glyph-name="W.alt" horiz-adv-x="932" 
d="M722 0h-69l-181 611h-4l-184 -611h-68l-199 716h70l162 -609h4l183 609h69l180 -609h4l156 609h70z" />
    <glyph glyph-name="bracketleft.cap" horiz-adv-x="304" 
d="M77 808h193v-53h-135v-810h135v-53h-193v916z" />
    <glyph glyph-name="bracketright.cap" horiz-adv-x="317" 
d="M227 -108h-193v53h135v810h-135v53h193v-916z" />
    <glyph glyph-name="grave.cap" horiz-adv-x="390" 
d="M170 776l-67 124h73l52 -124h-58z" />
    <glyph glyph-name="a.alt" horiz-adv-x="565" 
d="M261 -16q-47 0 -89 19.5t-73.5 54t-50 82.5t-18.5 105t18.5 105t50 82.5t73.5 54t89 19.5q70 0 116 -30t69 -71h4v85h60v-490h-60v86h-4q-12 -20 -29 -38.5t-40 -32.5t-52 -22.5t-64 -8.5zM272 42q35 0 67.5 13.5t57 40t39 64t14.5 85.5t-14.5 86t-39 64t-57 39.5
t-67.5 13.5t-67.5 -14t-57 -40.5t-39 -64t-14.5 -84.5t14.5 -85t39 -64t57 -40t67.5 -14z" />
    <glyph glyph-name="j.alt" horiz-adv-x="184" 
d="M60 -216v706h64v-706h-64zM92 610q-20 0 -34.5 14.5t-14.5 34.5q0 21 14.5 35.5t34.5 14.5q21 0 35.5 -14.5t14.5 -35.5q0 -20 -14.5 -34.5t-35.5 -14.5z" />
    <glyph glyph-name="k.alt" horiz-adv-x="443" 
d="M128 249h-4v-249h-64v716h64v-450h4l225 224h82v-4l-234 -228l244 -254v-4h-80z" />
    <glyph glyph-name="q.alt" horiz-adv-x="572" 
d="M446 18l4 68h-4q-12 -20 -29 -38.5t-40 -32.5t-52 -22.5t-64 -8.5q-47 0 -89 19.5t-73.5 54t-50 82.5t-18.5 105t18.5 105t50 82.5t73.5 54t89 19.5q70 0 116 -30t69 -71h4v85h60v-578q0 -38 14 -58.5t46 -20.5q19 0 31 6l17 -55q-22 -10 -50 -10q-59 0 -90.5 35
t-31.5 102v107zM272 42q35 0 67.5 13.5t57 40t39 64t14.5 85.5t-14.5 86t-39 64t-57 39.5t-67.5 13.5t-67.5 -14t-57 -40.5t-39 -64t-14.5 -84.5t14.5 -85t39 -64t57 -40t67.5 -14z" />
    <glyph glyph-name="r.alt" horiz-adv-x="328" 
d="M120 407h4q18 45 56 71t86 26q12 0 19.5 -0.5t16.5 -2.5v-64q-19 4 -42 4q-29 0 -54 -12.5t-43 -34.5t-28.5 -52.5t-10.5 -66.5v-275h-64v490h60v-83z" />
    <glyph glyph-name="t.alt" horiz-adv-x="326" 
d="M131 0v432h-105v58h105v150h64v-150h106v-58h-106v-432h-64z" />
    <glyph glyph-name="y.alt" horiz-adv-x="481" 
d="M26 -155q11 -6 24 -10t28 -3q24 0 41 13.5t31 44.5l64 146l-206 454h71l166 -378h2l159 378h70l-269 -615q-22 -52 -53.5 -76.5t-77.5 -24.5q-20 0 -36.5 4t-30.5 10z" />
    <glyph glyph-name="braceleft.cap" horiz-adv-x="309" 
d="M140.5 -64q-40.5 44 -40.5 114v186q0 43 -19.5 64.5t-54.5 21.5v56q35 0 54.5 22t19.5 65v186q0 69 40.5 113t112.5 44h22v-53h-18q-47 0 -73 -28.5t-26 -79.5v-186q0 -86 -62 -109v-4q62 -21 62 -108v-187q0 -51 26 -79.5t73 -28.5h18v-53h-22q-72 0 -112.5 44z" />
    <glyph glyph-name="braceright.cap" horiz-adv-x="309" 
d="M34 -108v53h18q47 0 73 28.5t26 79.5v187q0 87 62 108v4q-62 23 -62 109v186q0 51 -26 79.5t-73 28.5h-18v53h22q72 0 112.5 -44t40.5 -113v-186q0 -43 19.5 -65t54.5 -22v-56q-35 0 -54.5 -21.5t-19.5 -64.5v-186q0 -70 -40.5 -114t-112.5 -44h-22z" />
    <glyph glyph-name="exclamdown.cap" horiz-adv-x="205" 
d="M103 732q22 0 36.5 -14.5t14.5 -36.5t-14.5 -37t-36.5 -15t-37 15t-15 37t15 36.5t37 14.5zM80 545h46l9 -243v-302h-64v302z" />
    <glyph glyph-name="cent.tf" 
d="M311 84q-47 5 -86.5 26.5t-68.5 56t-45 79t-16 96.5t16 97t45 79t68.5 55t86.5 26v85h54v-84q70 -7 115.5 -45t68.5 -92l-58 -24q-19 44 -50 70t-76 33v-400q45 7 77.5 33.5t51.5 70.5l56 -25q-23 -54 -69 -92t-116 -45v-84h-54v84zM159 342q0 -41 12.5 -75.5t33.5 -60.5
t48.5 -42.5t57.5 -21.5v400q-30 -5 -57.5 -21t-48.5 -42t-33.5 -60.5t-12.5 -76.5z" />
    <glyph glyph-name="cent.cap" horiz-adv-x="511" 
d="M246 100q-48 5 -87.5 26.5t-68 56t-44.5 79t-16 96.5t16 97t44.5 78.5t68 55t87.5 27.5v100h54v-100q71 -7 116 -45t68 -92l-57 -24q-19 44 -50.5 70t-76.5 33v-400q45 7 77.5 33.5t51.5 70.5l57 -25q-23 -54 -69 -92.5t-117 -44.5v-100h-54v100zM94 358q0 -41 12 -75.5
t33 -60.5t48.5 -42.5t58.5 -21.5v400q-31 -5 -58.5 -21t-48.5 -42t-33 -60.5t-12 -76.5z" />
    <glyph glyph-name="sterling.tf" 
d="M264 257q3 -11 3 -27q0 -45 -20 -90t-52 -76l3 -3h207q46 0 66 17t31 49l54 -22q-17 -51 -52.5 -78t-98.5 -27h-306v52q25 12 44 31.5t32.5 42.5t20.5 47.5t7 48.5q0 10 -1 19t-3 16h-98v54h77q-11 22 -24 44q-14 21 -25.5 44.5t-19.5 49.5t-8 56q0 38 14 73.5t40.5 62.5
t63.5 43t82 16q43 0 75 -12.5t55.5 -32.5t38.5 -45t23 -49l-59 -24q-6 19 -16.5 37.5t-26.5 32.5t-38 23t-52 9q-33 0 -58 -11.5t-42.5 -30.5t-26.5 -43t-9 -49q0 -30 8.5 -54.5t21 -47.5t27.5 -45q14 -23 25 -47h145v-54h-128z" />
    <glyph glyph-name="sterling.cap" horiz-adv-x="520" 
d="M204 274q2 -10 2.5 -18t0.5 -17q0 -49 -20.5 -94.5t-62.5 -78.5l5 -5h216q47 0 69 19.5t33 51.5l56 -23q-18 -51 -56 -80t-102 -29h-311v52q25 13 45.5 34t34.5 45t21.5 50t7.5 50q0 11 -1 22t-3 21h-102v54h79q-12 24 -26 47t-26 47t-20 50.5t-8 56.5q0 40 14 77t41 65
t66 44.5t89 16.5q45 0 78 -13.5t56.5 -34.5t38.5 -47t23 -51l-60 -25q-6 20 -16.5 39.5t-26.5 35.5t-39 25.5t-54 9.5q-36 0 -63 -12t-45 -32t-27.5 -45.5t-9.5 -52.5q0 -29 9 -54t22 -49.5t28 -48.5q14 -24 26 -49h150v-54h-132z" />
    <glyph glyph-name="currency" unicode="&#xa4;" horiz-adv-x="592" 
d="M296 106q-38 0 -72.5 12.5t-60.5 35.5l-59 -56l-40 40l60 59q-20 27 -30.5 59.5t-10.5 68.5t10.5 69t30.5 60l-60 59l40 40l59 -57q26 23 60.5 35.5t72.5 12.5t72.5 -12.5t61.5 -35.5l58 57l40 -40l-59 -59q19 -27 29.5 -59.5t10.5 -69.5q0 -36 -10.5 -68.5t-29.5 -59.5
l59 -59l-40 -40l-58 56q-27 -23 -61.5 -35.5t-72.5 -12.5zM296 163q32 0 60 13t48.5 35t32.5 51.5t12 62.5t-12 62.5t-32.5 51.5t-48.5 35t-60 13t-60 -13t-48.5 -35t-32.5 -51.5t-12 -62.5t12 -62.5t32.5 -51.5t48.5 -35t60 -13z" />
    <glyph glyph-name="currency.tf" 
d="M323 106q-38 0 -72.5 12.5t-60.5 35.5l-59 -56l-40 40l60 59q-20 27 -30.5 59.5t-10.5 68.5t10.5 69t30.5 60l-60 59l40 40l59 -57q26 23 60.5 35.5t72.5 12.5t72.5 -12.5t61.5 -35.5l58 57l40 -40l-59 -59q19 -27 29.5 -59.5t10.5 -69.5q0 -36 -10.5 -68.5t-29.5 -59.5
l59 -59l-40 -40l-58 56q-27 -23 -61.5 -35.5t-72.5 -12.5zM323 163q32 0 60 13t48.5 35t32.5 51.5t12 62.5t-12 62.5t-32.5 51.5t-48.5 35t-60 13t-60 -13t-48.5 -35t-32.5 -51.5t-12 -62.5t12 -62.5t32.5 -51.5t48.5 -35t60 -13z" />
    <glyph glyph-name="currency.cap" horiz-adv-x="592" 
d="M296 132q-38 0 -72.5 12.5t-60.5 35.5l-59 -56l-40 40l60 59q-20 27 -30.5 59.5t-10.5 68.5t10.5 69t30.5 60l-60 59l40 40l59 -57q26 23 60.5 35.5t72.5 12.5t72.5 -12.5t61.5 -35.5l58 57l40 -40l-59 -59q19 -27 29.5 -59.5t10.5 -69.5q0 -36 -10.5 -68.5t-29.5 -59.5
l59 -59l-40 -40l-58 56q-27 -23 -61.5 -35.5t-72.5 -12.5zM296 189q32 0 60 13t48.5 35t32.5 51.5t12 62.5t-12 62.5t-32.5 51.5t-48.5 35t-60 13t-60 -13t-48.5 -35t-32.5 -51.5t-12 -62.5t12 -62.5t32.5 -51.5t48.5 -35t60 -13z" />
    <glyph glyph-name="yen.tf" 
d="M125 231h168v87h-168v54h134l-197 312h73l188 -308h4l184 308h74l-194 -312h131v-54h-165v-87h165v-54h-165v-177h-64v177h-168v54z" />
    <glyph glyph-name="yen.cap" horiz-adv-x="571" 
d="M256 0v198h-174v54h174v95h-174v54h139l-208 315h75l198 -315h4l194 315h75l-204 -315h134v-54h-169v-95h169v-54h-169v-198h-64z" />
    <glyph glyph-name="section.tf" 
d="M328 -232q-82 0 -141 48t-82 133l61 25q18 -63 57.5 -104t104.5 -41q31 0 58.5 9.5t47.5 26t31.5 39.5t11.5 49q0 30 -11 52.5t-33.5 40.5t-55.5 32.5t-78 28.5q-79 25 -125 65t-46 107q0 44 24.5 80.5t68.5 59.5q-47 25 -72.5 60t-25.5 86q0 30 13 60t38.5 53.5
t62.5 38.5t85 15q45 0 79 -14.5t59 -36t40 -46.5t22 -46l-61 -25q-6 19 -16.5 38t-27.5 34.5t-40 25t-54 9.5q-30 0 -54.5 -9t-42.5 -23.5t-28 -33.5t-10 -39q0 -24 9.5 -42.5t27.5 -32.5t44 -25.5t58 -22.5q48 -16 88 -33.5t68.5 -40.5t44 -54t15.5 -73q0 -47 -22 -83
t-55 -59q37 -26 56.5 -61t19.5 -85q0 -42 -17.5 -76.5t-47 -59t-68.5 -37.5t-81 -13zM326 163q24 -8 45 -16t41 -17q31 17 48.5 48t17.5 61q0 29 -12 50.5t-34.5 39t-56 31.5t-75.5 27l-13 4q-21 -6 -38.5 -17.5t-30 -26.5t-19 -32t-6.5 -33q0 -45 33 -71t100 -48z" />
    <glyph glyph-name="dieresis.cap" horiz-adv-x="369" 
d="M262 799q-18 0 -31.5 13t-13.5 31q0 20 13.5 32.5t31.5 12.5q19 0 31.5 -12.5t12.5 -32.5q0 -18 -12.5 -31t-31.5 -13zM108 799q-18 0 -31.5 13t-13.5 31q0 20 13.5 32.5t31.5 12.5q19 0 31.5 -12.5t12.5 -32.5q0 -18 -12.5 -31t-31.5 -13z" />
    <glyph glyph-name="copyright.alt" horiz-adv-x="842" 
d="M421 -16q-77 0 -145 29.5t-119 80.5t-80.5 119t-29.5 145t29.5 145t80.5 119t119 80.5t145 29.5t145 -29.5t119 -80.5t80.5 -119t29.5 -145t-29.5 -145t-80.5 -119t-119 -80.5t-145 -29.5zM421 33q68 0 127 26t103 70t69.5 103.5t25.5 125.5q0 67 -25.5 126t-69.5 103.5
t-103 70t-127 25.5q-67 0 -126 -25.5t-103.5 -70t-70 -103.5t-25.5 -126q0 -66 25.5 -125.5t70 -103.5t103.5 -70t126 -26zM425 169q-40 0 -74.5 15t-60 41t-40 61t-14.5 74q0 40 14.5 74.5t40 60.5t60 41t74.5 15q45 0 78 -17.5t56 -43.5l-36 -33q-19 22 -43.5 34t-53.5 12
t-54 -10.5t-43.5 -29.5t-29.5 -45.5t-11 -57.5q0 -32 11.5 -58t30.5 -45t44 -29.5t51 -10.5q36 0 63 15t47 41l37 -31q-25 -32 -62 -52.5t-85 -20.5z" />
    <glyph glyph-name="guillemotleft.cap" horiz-adv-x="540" 
d="M276 146l-39 -36l-194 211l194 211l39 -36l-163 -175zM476 146l-39 -36l-194 211l194 211l39 -36l-163 -175z" />
    <glyph glyph-name="logicalnot.tf" 
d="M107 374h420v-269h-54v215h-366v54z" />
    <glyph glyph-name="uni00AD" unicode="&#xad;" horiz-adv-x="429" 
d="M60 337h310v-54h-310v54z" />
    <glyph glyph-name="registered.alt" horiz-adv-x="834" 
d="M421 -16q-77 0 -145 29.5t-119 80.5t-80.5 119t-29.5 145t29.5 145t80.5 119t119 80.5t145 29.5t145 -29.5t119 -80.5t80.5 -119t29.5 -145t-29.5 -145t-80.5 -119t-119 -80.5t-145 -29.5zM421 33q68 0 127 26t103 70t69.5 103.5t25.5 125.5q0 67 -25.5 126t-69.5 103.5
t-103 70t-127 25.5q-67 0 -126 -25.5t-103.5 -70t-70 -103.5t-25.5 -126q0 -66 25.5 -125.5t70 -103.5t103.5 -70t126 -26zM512 177l-92 140h-69v-140h-52v366h138q25 0 48 -8t40 -23t27 -36t10 -46q0 -40 -24 -68.5t-60 -38.5l-3 -3l97 -139v-4h-60zM438 363
q29 0 50.5 16.5t21.5 48.5q0 30 -20.5 49t-50.5 19h-88v-133h87z" />
    <glyph glyph-name="macron.cap" horiz-adv-x="396" 
d="M64 817v52h268v-52h-268z" />
    <glyph glyph-name="degree.cap" horiz-adv-x="326" 
d="M163 474q-27 0 -50.5 10t-41 27t-27.5 41t-10 51t10 51t27.5 41t41 27t50.5 10t50.5 -10t41 -27t27.5 -41t10 -51t-10 -51t-27.5 -41t-41 -27t-50.5 -10zM163 521q34 0 56.5 23.5t22.5 58.5t-22.5 58.5t-56.5 23.5t-56.5 -23.5t-22.5 -58.5t22.5 -58.5t56.5 -23.5z" />
    <glyph glyph-name="plusminus.tf" 
d="M352 361h186v-54h-186v-158h-54v158h-185v54h185v159h54v-159zM113 0v54h425v-54h-425z" />
    <glyph glyph-name="acute.cap" horiz-adv-x="390" 
d="M163 776l52 124h73l-67 -124h-58z" />
    <glyph glyph-name="cedilla.alt" horiz-adv-x="387" 
d="M120 -216l72 144h56l-58 -144h-70z" />
    <glyph glyph-name="guillemotright.cap" horiz-adv-x="540" 
d="M227 321l-163 175l39 36l195 -211l-195 -211l-39 36zM427 321l-163 175l39 36l195 -211l-195 -211l-39 36z" />
    <glyph glyph-name="questiondown.cap" horiz-adv-x="474" 
d="M240 732q22 0 36.5 -14.5t14.5 -36.5t-14.5 -37t-36.5 -15t-37 15t-15 37t15 36.5t37 14.5zM272 545v-62q0 -33 -5 -57.5t-15.5 -44.5t-27.5 -38.5t-42 -40.5q-19 -17 -33.5 -32.5t-24 -31t-14.5 -32.5t-5 -38q0 -54 35.5 -88.5t97.5 -34.5q30 0 52.5 9t39 24t28 34.5
t18.5 40.5l59 -25q-8 -24 -23.5 -49.5t-39.5 -46.5t-57 -34.5t-76 -13.5q-47 0 -83.5 14.5t-62.5 39.5t-39.5 58t-13.5 71q0 32 9 57.5t23 46t31 37t33 31.5q19 17 32.5 32.5t22 32.5t12.5 37t4 46v58h65z" />
    <glyph glyph-name="Ccedilla.alt" horiz-adv-x="725" 
d="M686 114q-48 -58 -117.5 -94t-161.5 -36q-79 0 -146 29t-116 79.5t-77 119t-28 146.5t28 146.5t77 119t116 79.5t146 29q83 0 147 -30.5t112 -86.5l-46 -44q-82 100 -213 100q-62 0 -117 -23t-96 -64t-65 -98.5t-24 -127.5t24 -127.5t65 -99t96 -64t117 -22.5
q75 0 132 30t101 83zM312 -216l72 144h56l-58 -144h-70z" />
    <glyph glyph-name="Igrave.alt" horiz-adv-x="431" 
d="M248 655v-594h158v-61h-380v61h158v594h-158v61h380v-61h-158zM189 776l-67 124h73l52 -124h-58z" />
    <glyph glyph-name="Iacute.alt" horiz-adv-x="431" 
d="M183 776l52 124h73l-67 -124h-58zM248 655v-594h158v-61h-380v61h158v594h-158v61h380v-61h-158z" />
    <glyph glyph-name="Icircumflex.alt" horiz-adv-x="431" 
d="M86 786l100 114h59l101 -114v-5h-64l-62 72h-8l-63 -72h-63v5zM248 655v-594h158v-61h-380v61h158v594h-158v61h380v-61h-158z" />
    <glyph glyph-name="Idieresis.alt" horiz-adv-x="431" 
d="M293 799q-18 0 -31.5 13t-13.5 31q0 20 13.5 32.5t31.5 12.5q19 0 31.5 -12.5t12.5 -32.5q0 -18 -12.5 -31t-31.5 -13zM139 799q-18 0 -31.5 13t-13.5 31q0 20 13.5 32.5t31.5 12.5q19 0 31.5 -12.5t12.5 -32.5q0 -18 -12.5 -31t-31.5 -13zM248 655v-594h158v-61h-380v61
h158v594h-158v61h380v-61h-158z" />
    <glyph glyph-name="multiply.tf" 
d="M287 271l-159 156l37 37l160 -156l160 156l37 -37l-160 -156l160 -155l-37 -37l-160 156l-160 -156l-37 37z" />
    <glyph glyph-name="agrave.alt" horiz-adv-x="565" 
d="M261 -16q-47 0 -89 19.5t-73.5 54t-50 82.5t-18.5 105t18.5 105t50 82.5t73.5 54t89 19.5q70 0 116 -30t69 -71h4v85h60v-490h-60v86h-4q-12 -20 -29 -38.5t-40 -32.5t-52 -22.5t-64 -8.5zM272 42q35 0 67.5 13.5t57 40t39 64t14.5 85.5t-14.5 86t-39 64t-57 39.5
t-67.5 13.5t-67.5 -14t-57 -40.5t-39 -64t-14.5 -84.5t14.5 -85t39 -64t57 -40t67.5 -14zM246 592l-67 124h73l52 -124h-58z" />
    <glyph glyph-name="aacute.alt" horiz-adv-x="565" 
d="M237 592l52 124h73l-67 -124h-58zM261 -16q-47 0 -89 19.5t-73.5 54t-50 82.5t-18.5 105t18.5 105t50 82.5t73.5 54t89 19.5q70 0 116 -30t69 -71h4v85h60v-490h-60v86h-4q-12 -20 -29 -38.5t-40 -32.5t-52 -22.5t-64 -8.5zM272 42q35 0 67.5 13.5t57 40t39 64t14.5 85.5
t-14.5 86t-39 64t-57 39.5t-67.5 13.5t-67.5 -14t-57 -40.5t-39 -64t-14.5 -84.5t14.5 -85t39 -64t57 -40t67.5 -14z" />
    <glyph glyph-name="acircumflex.alt" horiz-adv-x="565" 
d="M146 602l100 114h59l101 -114v-5h-64l-62 72h-8l-63 -72h-63v5zM261 -16q-47 0 -89 19.5t-73.5 54t-50 82.5t-18.5 105t18.5 105t50 82.5t73.5 54t89 19.5q70 0 116 -30t69 -71h4v85h60v-490h-60v86h-4q-12 -20 -29 -38.5t-40 -32.5t-52 -22.5t-64 -8.5zM272 42
q35 0 67.5 13.5t57 40t39 64t14.5 85.5t-14.5 86t-39 64t-57 39.5t-67.5 13.5t-67.5 -14t-57 -40.5t-39 -64t-14.5 -84.5t14.5 -85t39 -64t57 -40t67.5 -14z" />
    <glyph glyph-name="atilde.alt" horiz-adv-x="565" 
d="M261 -16q-47 0 -89 19.5t-73.5 54t-50 82.5t-18.5 105t18.5 105t50 82.5t73.5 54t89 19.5q70 0 116 -30t69 -71h4v85h60v-490h-60v86h-4q-12 -20 -29 -38.5t-40 -32.5t-52 -22.5t-64 -8.5zM272 42q35 0 67.5 13.5t57 40t39 64t14.5 85.5t-14.5 86t-39 64t-57 39.5
t-67.5 13.5t-67.5 -14t-57 -40.5t-39 -64t-14.5 -84.5t14.5 -85t39 -64t57 -40t67.5 -14zM350 602q-20 0 -37.5 8.5t-32.5 18.5t-29 18.5t-26 8.5q-40 0 -46 -44h-54q0 26 9.5 45.5t23.5 32t32 18.5t35 6q20 0 37.5 -8.5t32.5 -17.5q15 -10 29 -18.5t26 -8.5q40 0 45 43h54
q0 -26 -9.5 -45.5t-23.5 -32t-31.5 -18.5t-34.5 -6z" />
    <glyph glyph-name="adieresis.alt" horiz-adv-x="565" 
d="M353 615q-18 0 -31.5 13t-13.5 31q0 20 13.5 32.5t31.5 12.5q19 0 31.5 -12.5t12.5 -32.5q0 -18 -12.5 -31t-31.5 -13zM199 615q-18 0 -31.5 13t-13.5 31q0 20 13.5 32.5t31.5 12.5q19 0 31.5 -12.5t12.5 -32.5q0 -18 -12.5 -31t-31.5 -13zM261 -16q-47 0 -89 19.5
t-73.5 54t-50 82.5t-18.5 105t18.5 105t50 82.5t73.5 54t89 19.5q70 0 116 -30t69 -71h4v85h60v-490h-60v86h-4q-12 -20 -29 -38.5t-40 -32.5t-52 -22.5t-64 -8.5zM272 42q35 0 67.5 13.5t57 40t39 64t14.5 85.5t-14.5 86t-39 64t-57 39.5t-67.5 13.5t-67.5 -14t-57 -40.5
t-39 -64t-14.5 -84.5t14.5 -85t39 -64t57 -40t67.5 -14z" />
    <glyph glyph-name="aring.alt" horiz-adv-x="565" 
d="M276 570q-21 0 -40 8t-32.5 22t-21.5 32.5t-8 39.5q0 43 29.5 72.5t72.5 29.5q21 0 39.5 -8t32.5 -21.5t22 -32.5t8 -40t-8 -39.5t-22 -32.5t-32.5 -22t-39.5 -8zM276 616q23 0 39 16t16 40t-16 40t-39 16t-39 -16t-16 -40t16 -40t39 -16zM261 -16q-47 0 -89 19.5
t-73.5 54t-50 82.5t-18.5 105t18.5 105t50 82.5t73.5 54t89 19.5q70 0 116 -30t69 -71h4v85h60v-490h-60v86h-4q-12 -20 -29 -38.5t-40 -32.5t-52 -22.5t-64 -8.5zM272 42q35 0 67.5 13.5t57 40t39 64t14.5 85.5t-14.5 86t-39 64t-57 39.5t-67.5 13.5t-67.5 -14t-57 -40.5
t-39 -64t-14.5 -84.5t14.5 -85t39 -64t57 -40t67.5 -14z" />
    <glyph glyph-name="ae.alt" horiz-adv-x="944" 
d="M919 251v-6q-1 -3 -1 -5v-6h-406q1 -50 18 -86t43 -59.5t58.5 -35t64.5 -11.5q62 0 98 28.5t60 72.5l55 -27q-13 -27 -33 -51t-46.5 -42t-60.5 -28.5t-74 -10.5q-61 0 -109 28.5t-74 73.5h-4v-86h-58v86h-4q-12 -20 -29 -38.5t-40 -32.5t-52 -22.5t-64 -8.5
q-47 0 -89 19.5t-73.5 54t-50 82.5t-18.5 105t18.5 105t50 82.5t73.5 54t89 19.5q70 0 116 -30t69 -71h4v85h58v-85h4q23 45 71 73t109 28q49 0 90.5 -18t72 -51t47.5 -80t17 -106zM272 42q35 0 67.5 13.5t57 40t39 64t14.5 85.5t-14.5 86t-39 64t-57 39.5t-67.5 13.5
t-67.5 -14t-57 -40.5t-39 -64t-14.5 -84.5t14.5 -85t39 -64t57 -40t67.5 -14zM852 288q-1 24 -10 52t-28 52t-50.5 40t-77.5 16q-30 0 -58 -10t-51.5 -30.5t-39.5 -50.5t-22 -69h337z" />
    <glyph glyph-name="ccedilla.alt" horiz-adv-x="513" 
d="M488 124q-13 -30 -32.5 -55.5t-45.5 -44t-60 -29.5t-75 -11q-53 0 -98 20t-77.5 55t-51 82.5t-18.5 103.5t18.5 103.5t51 82.5t77.5 55t98 20q41 0 74.5 -10.5t60 -29.5t45.5 -44t31 -55l-57 -25q-22 51 -61 78.5t-96 27.5q-34 0 -66 -14.5t-57 -41t-40 -64t-15 -83.5
t15 -83.5t40 -64t57 -41t66 -14.5q57 0 97 27.5t62 78.5zM191 -216l72 144h56l-58 -144h-70z" />
    <glyph glyph-name="divide.tf" 
d="M113 244v54h425v-54h-425zM325 20q-22 0 -36.5 15t-14.5 37t14.5 36.5t36.5 14.5t37 -14.5t15 -36.5t-15 -37t-37 -15zM325 419q-22 0 -36.5 15t-14.5 37t14.5 36.5t36.5 14.5t37 -14.5t15 -36.5t-15 -37t-37 -15z" />
    <glyph glyph-name="yacute.alt" horiz-adv-x="481" 
d="M214 592l52 124h73l-67 -124h-58zM26 -155q11 -6 24 -10t28 -3q24 0 41 13.5t31 44.5l64 146l-206 454h71l166 -378h2l159 378h70l-269 -615q-22 -52 -53.5 -76.5t-77.5 -24.5q-20 0 -36.5 4t-30.5 10z" />
    <glyph glyph-name="ydieresis.alt" horiz-adv-x="481" 
d="M320 615q-18 0 -31.5 13t-13.5 31q0 20 13.5 32.5t31.5 12.5q19 0 31.5 -12.5t12.5 -32.5q0 -18 -12.5 -31t-31.5 -13zM166 615q-18 0 -31.5 13t-13.5 31q0 20 13.5 32.5t31.5 12.5q19 0 31.5 -12.5t12.5 -32.5q0 -18 -12.5 -31t-31.5 -13zM26 -155q11 -6 24 -10t28 -3
q24 0 41 13.5t31 44.5l64 146l-206 454h71l166 -378h2l159 378h70l-269 -615q-22 -52 -53.5 -76.5t-77.5 -24.5q-20 0 -36.5 4t-30.5 10z" />
    <glyph glyph-name="Amacron" unicode="&#x100;" horiz-adv-x="653" 
d="M290 716h74l277 -716h-70l-78 207h-332l-78 -207h-70zM470 267l-141 371h-4l-141 -371h286zM193 817v52h268v-52h-268z" />
    <glyph glyph-name="amacron" unicode="&#x101;" horiz-adv-x="506" 
d="M393 87h-4q-25 -43 -69.5 -73t-103.5 -30q-40 0 -74 12.5t-59 34t-39 51.5t-14 65q0 40 16.5 71t45 52t66 31.5t79.5 10.5q50 0 90 -11.5t66 -26.5v30q0 33 -12 60t-32 46t-47.5 29t-57.5 10q-45 0 -80 -19.5t-58 -56.5l-56 35q29 45 79 71.5t113 26.5q49 0 88 -14.5
t67 -41t43 -63t15 -81.5v-306h-62v87zM393 218q-30 18 -65.5 29.5t-80.5 11.5q-33 0 -60.5 -8t-48 -22.5t-32 -35.5t-11.5 -47q0 -24 10.5 -43.5t28.5 -33t40.5 -21t46.5 -7.5q33 0 64 14t55 38.5t38.5 56.5t14.5 68zM124 633v52h268v-52h-268z" />
    <glyph glyph-name="amacron.alt" horiz-adv-x="565" 
d="M261 -16q-47 0 -89 19.5t-73.5 54t-50 82.5t-18.5 105t18.5 105t50 82.5t73.5 54t89 19.5q70 0 116 -30t69 -71h4v85h60v-490h-60v86h-4q-12 -20 -29 -38.5t-40 -32.5t-52 -22.5t-64 -8.5zM272 42q35 0 67.5 13.5t57 40t39 64t14.5 85.5t-14.5 86t-39 64t-57 39.5
t-67.5 13.5t-67.5 -14t-57 -40.5t-39 -64t-14.5 -84.5t14.5 -85t39 -64t57 -40t67.5 -14zM146 633v52h268v-52h-268z" />
    <glyph glyph-name="Abreve" unicode="&#x102;" horiz-adv-x="653" 
d="M290 716h74l277 -716h-70l-78 207h-332l-78 -207h-70zM470 267l-141 371h-4l-141 -371h286zM328 776q-24 0 -46 9t-39.5 25t-27.5 38t-10 48h55q0 -27 18 -48t50 -21q31 0 49.5 21t18.5 48h53q0 -26 -10 -48t-26.5 -38t-38.5 -25t-46 -9z" />
    <glyph glyph-name="abreve" unicode="&#x103;" horiz-adv-x="506" 
d="M393 87h-4q-25 -43 -69.5 -73t-103.5 -30q-40 0 -74 12.5t-59 34t-39 51.5t-14 65q0 40 16.5 71t45 52t66 31.5t79.5 10.5q50 0 90 -11.5t66 -26.5v30q0 33 -12 60t-32 46t-47.5 29t-57.5 10q-45 0 -80 -19.5t-58 -56.5l-56 35q29 45 79 71.5t113 26.5q49 0 88 -14.5
t67 -41t43 -63t15 -81.5v-306h-62v87zM393 218q-30 18 -65.5 29.5t-80.5 11.5q-33 0 -60.5 -8t-48 -22.5t-32 -35.5t-11.5 -47q0 -24 10.5 -43.5t28.5 -33t40.5 -21t46.5 -7.5q33 0 64 14t55 38.5t38.5 56.5t14.5 68zM255 592q-24 0 -46 9t-39.5 25t-27.5 38t-10 48h55
q0 -27 18 -48t50 -21q31 0 49.5 21t18.5 48h53q0 -26 -10 -48t-26.5 -38t-38.5 -25t-46 -9z" />
    <glyph glyph-name="abreve.alt" horiz-adv-x="565" 
d="M261 -16q-47 0 -89 19.5t-73.5 54t-50 82.5t-18.5 105t18.5 105t50 82.5t73.5 54t89 19.5q70 0 116 -30t69 -71h4v85h60v-490h-60v86h-4q-12 -20 -29 -38.5t-40 -32.5t-52 -22.5t-64 -8.5zM272 42q35 0 67.5 13.5t57 40t39 64t14.5 85.5t-14.5 86t-39 64t-57 39.5
t-67.5 13.5t-67.5 -14t-57 -40.5t-39 -64t-14.5 -84.5t14.5 -85t39 -64t57 -40t67.5 -14zM281 592q-24 0 -46 9t-39.5 25t-27.5 38t-10 48h55q0 -27 18 -48t50 -21q31 0 49.5 21t18.5 48h53q0 -26 -10 -48t-26.5 -38t-38.5 -25t-46 -9z" />
    <glyph glyph-name="Aogonek" unicode="&#x104;" horiz-adv-x="653" 
d="M290 716h74l277 -716q-33 -24 -53.5 -49.5t-20.5 -57.5q0 -29 17.5 -46t41.5 -17q20 0 34 7l20 -49q-13 -6 -26 -9t-32 -3q-54 0 -84 32.5t-30 79.5q0 39 20 67t43 45l-78 207h-332l-78 -207h-70zM470 267l-141 371h-4l-141 -371h286z" />
    <glyph glyph-name="aogonek" unicode="&#x105;" horiz-adv-x="506" 
d="M393 87h-4q-25 -43 -69.5 -73t-103.5 -30q-40 0 -74 12.5t-59 34t-39 51.5t-14 65q0 40 16.5 71t45 52t66 31.5t79.5 10.5q50 0 90 -11.5t66 -26.5v30q0 33 -12 60t-32 46t-47.5 29t-57.5 10q-45 0 -80 -19.5t-58 -56.5l-56 35q29 45 79 71.5t113 26.5q49 0 88 -14.5
t67 -41t43 -63t15 -81.5v-306q-33 -24 -53.5 -49.5t-20.5 -57.5q0 -29 17 -46t42 -17q19 0 34 7l20 -49q-13 -6 -26 -9t-32 -3q-54 0 -84 32t-30 78q0 20 6.5 37.5t16.5 32t23 25.5t25 19v87zM393 218q-30 18 -65.5 29.5t-80.5 11.5q-33 0 -60.5 -8t-48 -22.5t-32 -35.5
t-11.5 -47q0 -24 10.5 -43.5t28.5 -33t40.5 -21t46.5 -7.5q33 0 64 14t55 38.5t38.5 56.5t14.5 68z" />
    <glyph glyph-name="aogonek.alt" horiz-adv-x="565" 
d="M261 -16q-47 0 -89 19.5t-73.5 54t-50 82.5t-18.5 105t18.5 105t50 82.5t73.5 54t89 19.5q70 0 116 -30t69 -71h4v85h60v-490q-33 -24 -53.5 -49.5t-20.5 -57.5q0 -29 17 -46t42 -17q19 0 34 7l20 -49q-13 -6 -26 -9t-32 -3q-54 0 -84 32t-30 78q0 20 7 37.5t17.5 32
t23.5 25.5t25 19v86h-4q-12 -20 -29 -38.5t-40 -32.5t-52 -22.5t-64 -8.5zM272 42q35 0 67.5 13.5t57 40t39 64t14.5 85.5t-14.5 86t-39 64t-57 39.5t-67.5 13.5t-67.5 -14t-57 -40.5t-39 -64t-14.5 -84.5t14.5 -85t39 -64t57 -40t67.5 -14z" />
    <glyph glyph-name="Cacute" unicode="&#x106;" horiz-adv-x="725" 
d="M372 776l52 124h73l-67 -124h-58zM686 114q-48 -58 -117.5 -94t-161.5 -36q-79 0 -146 29t-116 79.5t-77 119t-28 146.5t28 146.5t77 119t116 79.5t146 29q83 0 147 -30.5t112 -86.5l-46 -44q-82 100 -213 100q-62 0 -117 -23t-96 -64t-65 -98.5t-24 -127.5t24 -127.5
t65 -99t96 -64t117 -22.5q75 0 132 30t101 83z" />
    <glyph glyph-name="cacute" unicode="&#x107;" horiz-adv-x="513" 
d="M228 592l52 124h73l-67 -124h-58zM488 124q-13 -30 -32.5 -55.5t-45.5 -44t-60 -29.5t-75 -11q-53 0 -98 20t-77.5 55t-51 82.5t-18.5 103.5t18.5 103.5t51 82.5t77.5 55t98 20q41 0 74.5 -10.5t60 -29.5t45.5 -44t31 -55l-57 -25q-22 51 -61 78.5t-96 27.5
q-34 0 -66 -14.5t-57 -41t-40 -64t-15 -83.5t15 -83.5t40 -64t57 -41t66 -14.5q57 0 97 27.5t62 78.5z" />
    <glyph glyph-name="Ccircumflex" unicode="&#x108;" horiz-adv-x="725" 
d="M276 787l100 114h59l101 -114v-5h-64l-62 72h-8l-63 -72h-63v5zM686 114q-48 -58 -117.5 -94t-161.5 -36q-79 0 -146 29t-116 79.5t-77 119t-28 146.5t28 146.5t77 119t116 79.5t146 29q83 0 147 -30.5t112 -86.5l-46 -44q-82 100 -213 100q-62 0 -117 -23t-96 -64
t-65 -98.5t-24 -127.5t24 -127.5t65 -99t96 -64t117 -22.5q75 0 132 30t101 83z" />
    <glyph glyph-name="ccircumflex" unicode="&#x109;" horiz-adv-x="513" 
d="M139 602l100 114h59l101 -114v-5h-64l-62 72h-8l-63 -72h-63v5zM488 124q-13 -30 -32.5 -55.5t-45.5 -44t-60 -29.5t-75 -11q-53 0 -98 20t-77.5 55t-51 82.5t-18.5 103.5t18.5 103.5t51 82.5t77.5 55t98 20q41 0 74.5 -10.5t60 -29.5t45.5 -44t31 -55l-57 -25
q-22 51 -61 78.5t-96 27.5q-34 0 -66 -14.5t-57 -41t-40 -64t-15 -83.5t15 -83.5t40 -64t57 -41t66 -14.5q57 0 97 27.5t62 78.5z" />
    <glyph glyph-name="Cdotaccent" unicode="&#x10a;" horiz-adv-x="725" 
d="M391 814q-17 0 -29.5 12.5t-12.5 29.5q0 18 12.5 30t29.5 12q18 0 30 -12t12 -30q0 -17 -12 -29.5t-30 -12.5zM686 114q-48 -58 -117.5 -94t-161.5 -36q-79 0 -146 29t-116 79.5t-77 119t-28 146.5t28 146.5t77 119t116 79.5t146 29q83 0 147 -30.5t112 -86.5l-46 -44
q-82 100 -213 100q-62 0 -117 -23t-96 -64t-65 -98.5t-24 -127.5t24 -127.5t65 -99t96 -64t117 -22.5q75 0 132 30t101 83z" />
    <glyph glyph-name="cdotaccent" unicode="&#x10b;" horiz-adv-x="513" 
d="M488 124q-13 -30 -32.5 -55.5t-45.5 -44t-60 -29.5t-75 -11q-53 0 -98 20t-77.5 55t-51 82.5t-18.5 103.5t18.5 103.5t51 82.5t77.5 55t98 20q41 0 74.5 -10.5t60 -29.5t45.5 -44t31 -55l-57 -25q-22 51 -61 78.5t-96 27.5q-34 0 -66 -14.5t-57 -41t-40 -64t-15 -83.5
t15 -83.5t40 -64t57 -41t66 -14.5q57 0 97 27.5t62 78.5zM269 615q-18 0 -31.5 13t-13.5 31q0 20 13.5 32.5t31.5 12.5q19 0 31.5 -12.5t12.5 -32.5q0 -18 -12.5 -31t-31.5 -13z" />
    <glyph glyph-name="Ccaron" unicode="&#x10c;" horiz-adv-x="725" 
d="M264 900h63l63 -72h8l62 72h64v-5l-101 -114h-59l-100 114v5zM686 114q-48 -58 -117.5 -94t-161.5 -36q-79 0 -146 29t-116 79.5t-77 119t-28 146.5t28 146.5t77 119t116 79.5t146 29q83 0 147 -30.5t112 -86.5l-46 -44q-82 100 -213 100q-62 0 -117 -23t-96 -64
t-65 -98.5t-24 -127.5t24 -127.5t65 -99t96 -64t117 -22.5q75 0 132 30t101 83z" />
    <glyph glyph-name="ccaron" unicode="&#x10d;" horiz-adv-x="513" 
d="M144 716h63l63 -72h8l62 72h64v-5l-101 -114h-59l-100 114v5zM488 124q-13 -30 -32.5 -55.5t-45.5 -44t-60 -29.5t-75 -11q-53 0 -98 20t-77.5 55t-51 82.5t-18.5 103.5t18.5 103.5t51 82.5t77.5 55t98 20q41 0 74.5 -10.5t60 -29.5t45.5 -44t31 -55l-57 -25
q-22 51 -61 78.5t-96 27.5q-34 0 -66 -14.5t-57 -41t-40 -64t-15 -83.5t15 -83.5t40 -64t57 -41t66 -14.5q57 0 97 27.5t62 78.5z" />
    <glyph glyph-name="Dcaron" unicode="&#x10e;" horiz-adv-x="685" 
d="M182 900h63l63 -72h8l62 72h64v-5l-101 -114h-59l-100 114v5zM77 716h208q84 0 151 -26.5t113.5 -73.5t71 -113t24.5 -145t-24.5 -145t-71 -113t-113.5 -73.5t-151 -26.5h-208v716zM285 61q67 0 121.5 20t93 58t59.5 93t21 126q0 70 -21 125.5t-59.5 93.5t-93 58
t-121.5 20h-144v-594h144z" />
    <glyph glyph-name="dcaron" unicode="&#x10f;" horiz-adv-x="630" 
d="M585 513v203h68l-25 -203h-43zM450 86h-4q-12 -20 -29 -38.5t-40 -32.5t-52 -22.5t-64 -8.5q-47 0 -89 19.5t-73.5 54t-50 82.5t-18.5 105t18.5 105t50 82.5t73.5 54t89 19.5q70 0 116 -30t69 -71h4l-4 68v243h64v-716h-60v86zM272 42q35 0 67.5 13.5t57 40t39 64
t14.5 85.5t-14.5 86t-39 64t-57 39.5t-67.5 13.5t-67.5 -14t-57 -40.5t-39 -64t-14.5 -84.5t14.5 -85t39 -64t57 -40t67.5 -14z" />
    <glyph glyph-name="Dcroat" unicode="&#x110;" horiz-adv-x="681" 
d="M73 347h-84v51h84v318h208q84 0 151 -26.5t113.5 -73.5t71 -113t24.5 -145t-24.5 -145t-71 -113t-113.5 -73.5t-151 -26.5h-208v347zM281 61q67 0 121.5 20t93 58t59.5 93t21 126q0 70 -21 125.5t-59.5 93.5t-93 58t-121.5 20h-144v-257h197v-51h-197v-286h144z" />
    <glyph glyph-name="dcroat" unicode="&#x111;" horiz-adv-x="569" 
d="M450 86h-4q-12 -20 -29 -38.5t-40 -32.5t-52 -22.5t-64 -8.5q-47 0 -89 19.5t-73.5 54t-50 82.5t-18.5 105t18.5 105t50 82.5t73.5 54t89 19.5q70 0 116 -30t69 -71h4l-4 68v109h-161v52h161v82h64v-82h63v-52h-63v-582h-60v86zM272 42q35 0 67.5 13.5t57 40t39 64
t14.5 85.5t-14.5 86t-39 64t-57 39.5t-67.5 13.5t-67.5 -14t-57 -40.5t-39 -64t-14.5 -84.5t14.5 -85t39 -64t57 -40t67.5 -14z" />
    <glyph glyph-name="Emacron" unicode="&#x112;" horiz-adv-x="537" 
d="M141 655v-267h308v-60h-308v-267h340v-61h-404v716h404v-61h-340zM139 817v52h268v-52h-268z" />
    <glyph glyph-name="emacron" unicode="&#x113;" horiz-adv-x="528" 
d="M489 116q-13 -27 -33 -51t-46.5 -42t-60.5 -28.5t-75 -10.5q-53 0 -98 19.5t-77.5 54.5t-50.5 82.5t-18 104.5q0 53 16.5 100.5t47.5 83t75 56.5t99 21q53 0 95.5 -18.5t72.5 -52t46.5 -80.5t16.5 -104v-6q-1 -3 -1 -5v-6h-403q1 -51 18 -87t43 -59.5t58 -34.5t62 -11
q62 0 98 28.5t60 72.5zM432 288q-1 24 -10 52t-28 52t-50.5 40t-77.5 16q-30 0 -58 -10.5t-50.5 -30.5t-38 -50t-20.5 -69h333zM134 633v52h268v-52h-268z" />
    <glyph glyph-name="Ebreve" unicode="&#x114;" horiz-adv-x="537" 
d="M141 655v-267h308v-60h-308v-267h340v-61h-404v716h404v-61h-340zM281 776q-24 0 -46 9t-39.5 25t-27.5 38t-10 48h55q0 -27 18 -48t50 -21q31 0 49.5 21t18.5 48h53q0 -26 -10 -48t-26.5 -38t-38.5 -25t-46 -9z" />
    <glyph glyph-name="ebreve" unicode="&#x115;" horiz-adv-x="528" 
d="M489 116q-13 -27 -33 -51t-46.5 -42t-60.5 -28.5t-75 -10.5q-53 0 -98 19.5t-77.5 54.5t-50.5 82.5t-18 104.5q0 53 16.5 100.5t47.5 83t75 56.5t99 21q53 0 95.5 -18.5t72.5 -52t46.5 -80.5t16.5 -104v-6q-1 -3 -1 -5v-6h-403q1 -51 18 -87t43 -59.5t58 -34.5t62 -11
q62 0 98 28.5t60 72.5zM432 288q-1 24 -10 52t-28 52t-50.5 40t-77.5 16q-30 0 -58 -10.5t-50.5 -30.5t-38 -50t-20.5 -69h333zM268 592q-24 0 -46 9t-39.5 25t-27.5 38t-10 48h55q0 -27 18 -48t50 -21q31 0 49.5 21t18.5 48h53q0 -26 -10 -48t-26.5 -38t-38.5 -25t-46 -9z
" />
    <glyph glyph-name="Edotaccent" unicode="&#x116;" horiz-adv-x="537" 
d="M281 814q-17 0 -29.5 12.5t-12.5 29.5q0 18 12.5 30t29.5 12q18 0 30 -12t12 -30q0 -17 -12 -29.5t-30 -12.5zM141 655v-267h308v-60h-308v-267h340v-61h-404v716h404v-61h-340z" />
    <glyph glyph-name="edotaccent" unicode="&#x117;" horiz-adv-x="528" 
d="M489 116q-13 -27 -33 -51t-46.5 -42t-60.5 -28.5t-75 -10.5q-53 0 -98 19.5t-77.5 54.5t-50.5 82.5t-18 104.5q0 53 16.5 100.5t47.5 83t75 56.5t99 21q53 0 95.5 -18.5t72.5 -52t46.5 -80.5t16.5 -104v-6q-1 -3 -1 -5v-6h-403q1 -51 18 -87t43 -59.5t58 -34.5t62 -11
q62 0 98 28.5t60 72.5zM432 288q-1 24 -10 52t-28 52t-50.5 40t-77.5 16q-30 0 -58 -10.5t-50.5 -30.5t-38 -50t-20.5 -69h333zM269 615q-18 0 -31.5 13t-13.5 31q0 20 13.5 32.5t31.5 12.5q19 0 31.5 -12.5t12.5 -32.5q0 -18 -12.5 -31t-31.5 -13z" />
    <glyph glyph-name="Eogonek" unicode="&#x118;" horiz-adv-x="537" 
d="M141 655v-267h308v-60h-308v-267h340v-61q-32 -24 -53 -49.5t-21 -57.5q0 -29 17.5 -46t41.5 -17q20 0 34 7l20 -49q-13 -6 -26 -9t-32 -3q-53 0 -83.5 32t-30.5 78q0 20 6.5 37.5t16.5 32t22 25.5t24 19h-340v716h404v-61h-340z" />
    <glyph glyph-name="eogonek" unicode="&#x119;" horiz-adv-x="528" 
d="M489 116q-14 -29 -34 -52t-42 -38q-14 -9 -32.5 -24.5t-35.5 -33.5t-29 -37.5t-12 -37.5q0 -29 17 -46t42 -17q19 0 34 7l20 -49q-13 -6 -26 -9t-32 -3q-54 0 -84 32t-30 78q0 30 16.5 56t36.5 43q-11 -1 -14 -1h-10q-53 0 -98 19.5t-77.5 54.5t-50.5 82.5t-18 104.5
q0 53 16.5 100.5t47.5 83t75 56.5t99 21q53 0 95.5 -18.5t72.5 -52t46.5 -80.5t16.5 -104v-6q-1 -3 -1 -5v-6h-403q1 -51 18 -87t43 -59.5t58 -34.5t62 -11q62 0 98 28.5t60 72.5zM432 288q-1 24 -10 52t-28 52t-50.5 40t-77.5 16q-30 0 -58 -10.5t-50.5 -30.5t-38 -50
t-20.5 -69h333z" />
    <glyph glyph-name="Ecaron" unicode="&#x11a;" horiz-adv-x="537" 
d="M150 900h63l63 -72h8l62 72h64v-5l-101 -114h-59l-100 114v5zM141 655v-267h308v-60h-308v-267h340v-61h-404v716h404v-61h-340z" />
    <glyph glyph-name="ecaron" unicode="&#x11b;" horiz-adv-x="528" 
d="M135 716h63l63 -72h8l62 72h64v-5l-101 -114h-59l-100 114v5zM489 116q-13 -27 -33 -51t-46.5 -42t-60.5 -28.5t-75 -10.5q-53 0 -98 19.5t-77.5 54.5t-50.5 82.5t-18 104.5q0 53 16.5 100.5t47.5 83t75 56.5t99 21q53 0 95.5 -18.5t72.5 -52t46.5 -80.5t16.5 -104v-6
q-1 -3 -1 -5v-6h-403q1 -51 18 -87t43 -59.5t58 -34.5t62 -11q62 0 98 28.5t60 72.5zM432 288q-1 24 -10 52t-28 52t-50.5 40t-77.5 16q-30 0 -58 -10.5t-50.5 -30.5t-38 -50t-20.5 -69h333z" />
    <glyph glyph-name="Gcircumflex" unicode="&#x11c;" horiz-adv-x="798" 
d="M278 787l100 114h59l101 -114v-5h-64l-62 72h-8l-63 -72h-63v5zM415 375h337q2 -12 3 -23.5t1 -23.5q0 -64 -20 -125.5t-65 -110.5q-48 -51 -113.5 -79.5t-148.5 -28.5q-77 0 -144 28.5t-117 79t-79 118.5t-29 148q0 79 29 147.5t79 119t117 79t144 28.5q79 0 147 -27.5
t113 -78.5l-47 -47q-37 45 -92 68.5t-120 23.5q-60 0 -115.5 -22.5t-97.5 -63.5t-67 -98.5t-25 -128.5t25.5 -128.5t67.5 -98.5t97 -63.5t115 -22.5q78 0 131.5 26t86.5 64t47.5 82t16.5 98h-277v60z" />
    <glyph glyph-name="Gcircumflex.alt" horiz-adv-x="798" 
d="M277 786l100 114h59l101 -114v-5h-64l-62 72h-8l-63 -72h-63v5zM406 732q81 0 148 -28t112 -79l-47 -47q-37 45 -92 69t-120 24q-60 0 -115 -22.5t-96.5 -63.5t-66 -98.5t-24.5 -128.5t24.5 -128.5t65.5 -98.5t95 -63.5t113 -22.5q67 0 116.5 23.5t82.5 61.5t49.5 86.5
t17.5 99.5h-258v59h319v-375h-61v125h-4q-41 -64 -107.5 -102.5t-155.5 -38.5q-76 0 -142 28.5t-115 79t-77 118.5t-28 148q0 79 28.5 147.5t78 119t116 79t143.5 28.5z" />
    <glyph glyph-name="gcircumflex" unicode="&#x11d;" horiz-adv-x="567" 
d="M141 602l100 114h59l101 -114v-5h-64l-62 72h-8l-63 -72h-63v5zM268 -232q-48 0 -84 13t-62.5 33t-43.5 45.5t-26 50.5l60 24q16 -50 58 -79t98 -29q88 0 133 51.5t45 142.5v64h-5q-23 -39 -68.5 -69.5t-111.5 -30.5q-47 0 -88.5 19.5t-73.5 54.5t-50.5 83t-18.5 104
t18.5 104t50.5 83t73.5 54.5t88.5 19.5q66 0 111.5 -30t68.5 -69h5v83h62v-474q0 -62 -18.5 -108.5t-51 -77.5t-76.5 -46.5t-94 -15.5zM270 42q34 0 66.5 13.5t57 39.5t39.5 63.5t15 86.5t-15 86.5t-39.5 63.5t-57 39.5t-66.5 13.5t-65.5 -14t-56 -40t-39.5 -63.5t-15 -85.5
q0 -47 15 -85t39.5 -64t56 -40t65.5 -14z" />
    <glyph glyph-name="Gbreve" unicode="&#x11e;" horiz-adv-x="798" 
d="M415 375h337q2 -12 3 -23.5t1 -23.5q0 -64 -20 -125.5t-65 -110.5q-48 -51 -113.5 -79.5t-148.5 -28.5q-77 0 -144 28.5t-117 79t-79 118.5t-29 148q0 79 29 147.5t79 119t117 79t144 28.5q79 0 147 -27.5t113 -78.5l-47 -47q-37 45 -92 68.5t-120 23.5
q-60 0 -115.5 -22.5t-97.5 -63.5t-67 -98.5t-25 -128.5t25.5 -128.5t67.5 -98.5t97 -63.5t115 -22.5q78 0 131.5 26t86.5 64t47.5 82t16.5 98h-277v60zM406 776q-24 0 -46 9t-39.5 25t-27.5 38t-10 48h55q0 -27 18 -48t50 -21q31 0 49.5 21t18.5 48h53q0 -26 -10 -48
t-26.5 -38t-38.5 -25t-46 -9z" />
    <glyph glyph-name="Gbreve.alt" horiz-adv-x="798" 
d="M406 732q81 0 148 -28t112 -79l-47 -47q-37 45 -92 69t-120 24q-60 0 -115 -22.5t-96.5 -63.5t-66 -98.5t-24.5 -128.5t24.5 -128.5t65.5 -98.5t95 -63.5t113 -22.5q67 0 116.5 23.5t82.5 61.5t49.5 86.5t17.5 99.5h-258v59h319v-375h-61v125h-4q-41 -64 -107.5 -102.5
t-155.5 -38.5q-76 0 -142 28.5t-115 79t-77 118.5t-28 148q0 79 28.5 147.5t78 119t116 79t143.5 28.5zM405 776q-24 0 -46 9t-39.5 25t-27.5 38t-10 48h55q0 -27 18 -48t50 -21q31 0 49.5 21t18.5 48h53q0 -26 -10 -48t-26.5 -38t-38.5 -25t-46 -9z" />
    <glyph glyph-name="gbreve" unicode="&#x11f;" horiz-adv-x="567" 
d="M268 -232q-48 0 -84 13t-62.5 33t-43.5 45.5t-26 50.5l60 24q16 -50 58 -79t98 -29q88 0 133 51.5t45 142.5v64h-5q-23 -39 -68.5 -69.5t-111.5 -30.5q-47 0 -88.5 19.5t-73.5 54.5t-50.5 83t-18.5 104t18.5 104t50.5 83t73.5 54.5t88.5 19.5q66 0 111.5 -30t68.5 -69h5
v83h62v-474q0 -62 -18.5 -108.5t-51 -77.5t-76.5 -46.5t-94 -15.5zM270 42q34 0 66.5 13.5t57 39.5t39.5 63.5t15 86.5t-15 86.5t-39.5 63.5t-57 39.5t-66.5 13.5t-65.5 -14t-56 -40t-39.5 -63.5t-15 -85.5q0 -47 15 -85t39.5 -64t56 -40t65.5 -14zM285 592q-24 0 -46 9
t-39.5 25t-27.5 38t-10 48h55q0 -27 18 -48t50 -21q31 0 49.5 21t18.5 48h53q0 -26 -10 -48t-26.5 -38t-38.5 -25t-46 -9z" />
    <glyph glyph-name="Gdotaccent" unicode="&#x120;" horiz-adv-x="798" 
d="M395 814q-17 0 -29.5 12.5t-12.5 29.5q0 18 12.5 30t29.5 12q18 0 30 -12t12 -30q0 -17 -12 -29.5t-30 -12.5zM415 375h337q2 -12 3 -23.5t1 -23.5q0 -64 -20 -125.5t-65 -110.5q-48 -51 -113.5 -79.5t-148.5 -28.5q-77 0 -144 28.5t-117 79t-79 118.5t-29 148
q0 79 29 147.5t79 119t117 79t144 28.5q79 0 147 -27.5t113 -78.5l-47 -47q-37 45 -92 68.5t-120 23.5q-60 0 -115.5 -22.5t-97.5 -63.5t-67 -98.5t-25 -128.5t25.5 -128.5t67.5 -98.5t97 -63.5t115 -22.5q78 0 131.5 26t86.5 64t47.5 82t16.5 98h-277v60z" />
    <glyph glyph-name="Gdotaccent.alt" horiz-adv-x="798" 
d="M398 814q-17 0 -29.5 12.5t-12.5 29.5q0 18 12.5 30t29.5 12q18 0 30 -12t12 -30q0 -17 -12 -29.5t-30 -12.5zM406 732q81 0 148 -28t112 -79l-47 -47q-37 45 -92 69t-120 24q-60 0 -115 -22.5t-96.5 -63.5t-66 -98.5t-24.5 -128.5t24.5 -128.5t65.5 -98.5t95 -63.5
t113 -22.5q67 0 116.5 23.5t82.5 61.5t49.5 86.5t17.5 99.5h-258v59h319v-375h-61v125h-4q-41 -64 -107.5 -102.5t-155.5 -38.5q-76 0 -142 28.5t-115 79t-77 118.5t-28 148q0 79 28.5 147.5t78 119t116 79t143.5 28.5z" />
    <glyph glyph-name="gdotaccent" unicode="&#x121;" horiz-adv-x="567" 
d="M268 -232q-48 0 -84 13t-62.5 33t-43.5 45.5t-26 50.5l60 24q16 -50 58 -79t98 -29q88 0 133 51.5t45 142.5v64h-5q-23 -39 -68.5 -69.5t-111.5 -30.5q-47 0 -88.5 19.5t-73.5 54.5t-50.5 83t-18.5 104t18.5 104t50.5 83t73.5 54.5t88.5 19.5q66 0 111.5 -30t68.5 -69h5
v83h62v-474q0 -62 -18.5 -108.5t-51 -77.5t-76.5 -46.5t-94 -15.5zM270 42q34 0 66.5 13.5t57 39.5t39.5 63.5t15 86.5t-15 86.5t-39.5 63.5t-57 39.5t-66.5 13.5t-65.5 -14t-56 -40t-39.5 -63.5t-15 -85.5q0 -47 15 -85t39.5 -64t56 -40t65.5 -14zM279 615q-18 0 -31.5 13
t-13.5 31q0 20 13.5 32.5t31.5 12.5q19 0 31.5 -12.5t12.5 -32.5q0 -18 -12.5 -31t-31.5 -13z" />
    <glyph glyph-name="uni0122" unicode="&#x122;" horiz-adv-x="798" 
d="M363 -201l42 63q-14 4 -23 16t-9 27q0 18 13 32.5t34 14.5t34 -14t13 -34q0 -11 -3 -19t-8 -17l-61 -91zM415 375h337q2 -12 3 -23.5t1 -23.5q0 -64 -20 -125.5t-65 -110.5q-48 -51 -113.5 -79.5t-148.5 -28.5q-77 0 -144 28.5t-117 79t-79 118.5t-29 148q0 79 29 147.5
t79 119t117 79t144 28.5q79 0 147 -27.5t113 -78.5l-47 -47q-37 45 -92 68.5t-120 23.5q-60 0 -115.5 -22.5t-97.5 -63.5t-67 -98.5t-25 -128.5t25.5 -128.5t67.5 -98.5t97 -63.5t115 -22.5q78 0 131.5 26t86.5 64t47.5 82t16.5 98h-277v60z" />
    <glyph glyph-name="uni0122.alt" horiz-adv-x="798" 
d="M362 -201l42 63q-14 4 -23 16t-9 27q0 18 13 32.5t34 14.5t34 -14t13 -34q0 -11 -3 -19t-8 -17l-61 -91zM406 732q81 0 148 -28t112 -79l-47 -47q-37 45 -92 69t-120 24q-60 0 -115 -22.5t-96.5 -63.5t-66 -98.5t-24.5 -128.5t24.5 -128.5t65.5 -98.5t95 -63.5t113 -22.5
q67 0 116.5 23.5t82.5 61.5t49.5 86.5t17.5 99.5h-258v59h319v-375h-61v125h-4q-41 -64 -107.5 -102.5t-155.5 -38.5q-76 0 -142 28.5t-115 79t-77 118.5t-28 148q0 79 28.5 147.5t78 119t116 79t143.5 28.5z" />
    <glyph glyph-name="uni0123" unicode="&#x123;" horiz-adv-x="567" 
d="M312.962 724.911l-41.9951 -62.9922q13.998 -3.99902 22.9971 -15.998q8.99902 -11.998 8.99902 -26.9961q0 -17.998 -12.998 -32.4961q-12.999 -14.499 -33.9961 -14.499t-33.9961 13.999q-12.998 13.998 -12.998 33.9951q0 10.999 3 18.998
q2.99902 7.99902 7.99805 16.998l60.9932 90.9893zM268 -232q-48 0 -84 13t-62.5 33t-43.5 45.5t-26 50.5l60 24q16 -50 58 -79t98 -29q88 0 133 51.5t45 142.5v64h-5q-23 -39 -68.5 -69.5t-111.5 -30.5q-47 0 -88.5 19.5t-73.5 54.5t-50.5 83t-18.5 104t18.5 104t50.5 83
t73.5 54.5t88.5 19.5q66 0 111.5 -30t68.5 -69h5v83h62v-474q0 -62 -18.5 -108.5t-51 -77.5t-76.5 -46.5t-94 -15.5zM270 42q34 0 66.5 13.5t57 39.5t39.5 63.5t15 86.5t-15 86.5t-39.5 63.5t-57 39.5t-66.5 13.5t-65.5 -14t-56 -40t-39.5 -63.5t-15 -85.5q0 -47 15 -85
t39.5 -64t56 -40t65.5 -14z" />
    <glyph glyph-name="Hcircumflex" unicode="&#x124;" horiz-adv-x="682" 
d="M212 786l100 114h59l101 -114v-5h-64l-62 72h-8l-63 -72h-63v5zM77 716h64v-320h400v320h64v-716h-64v336h-400v-336h-64v716z" />
    <glyph glyph-name="hcircumflex" unicode="&#x125;" horiz-adv-x="535" 
d="M149 786l100 114h59l101 -114v-5h-64l-62 72h-8l-63 -72h-63v5zM60 716h64v-242l-4 -78h4q23 48 68 79t108 31q46 0 80 -15t56.5 -41.5t33 -63t10.5 -79.5v-307h-64v296q0 77 -35 114.5t-96 37.5q-35 0 -64 -16t-51 -42t-34 -61t-12 -72v-257h-64v716z" />
    <glyph glyph-name="Hbar" unicode="&#x126;" horiz-adv-x="682" 
d="M77 516h-64v52h64v148h64v-148h400v148h64v-148h64v-52h-64v-516h-64v336h-400v-336h-64v516zM541 396v120h-400v-120h400z" />
    <glyph glyph-name="hbar" unicode="&#x127;" horiz-adv-x="535" 
d="M60 582h-66v52h66v82h64v-82h159v-52h-159v-108l-4 -78h4q23 48 68 79t108 31q46 0 80 -15t56.5 -41.5t33 -63t10.5 -79.5v-307h-64v296q0 77 -35 114.5t-96 37.5q-35 0 -64 -16t-51 -42t-34 -61t-12 -72v-257h-64v582z" />
    <glyph glyph-name="Itilde" unicode="&#x128;" horiz-adv-x="218" 
d="M77 716h64v-716h-64v716zM173 786q-20 0 -37.5 8.5t-32.5 18.5t-29 18.5t-26 8.5q-40 0 -46 -44h-54q0 26 9.5 45.5t23.5 32t32 18.5t35 6q20 0 37.5 -8.5t32.5 -17.5q15 -10 29 -18.5t26 -8.5q40 0 45 43h54q0 -26 -9.5 -45.5t-23.5 -32t-31.5 -18.5t-34.5 -6z" />
    <glyph glyph-name="Itilde.alt" horiz-adv-x="431" 
d="M248 655v-594h158v-61h-380v61h158v594h-158v61h380v-61h-158zM279 786q-20 0 -37.5 8.5t-32.5 18.5t-29 18.5t-26 8.5q-40 0 -46 -44h-54q0 26 9.5 45.5t23.5 32t32 18.5t35 6q20 0 37.5 -8.5t32.5 -17.5q15 -10 29 -18.5t26 -8.5q40 0 45 43h54q0 -26 -9.5 -45.5
t-23.5 -32t-31.5 -18.5t-34.5 -6z" />
    <glyph glyph-name="itilde" unicode="&#x129;" horiz-adv-x="195" 
d="M66 0v490h64v-490h-64zM161 602q-20 0 -37.5 8.5t-32.5 18.5t-29 18.5t-26 8.5q-40 0 -46 -44h-54q0 26 9.5 45.5t23.5 32t32 18.5t35 6q20 0 37.5 -8.5t32.5 -17.5q15 -10 29 -18.5t26 -8.5q40 0 45 43h54q0 -26 -9.5 -45.5t-23.5 -32t-31.5 -18.5t-34.5 -6z" />
    <glyph glyph-name="Imacron" unicode="&#x12a;" horiz-adv-x="218" 
d="M-11 817v52h240v-52h-240zM77 716h64v-716h-64v716z" />
    <glyph glyph-name="Imacron.alt" horiz-adv-x="431" 
d="M248 655v-594h158v-61h-380v61h158v594h-158v61h380v-61h-158zM82 817v52h268v-52h-268z" />
    <glyph glyph-name="imacron" unicode="&#x12b;" horiz-adv-x="195" 
d="M66 0v490h64v-490h-64zM-36 633v52h268v-52h-268z" />
    <glyph glyph-name="Ibreve" unicode="&#x12c;" horiz-adv-x="218" 
d="M77 716h64v-716h-64v716zM111 776q-24 0 -46 9t-39.5 25t-27.5 38t-10 48h55q0 -27 18 -48t50 -21q31 0 49.5 21t18.5 48h53q0 -26 -10 -48t-26.5 -38t-38.5 -25t-46 -9z" />
    <glyph glyph-name="Ibreve.alt" horiz-adv-x="431" 
d="M248 655v-594h158v-61h-380v61h158v594h-158v61h380v-61h-158zM217 776q-24 0 -46 9t-39.5 25t-27.5 38t-10 48h55q0 -27 18 -48t50 -21q31 0 49.5 21t18.5 48h53q0 -26 -10 -48t-26.5 -38t-38.5 -25t-46 -9z" />
    <glyph glyph-name="ibreve" unicode="&#x12d;" horiz-adv-x="195" 
d="M66 0v490h64v-490h-64zM99 592q-24 0 -46 9t-39.5 25t-27.5 38t-10 48h55q0 -27 18 -48t50 -21q31 0 49.5 21t18.5 48h53q0 -26 -10 -48t-26.5 -38t-38.5 -25t-46 -9z" />
    <glyph glyph-name="Iogonek" unicode="&#x12e;" horiz-adv-x="218" 
d="M77 716h64v-716q-32 -24 -53 -49.5t-21 -57.5q0 -29 17.5 -46t42.5 -17q19 0 34 7l20 -49q-13 -6 -26.5 -9t-32.5 -3q-53 0 -83.5 32t-30.5 78q0 20 6.5 37.5t16.5 32t22 25.5t24 19v716z" />
    <glyph glyph-name="Iogonek.alt" horiz-adv-x="431" 
d="M387 -224q-53 0 -83.5 32t-30.5 78q0 20 6.5 37.5t16.5 32t22 25.5t24 19h-316v61h158v594h-158v61h380v-61h-158v-594h158v-61q-32 -24 -53 -49.5t-21 -57.5q0 -29 17.5 -46t41.5 -17q20 0 34 7l20 -49q-13 -6 -26 -9t-32 -3z" />
    <glyph glyph-name="iogonek" unicode="&#x12f;" horiz-adv-x="195" 
d="M98 610q-21 0 -35.5 14.5t-14.5 34.5q0 21 14.5 35.5t35.5 14.5q20 0 34.5 -14.5t14.5 -35.5q0 -20 -14.5 -34.5t-34.5 -14.5zM130 0q-33 -24 -53.5 -49.5t-20.5 -57.5q0 -29 17 -46t42 -17q19 0 34 7l20 -49q-13 -6 -26 -9t-32 -3q-54 0 -84.5 32t-30.5 78q0 41 23 70
t47 44v490h64v-490z" />
    <glyph glyph-name="Idotaccent" unicode="&#x130;" horiz-adv-x="218" 
d="M77 716h64v-716h-64v716zM110 814q-17 0 -29.5 12.5t-12.5 29.5q0 18 12.5 30t29.5 12q18 0 30 -12t12 -30q0 -17 -12 -29.5t-30 -12.5z" />
    <glyph glyph-name="Idotaccent.alt" horiz-adv-x="431" 
d="M216 814q-17 0 -29.5 12.5t-12.5 29.5q0 18 12.5 30t29.5 12q18 0 30 -12t12 -30q0 -17 -12 -29.5t-30 -12.5zM248 655v-594h158v-61h-380v61h158v594h-158v61h380v-61h-158z" />
    <glyph glyph-name="Jcircumflex" unicode="&#x134;" horiz-adv-x="514" 
d="M282 786l100 114h59l101 -114v-5h-64l-62 72h-8l-63 -72h-63v5zM240 -16q-76 0 -133.5 43t-80.5 124l58 24q23 -73 64 -101.5t92 -28.5q66 0 106 45t40 123v503h64v-497q0 -57 -16 -100.5t-44 -73.5t-66.5 -45.5t-83.5 -15.5z" />
    <glyph glyph-name="Jcircumflex.alt" horiz-adv-x="514" 
d="M157 786l100 114h59l101 -114v-5h-64l-62 72h-8l-63 -72h-63v5zM240 -16q-76 0 -133.5 43t-80.5 124l58 24q23 -73 64 -101.5t92 -28.5q66 0 106 45t40 123v442h-270v61h334v-497q0 -57 -16 -100.5t-44 -73.5t-66.5 -45.5t-83.5 -15.5z" />
    <glyph glyph-name="jcircumflex" unicode="&#x135;" horiz-adv-x="195" 
d="M7 -226q-28 0 -50 10l17 55q13 -7 31 -7q32 0 46.5 21t14.5 59v578h64v-579q0 -67 -32 -102t-91 -35zM-29 602l100 114h59l101 -114v-5h-64l-62 72h-8l-63 -72h-63v5z" />
    <glyph glyph-name="uni0136" unicode="&#x136;" horiz-adv-x="595" 
d="M248 -201l42 63q-14 4 -23 16t-9 27q0 18 13 32.5t34 14.5t34 -14t13 -34q0 -11 -3 -19t-8 -17l-61 -91zM77 716h64v-399h4l344 399h81v-4l-262 -303l285 -405v-4h-77l-252 359l-123 -142v-217h-64v716z" />
    <glyph glyph-name="uni0136.alt" horiz-adv-x="581" 
d="M240 -201l42 63q-14 4 -23 16t-9 27q0 18 13 32.5t34 14.5t34 -14t13 -34q0 -11 -3 -19t-8 -17l-61 -91zM568 712l-346 -363l356 -345v-4h-89l-344 339h-4v-339h-64v716h64v-360h4l339 360h84v-4z" />
    <glyph glyph-name="uni0137" unicode="&#x137;" horiz-adv-x="465" 
d="M182 -201l42 63q-14 4 -23 16t-9 27q0 18 13 32.5t34 14.5t34 -14t13 -34q0 -11 -3 -19t-8 -17l-61 -91zM60 716h64v-475l248 249h81v-4l-184 -185l202 -297v-4h-75l-173 256l-99 -99v-157h-64v716z" />
    <glyph glyph-name="uni0137.alt" horiz-adv-x="443" 
d="M171 -201l42 63q-14 4 -23 16t-9 27q0 18 13 32.5t34 14.5t34 -14t13 -34q0 -11 -3 -19t-8 -17l-61 -91zM128 249h-4v-249h-64v716h64v-450h4l225 224h82v-4l-234 -228l244 -254v-4h-80z" />
    <glyph glyph-name="kgreenlandic" unicode="&#x138;" horiz-adv-x="443" 
d="M128 249h-4v-249h-64v490h64v-224h4l225 224h82v-4l-234 -228l244 -254v-4h-80z" />
    <glyph glyph-name="Lacute" unicode="&#x139;" horiz-adv-x="491" 
d="M84 776l52 124h73l-67 -124h-58zM77 716h64v-655h324v-61h-388v716z" />
    <glyph glyph-name="lacute" unicode="&#x13a;" horiz-adv-x="183" 
d="M65 776l52 124h73l-67 -124h-58zM60 0v716h64v-716h-64z" />
    <glyph glyph-name="uni013B" unicode="&#x13b;" horiz-adv-x="491" 
d="M215 -201l42 63q-14 4 -23 16t-9 27q0 18 13 32.5t34 14.5t34 -14t13 -34q0 -11 -3 -19t-8 -17l-61 -91zM77 716h64v-655h324v-61h-388v716z" />
    <glyph glyph-name="uni013C" unicode="&#x13c;" horiz-adv-x="183" 
d="M36 -201l42 63q-14 4 -23 16t-9 27q0 18 13 32.5t34 14.5t34 -14t13 -34q0 -11 -3 -19t-8 -17l-61 -91zM60 0v716h64v-716h-64z" />
    <glyph glyph-name="Lcaron" unicode="&#x13d;" horiz-adv-x="491" 
d="M322 513v203h68l-25 -203h-43zM77 716h64v-655h324v-61h-388v716z" />
    <glyph glyph-name="lcaron" unicode="&#x13e;" horiz-adv-x="278" 
d="M224 513v203h68l-25 -203h-43zM82 0v716h64v-716h-64z" />
    <glyph glyph-name="Ldot" unicode="&#x13f;" horiz-adv-x="491" 
d="M77 716h64v-655h324v-61h-388v716zM317 293q-22 0 -37 14.5t-15 36.5t15 37t37 15t36.5 -15t14.5 -37t-14.5 -36.5t-36.5 -14.5z" />
    <glyph glyph-name="Nacute" unicode="&#x143;" horiz-adv-x="690" 
d="M330 776l52 124h73l-67 -124h-58zM77 716h83l389 -604h4l-4 138v466h64v-716h-66l-406 631h-4l4 -138v-493h-64v716z" />
    <glyph glyph-name="nacute" unicode="&#x144;" horiz-adv-x="535" 
d="M248 592l52 124h73l-67 -124h-58zM120 398h4q12 22 29 41.5t39.5 34.5t49.5 23.5t58 8.5q45 0 79 -14.5t56.5 -41t33.5 -63t11 -80.5v-307h-64v296q0 79 -35 115.5t-98 36.5q-35 0 -64 -15.5t-50 -42t-33 -60.5t-12 -71v-259h-64v490h60v-92z" />
    <glyph glyph-name="uni0145" unicode="&#x145;" horiz-adv-x="690" 
d="M289 -201l42 63q-14 4 -23 16t-9 27q0 18 13 32.5t34 14.5t34 -14t13 -34q0 -11 -3 -19t-8 -17l-61 -91zM77 716h83l389 -604h4l-4 138v466h64v-716h-66l-406 631h-4l4 -138v-493h-64v716z" />
    <glyph glyph-name="uni0146" unicode="&#x146;" horiz-adv-x="535" 
d="M213 -201l42 63q-14 4 -23 16t-9 27q0 18 13 32.5t34 14.5t34 -14t13 -34q0 -11 -3 -19t-8 -17l-61 -91zM120 398h4q12 22 29 41.5t39.5 34.5t49.5 23.5t58 8.5q45 0 79 -14.5t56.5 -41t33.5 -63t11 -80.5v-307h-64v296q0 79 -35 115.5t-98 36.5q-35 0 -64 -15.5t-50 -42
t-33 -60.5t-12 -71v-259h-64v490h60v-92z" />
    <glyph glyph-name="Ncaron" unicode="&#x147;" horiz-adv-x="690" 
d="M221 900h63l63 -72h8l62 72h64v-5l-101 -114h-59l-100 114v5zM77 716h83l389 -604h4l-4 138v466h64v-716h-66l-406 631h-4l4 -138v-493h-64v716z" />
    <glyph glyph-name="ncaron" unicode="&#x148;" horiz-adv-x="535" 
d="M142 716h63l63 -72h8l62 72h64v-5l-101 -114h-59l-100 114v5zM120 398h4q12 22 29 41.5t39.5 34.5t49.5 23.5t58 8.5q45 0 79 -14.5t56.5 -41t33.5 -63t11 -80.5v-307h-64v296q0 79 -35 115.5t-98 36.5q-35 0 -64 -15.5t-50 -42t-33 -60.5t-12 -71v-259h-64v490h60v-92z
" />
    <glyph glyph-name="Eng" unicode="&#x14a;" horiz-adv-x="690" 
d="M77 716h83l389 -604h4l-4 138v466h64v-805q0 -67 -31.5 -102t-90.5 -35q-28 0 -50 10l17 55q13 -7 31 -7q32 0 46 21t14 59v90l-408 629h-4l4 -138v-493h-64v716z" />
    <glyph glyph-name="eng" unicode="&#x14b;" horiz-adv-x="535" 
d="M120 398h4q12 22 29 41.5t39.5 34.5t49.5 23.5t58 8.5q45 0 79 -14.5t56.5 -41t33.5 -63t11 -80.5v-396q0 -67 -32 -102t-91 -35q-29 0 -49 10l16 55q13 -7 31 -7q32 0 46.5 21t14.5 59v384q0 79 -35 115.5t-98 36.5q-35 0 -64 -15.5t-50 -42t-33 -60.5t-12 -71v-259h-64
v490h60v-92z" />
    <glyph glyph-name="Omacron" unicode="&#x14c;" horiz-adv-x="809" 
d="M271 817v52h268v-52h-268zM405 -16q-79 0 -146 29.5t-115.5 80.5t-76 119t-27.5 145t27.5 145t76 119t115.5 80.5t146 29.5q78 0 145 -29.5t116 -80.5t76.5 -119t27.5 -145t-27.5 -145t-76.5 -119t-116 -80.5t-145 -29.5zM405 45q61 0 116 23t95.5 64.5t64.5 99t24 126.5
t-24 126.5t-64.5 99t-95.5 64.5t-116 23q-62 0 -116.5 -23t-95.5 -64.5t-64.5 -99t-23.5 -126.5t23.5 -126.5t64.5 -99t95.5 -64.5t116.5 -23z" />
    <glyph glyph-name="omacron" unicode="&#x14d;" horiz-adv-x="554" 
d="M143 633v52h268v-52h-268zM277 506q54 0 99.5 -20t78.5 -55t51.5 -82.5t18.5 -103.5t-18.5 -103.5t-51.5 -82.5t-78.5 -55t-99.5 -20q-53 0 -98.5 20t-78.5 55t-51.5 82.5t-18.5 103.5t18.5 103.5t51.5 82.5t78.5 55t98.5 20zM277 42q36 0 69 14.5t58.5 41t41 64
t15.5 83.5t-15.5 83.5t-41 64t-58.5 41t-69 14.5t-69 -14.5t-58.5 -41t-40.5 -64t-15 -83.5t15 -83.5t40.5 -64t58.5 -41t69 -14.5z" />
    <glyph glyph-name="Obreve" unicode="&#x14e;" horiz-adv-x="809" 
d="M405 -16q-79 0 -146 29.5t-115.5 80.5t-76 119t-27.5 145t27.5 145t76 119t115.5 80.5t146 29.5q78 0 145 -29.5t116 -80.5t76.5 -119t27.5 -145t-27.5 -145t-76.5 -119t-116 -80.5t-145 -29.5zM405 45q61 0 116 23t95.5 64.5t64.5 99t24 126.5t-24 126.5t-64.5 99
t-95.5 64.5t-116 23q-62 0 -116.5 -23t-95.5 -64.5t-64.5 -99t-23.5 -126.5t23.5 -126.5t64.5 -99t95.5 -64.5t116.5 -23zM406 776q-24 0 -46 9t-39.5 25t-27.5 38t-10 48h55q0 -27 18 -48t50 -21q31 0 49.5 21t18.5 48h53q0 -26 -10 -48t-26.5 -38t-38.5 -25t-46 -9z" />
    <glyph glyph-name="obreve" unicode="&#x14f;" horiz-adv-x="554" 
d="M277 506q54 0 99.5 -20t78.5 -55t51.5 -82.5t18.5 -103.5t-18.5 -103.5t-51.5 -82.5t-78.5 -55t-99.5 -20q-53 0 -98.5 20t-78.5 55t-51.5 82.5t-18.5 103.5t18.5 103.5t51.5 82.5t78.5 55t98.5 20zM277 42q36 0 69 14.5t58.5 41t41 64t15.5 83.5t-15.5 83.5t-41 64
t-58.5 41t-69 14.5t-69 -14.5t-58.5 -41t-40.5 -64t-15 -83.5t15 -83.5t40.5 -64t58.5 -41t69 -14.5zM279 592q-24 0 -46 9t-39.5 25t-27.5 38t-10 48h55q0 -27 18 -48t50 -21q31 0 49.5 21t18.5 48h53q0 -26 -10 -48t-26.5 -38t-38.5 -25t-46 -9z" />
    <glyph glyph-name="Ohungarumlaut" unicode="&#x150;" horiz-adv-x="809" 
d="M405 -16q-79 0 -146 29.5t-115.5 80.5t-76 119t-27.5 145t27.5 145t76 119t115.5 80.5t146 29.5q78 0 145 -29.5t116 -80.5t76.5 -119t27.5 -145t-27.5 -145t-76.5 -119t-116 -80.5t-145 -29.5zM405 45q61 0 116 23t95.5 64.5t64.5 99t24 126.5t-24 126.5t-64.5 99
t-95.5 64.5t-116 23q-62 0 -116.5 -23t-95.5 -64.5t-64.5 -99t-23.5 -126.5t23.5 -126.5t64.5 -99t95.5 -64.5t116.5 -23zM305 776l52 124h73l-67 -124h-58zM449 776l52 124h73l-67 -124h-58z" />
    <glyph glyph-name="ohungarumlaut" unicode="&#x151;" horiz-adv-x="554" 
d="M179 592l52 124h73l-67 -124h-58zM323 592l52 124h73l-67 -124h-58zM277 506q54 0 99.5 -20t78.5 -55t51.5 -82.5t18.5 -103.5t-18.5 -103.5t-51.5 -82.5t-78.5 -55t-99.5 -20q-53 0 -98.5 20t-78.5 55t-51.5 82.5t-18.5 103.5t18.5 103.5t51.5 82.5t78.5 55t98.5 20z
M277 42q36 0 69 14.5t58.5 41t41 64t15.5 83.5t-15.5 83.5t-41 64t-58.5 41t-69 14.5t-69 -14.5t-58.5 -41t-40.5 -64t-15 -83.5t15 -83.5t40.5 -64t58.5 -41t69 -14.5z" />
    <glyph glyph-name="Racute" unicode="&#x154;" horiz-adv-x="569" 
d="M245 776l52 124h73l-67 -124h-58zM77 716h237q45 0 84.5 -15.5t69 -43t46.5 -66t17 -84.5q0 -38 -13.5 -71.5t-37 -59.5t-55.5 -44.5t-69 -26.5l-2 -3l204 -298v-4h-73l-202 298h-142v-298h-64v716zM305 358q32 0 61 11t51.5 30.5t35.5 47t13 60.5q0 31 -12 58.5
t-32.5 47t-48.5 31t-61 11.5h-171v-297h164z" />
    <glyph glyph-name="Racute.alt" horiz-adv-x="548" 
d="M235 776l52 124h73l-67 -124h-58zM309 716q45 0 84.5 -15.5t69 -43t46.5 -66t17 -84.5t-17 -84.5t-46.5 -66t-69.5 -43t-86 -15.5h-60l-2 -3l300 -291v-4h-87l-300 298h-22v-298h-64v716h237zM304 358q31 0 59 10.5t50 29.5t35 46.5t13 62.5q0 31 -12 58.5t-32.5 47
t-48.5 31t-61 11.5h-171v-297h168z" />
    <glyph glyph-name="racute" unicode="&#x155;" horiz-adv-x="335" 
d="M161 592l52 124h73l-67 -124h-58zM60 0v490h60v-86h4q7 22 22.5 40.5t35 32t41 20.5t41.5 7q23 0 38 -3t29 -10l-20 -60q-20 10 -55 10q-26 0 -50 -12.5t-42 -34.5t-29 -52.5t-11 -66.5v-275h-64z" />
    <glyph glyph-name="racute.alt" horiz-adv-x="328" 
d="M159 592l52 124h73l-67 -124h-58zM120 407h4q18 45 56 71t86 26q12 0 19.5 -0.5t16.5 -2.5v-64q-19 4 -42 4q-29 0 -54 -12.5t-43 -34.5t-28.5 -52.5t-10.5 -66.5v-275h-64v490h60v-83z" />
    <glyph glyph-name="uni0156" unicode="&#x156;" horiz-adv-x="562" 
d="M245 -201l42 63q-14 4 -23 16t-9 27q0 18 13 32.5t34 14.5t34 -14t13 -34q0 -11 -3 -19t-8 -17l-61 -91zM77 716h237q45 0 84.5 -15.5t69 -43t46.5 -66t17 -84.5q0 -38 -13.5 -71.5t-37 -59.5t-55.5 -44.5t-69 -26.5l-2 -3l204 -298v-4h-73l-202 298h-142v-298h-64v716z
M305 358q32 0 61 11t51.5 30.5t35.5 47t13 60.5q0 31 -12 58.5t-32.5 47t-48.5 31t-61 11.5h-171v-297h164z" />
    <glyph glyph-name="uni0156.alt" horiz-adv-x="548" 
d="M224 -201l42 63q-14 4 -23 16t-9 27q0 18 13 32.5t34 14.5t34 -14t13 -34q0 -11 -3 -19t-8 -17l-61 -91zM309 716q45 0 84.5 -15.5t69 -43t46.5 -66t17 -84.5t-17 -84.5t-46.5 -66t-69.5 -43t-86 -15.5h-60l-2 -3l300 -291v-4h-87l-300 298h-22v-298h-64v716h237z
M304 358q31 0 59 10.5t50 29.5t35 46.5t13 62.5q0 31 -12 58.5t-32.5 47t-48.5 31t-61 11.5h-171v-297h168z" />
    <glyph glyph-name="uni0157" unicode="&#x157;" horiz-adv-x="335" 
d="M35 -201l42 63q-14 4 -23 16t-9 27q0 18 13 32.5t34 14.5t34 -14t13 -34q0 -11 -3 -19t-8 -17l-61 -91zM60 0v490h60v-86h4q7 22 22.5 40.5t35 32t41 20.5t41.5 7q23 0 38 -3t29 -10l-20 -60q-20 10 -55 10q-26 0 -50 -12.5t-42 -34.5t-29 -52.5t-11 -66.5v-275h-64z" />
    <glyph glyph-name="uni0157.alt" horiz-adv-x="328" 
d="M36 -201l42 63q-14 4 -23 16t-9 27q0 18 13 32.5t34 14.5t34 -14t13 -34q0 -11 -3 -19t-8 -17l-61 -91zM120 407h4q18 45 56 71t86 26q12 0 19.5 -0.5t16.5 -2.5v-64q-19 4 -42 4q-29 0 -54 -12.5t-43 -34.5t-28.5 -52.5t-10.5 -66.5v-275h-64v490h60v-83z" />
    <glyph glyph-name="Rcaron" unicode="&#x158;" horiz-adv-x="569" 
d="M148 900h63l63 -72h8l62 72h64v-5l-101 -114h-59l-100 114v5zM77 716h237q45 0 84.5 -15.5t69 -43t46.5 -66t17 -84.5q0 -38 -13.5 -71.5t-37 -59.5t-55.5 -44.5t-69 -26.5l-2 -3l204 -298v-4h-73l-202 298h-142v-298h-64v716zM305 358q32 0 61 11t51.5 30.5t35.5 47
t13 60.5q0 31 -12 58.5t-32.5 47t-48.5 31t-61 11.5h-171v-297h164z" />
    <glyph glyph-name="Rcaron.alt" horiz-adv-x="548" 
d="M139 900h63l63 -72h8l62 72h64v-5l-101 -114h-59l-100 114v5zM309 716q45 0 84.5 -15.5t69 -43t46.5 -66t17 -84.5t-17 -84.5t-46.5 -66t-69.5 -43t-86 -15.5h-60l-2 -3l300 -291v-4h-87l-300 298h-22v-298h-64v716h237zM304 358q31 0 59 10.5t50 29.5t35 46.5t13 62.5
q0 31 -12 58.5t-32.5 47t-48.5 31t-61 11.5h-171v-297h168z" />
    <glyph glyph-name="rcaron" unicode="&#x159;" horiz-adv-x="335" 
d="M52 716h63l63 -72h8l62 72h64v-5l-101 -114h-59l-100 114v5zM60 0v490h60v-86h4q7 22 22.5 40.5t35 32t41 20.5t41.5 7q23 0 38 -3t29 -10l-20 -60q-20 10 -55 10q-26 0 -50 -12.5t-42 -34.5t-29 -52.5t-11 -66.5v-275h-64z" />
    <glyph glyph-name="rcaron.alt" horiz-adv-x="328" 
d="M49 716h63l63 -72h8l62 72h64v-5l-101 -114h-59l-100 114v5zM120 407h4q18 45 56 71t86 26q12 0 19.5 -0.5t16.5 -2.5v-64q-19 4 -42 4q-29 0 -54 -12.5t-43 -34.5t-28.5 -52.5t-10.5 -66.5v-275h-64v490h60v-83z" />
    <glyph glyph-name="Sacute" unicode="&#x15a;" horiz-adv-x="542" 
d="M233 776l52 124h73l-67 -124h-58zM270 -16q-39 0 -77 12.5t-71 37t-58.5 60.5t-37.5 83l60 25q9 -34 26.5 -63t41.5 -50t54 -32.5t64 -11.5q33 0 63 9.5t52.5 28t35.5 45t13 59.5q0 57 -42 92.5t-122 63.5l-45 16q-32 11 -63 26.5t-55.5 37.5t-39.5 52.5t-15 71.5
q0 37 15.5 71t43.5 59t67 40t85 15q49 0 86 -14.5t63.5 -36t42 -46.5t22.5 -46l-60 -25q-5 18 -16.5 36.5t-30.5 34.5t-45 26t-61 10q-30 0 -56.5 -9t-47 -25.5t-32 -39.5t-11.5 -50q0 -26 10.5 -45.5t29.5 -35t45 -28t57 -23.5l46 -17q40 -14 75.5 -32t61.5 -42.5
t41.5 -57.5t15.5 -76q0 -54 -21 -93t-54 -64t-74.5 -37t-81.5 -12z" />
    <glyph glyph-name="sacute" unicode="&#x15b;" horiz-adv-x="448" 
d="M191 592l52 124h73l-67 -124h-58zM231 -16q-40 0 -73.5 11.5t-59 31t-44 45t-28.5 53.5l57 24q20 -53 60.5 -80.5t87.5 -27.5q59 0 93 26t34 62q0 15 -5 28t-18 24.5t-35 21t-56 17.5l-68 16q-23 6 -47.5 15.5t-44.5 25t-32.5 37.5t-12.5 51q0 34 15.5 60t42 44
t60.5 27.5t70 9.5q31 0 60 -7.5t53.5 -21.5t43.5 -35.5t30 -49.5l-56 -23q-20 42 -54.5 61t-79.5 19q-22 0 -43.5 -5.5t-38.5 -16t-27.5 -26t-10.5 -34.5q0 -31 26.5 -48t74.5 -29l72 -18q75 -19 110.5 -54.5t35.5 -83.5q0 -31 -13.5 -58t-39 -47.5t-61 -32.5t-78.5 -12z
" />
    <glyph glyph-name="Scircumflex" unicode="&#x15c;" horiz-adv-x="542" 
d="M133 787l100 114h59l101 -114v-5h-64l-62 72h-8l-63 -72h-63v5zM270 -16q-39 0 -77 12.5t-71 37t-58.5 60.5t-37.5 83l60 25q9 -34 26.5 -63t41.5 -50t54 -32.5t64 -11.5q33 0 63 9.5t52.5 28t35.5 45t13 59.5q0 57 -42 92.5t-122 63.5l-45 16q-32 11 -63 26.5
t-55.5 37.5t-39.5 52.5t-15 71.5q0 37 15.5 71t43.5 59t67 40t85 15q49 0 86 -14.5t63.5 -36t42 -46.5t22.5 -46l-60 -25q-5 18 -16.5 36.5t-30.5 34.5t-45 26t-61 10q-30 0 -56.5 -9t-47 -25.5t-32 -39.5t-11.5 -50q0 -26 10.5 -45.5t29.5 -35t45 -28t57 -23.5l46 -17
q40 -14 75.5 -32t61.5 -42.5t41.5 -57.5t15.5 -76q0 -54 -21 -93t-54 -64t-74.5 -37t-81.5 -12z" />
    <glyph glyph-name="scircumflex" unicode="&#x15d;" horiz-adv-x="448" 
d="M98 602l100 114h59l101 -114v-5h-64l-62 72h-8l-63 -72h-63v5zM231 -16q-40 0 -73.5 11.5t-59 31t-44 45t-28.5 53.5l57 24q20 -53 60.5 -80.5t87.5 -27.5q59 0 93 26t34 62q0 15 -5 28t-18 24.5t-35 21t-56 17.5l-68 16q-23 6 -47.5 15.5t-44.5 25t-32.5 37.5t-12.5 51
q0 34 15.5 60t42 44t60.5 27.5t70 9.5q31 0 60 -7.5t53.5 -21.5t43.5 -35.5t30 -49.5l-56 -23q-20 42 -54.5 61t-79.5 19q-22 0 -43.5 -5.5t-38.5 -16t-27.5 -26t-10.5 -34.5q0 -31 26.5 -48t74.5 -29l72 -18q75 -19 110.5 -54.5t35.5 -83.5q0 -31 -13.5 -58t-39 -47.5
t-61 -32.5t-78.5 -12z" />
    <glyph glyph-name="uni015E" unicode="&#x15e;" horiz-adv-x="542" 
d="M283 -237q-33 0 -58 19.5t-35 47.5l42 18q6 -17 19 -29t32 -12q23 0 37 14.5t14 37.5q0 22 -13.5 37.5t-36.5 15.5q-26 0 -42 -21l-36 17l30 79q-35 5 -68 19.5t-61 38.5t-49 57t-32 75l60 25q9 -34 26.5 -63t41.5 -50t54 -32.5t64 -11.5q33 0 63 9.5t52.5 28t35.5 45
t13 59.5q0 57 -42 92.5t-122 63.5l-45 16q-32 11 -63 26.5t-55.5 37.5t-39.5 52.5t-15 71.5q0 37 15.5 71t43.5 59t67 40t85 15q49 0 86 -14.5t63.5 -36t42 -46.5t22.5 -46l-60 -25q-5 18 -16.5 36.5t-30.5 34.5t-45 26t-61 10q-30 0 -56.5 -9t-47 -25.5t-32 -39.5
t-11.5 -50q0 -26 10.5 -45.5t29.5 -35t45 -28t57 -23.5l46 -17q40 -14 75.5 -32t61.5 -42.5t41.5 -57.5t15.5 -76q0 -53 -20 -91t-51.5 -63t-71.5 -38t-79 -14l-17 -38q5 3 12.5 5.5t18.5 2.5q37 0 63.5 -26.5t26.5 -68.5q0 -20 -7.5 -37t-21 -30.5t-31.5 -21t-40 -7.5z" />
    <glyph glyph-name="uni015E.alt" horiz-adv-x="542" 
d="M270 -16q-39 0 -77 12.5t-71 37t-58.5 60.5t-37.5 83l60 25q9 -34 26.5 -63t41.5 -50t54 -32.5t64 -11.5q33 0 63 9.5t52.5 28t35.5 45t13 59.5q0 57 -42 92.5t-122 63.5l-45 16q-32 11 -63 26.5t-55.5 37.5t-39.5 52.5t-15 71.5q0 37 15.5 71t43.5 59t67 40t85 15
q49 0 86 -14.5t63.5 -36t42 -46.5t22.5 -46l-60 -25q-5 18 -16.5 36.5t-30.5 34.5t-45 26t-61 10q-30 0 -56.5 -9t-47 -25.5t-32 -39.5t-11.5 -50q0 -26 10.5 -45.5t29.5 -35t45 -28t57 -23.5l46 -17q40 -14 75.5 -32t61.5 -42.5t41.5 -57.5t15.5 -76q0 -54 -21 -93t-54 -64
t-74.5 -37t-81.5 -12zM192 -216l72 144h56l-58 -144h-70z" />
    <glyph glyph-name="uni015F" unicode="&#x15f;" horiz-adv-x="448" 
d="M247 -237q-33 0 -58 19.5t-35 47.5l42 18q6 -17 19 -29t32 -12q23 0 37 14.5t14 37.5q0 22 -13.5 37.5t-36.5 15.5q-26 0 -42 -21l-36 17l29 78q-67 9 -111 48.5t-62 90.5l57 24q20 -53 60.5 -80.5t87.5 -27.5q59 0 93 26t34 62q0 15 -5 28t-18 24.5t-35 21t-56 17.5
l-68 16q-23 6 -47.5 15.5t-44.5 25t-32.5 37.5t-12.5 51q0 34 15.5 60t42 44t60.5 27.5t70 9.5q31 0 60 -7.5t53.5 -21.5t43.5 -35.5t30 -49.5l-56 -23q-20 42 -54.5 61t-79.5 19q-22 0 -43.5 -5.5t-38.5 -16t-27.5 -26t-10.5 -34.5q0 -31 26.5 -48t74.5 -29l72 -18
q75 -19 110.5 -54.5t35.5 -83.5q0 -30 -13 -56.5t-36.5 -46.5t-56.5 -32.5t-74 -14.5l-17 -38q5 3 12.5 5.5t18.5 2.5q37 0 63.5 -26.5t26.5 -68.5q0 -20 -7.5 -37t-21 -30.5t-31.5 -21t-40 -7.5z" />
    <glyph glyph-name="uni015F.alt" horiz-adv-x="448" 
d="M231 -16q-40 0 -73.5 11.5t-59 31t-44 45t-28.5 53.5l57 24q20 -53 60.5 -80.5t87.5 -27.5q59 0 93 26t34 62q0 15 -5 28t-18 24.5t-35 21t-56 17.5l-68 16q-23 6 -47.5 15.5t-44.5 25t-32.5 37.5t-12.5 51q0 34 15.5 60t42 44t60.5 27.5t70 9.5q31 0 60 -7.5t53.5 -21.5
t43.5 -35.5t30 -49.5l-56 -23q-20 42 -54.5 61t-79.5 19q-22 0 -43.5 -5.5t-38.5 -16t-27.5 -26t-10.5 -34.5q0 -31 26.5 -48t74.5 -29l72 -18q75 -19 110.5 -54.5t35.5 -83.5q0 -31 -13.5 -58t-39 -47.5t-61 -32.5t-78.5 -12zM148 -216l72 144h56l-58 -144h-70z" />
    <glyph glyph-name="uni0162" unicode="&#x162;" horiz-adv-x="521" 
d="M281 -237q-34 0 -59 19.5t-35 47.5l42 18q5 -17 18.5 -29t33.5 -12q23 0 36.5 14.5t13.5 37.5q0 22 -13.5 37.5t-35.5 15.5q-14 0 -24.5 -5.5t-18.5 -15.5l-36 17l34 92h-8v655h-203v61h470v-61h-203v-655h-10l-24 -54q5 3 12.5 5.5t18.5 2.5q37 0 63.5 -26.5t26.5 -68.5
q0 -20 -7.5 -37t-20.5 -30.5t-31 -21t-40 -7.5z" />
    <glyph glyph-name="uni0163" unicode="&#x163;" horiz-adv-x="338" 
d="M115 432h-89v58h89v150h64v-150h122v-58h-122v-295q0 -43 21 -64q20 -22 48 -22q15 0 25.5 2.5t23.5 8.5l20 -55q-17 -8 -34.5 -11.5t-41.5 -3.5q-6 0 -11.5 0.5t-11.5 1.5l-22 -48q5 3 12.5 5.5t18.5 2.5q37 0 63.5 -26.5t26.5 -68.5q0 -20 -7.5 -37t-21 -30.5
t-31.5 -21t-40 -7.5q-33 0 -58 19.5t-35 47.5l42 18q6 -17 19 -29t32 -12q23 0 37 14.5t14 37.5q0 22 -13.5 37.5t-36.5 15.5q-26 0 -42 -21l-36 17l39 99q-13 6 -26 18q-18 17 -28 41.5t-10 59.5v306z" />
    <glyph glyph-name="uni0163.alt" horiz-adv-x="326" 
d="M176 0l-24 -54q5 3 12 5.5t18 2.5q38 0 64.5 -26.5t26.5 -68.5q0 -20 -7.5 -37t-21 -30.5t-31.5 -21t-40 -7.5q-33 0 -58 19.5t-35 47.5l42 18q6 -17 19 -29t32 -12q23 0 37 14.5t14 37.5q0 22 -14 37.5t-37 15.5q-25 0 -41 -21l-36 17l35 92v432h-105v58h105v150h64
v-150h106v-58h-106v-432h-19z" />
    <glyph glyph-name="Tcaron" unicode="&#x164;" horiz-adv-x="521" 
d="M132 900h63l63 -72h8l62 72h64v-5l-101 -114h-59l-100 114v5zM229 0v655h-203v61h470v-61h-203v-655h-64z" />
    <glyph glyph-name="tcaron" unicode="&#x165;" horiz-adv-x="337" 
d="M265 554v162h68l-28 -162h-40zM115 432h-89v58h89v150h64v-150h122v-58h-122v-295q0 -43 21 -64q20 -22 48 -22q15 0 25.5 2.5t23.5 8.5l20 -55q-17 -8 -34.5 -11.5t-41.5 -3.5q-52 0 -88 33q-18 17 -28 41.5t-10 59.5v306z" />
    <glyph glyph-name="tcaron.alt" horiz-adv-x="326" 
d="M261 554v162h68l-28 -162h-40zM131 0v432h-105v58h105v150h64v-150h106v-58h-106v-432h-64z" />
    <glyph glyph-name="Tbar" unicode="&#x166;" horiz-adv-x="521" 
d="M229 0v348h-137v52h137v255h-203v61h470v-61h-203v-255h135v-52h-135v-348h-64z" />
    <glyph glyph-name="tbar" unicode="&#x167;" horiz-adv-x="338" 
d="M115 235h-89v58h89v139h-89v58h89v150h64v-150h122v-58h-122v-139h122v-58h-122v-98q0 -43 21 -64q20 -22 48 -22q15 0 25.5 2.5t23.5 8.5l20 -55q-17 -8 -34.5 -11.5t-41.5 -3.5q-52 0 -88 33q-18 17 -28 41.5t-10 59.5v109z" />
    <glyph glyph-name="tbar.alt" horiz-adv-x="326" 
d="M131 0v235h-105v58h105v139h-105v58h105v150h64v-150h106v-58h-106v-139h106v-58h-106v-235h-64z" />
    <glyph glyph-name="Utilde" unicode="&#x168;" horiz-adv-x="635" 
d="M318 -16q-58 0 -105.5 20t-81.5 57t-52.5 88t-18.5 113v454h64v-458q0 -45 13 -84t37.5 -67.5t60.5 -45t83 -16.5q46 0 82 16.5t61 45t38 67.5t13 84v458h64v-454q0 -62 -17.5 -113t-51 -88t-81.5 -57t-108 -20zM381 786q-20 0 -37.5 8.5t-32.5 18.5t-29 18.5t-26 8.5
q-40 0 -46 -44h-54q0 26 9.5 45.5t23.5 32t32 18.5t35 6q20 0 37.5 -8.5t32.5 -17.5q15 -10 29 -18.5t26 -8.5q40 0 45 43h54q0 -26 -9.5 -45.5t-23.5 -32t-31.5 -18.5t-34.5 -6z" />
    <glyph glyph-name="utilde" unicode="&#x169;" horiz-adv-x="535" 
d="M416 92h-4q-12 -22 -29 -41.5t-39.5 -34.5t-50 -23.5t-58.5 -8.5q-45 0 -79 14.5t-56 41t-33 63t-11 80.5v307h64v-296q0 -78 34.5 -115t97.5 -37q35 0 64.5 16t50.5 42t33 60.5t12 71.5v258h64v-490h-60v92zM335 602q-20 0 -37.5 8.5t-32.5 18.5t-29 18.5t-26 8.5
q-40 0 -46 -44h-54q0 26 9.5 45.5t23.5 32t32 18.5t35 6q20 0 37.5 -8.5t32.5 -17.5q15 -10 29 -18.5t26 -8.5q40 0 45 43h54q0 -26 -9.5 -45.5t-23.5 -32t-31.5 -18.5t-34.5 -6z" />
    <glyph glyph-name="Umacron" unicode="&#x16a;" horiz-adv-x="635" 
d="M318 -16q-58 0 -105.5 20t-81.5 57t-52.5 88t-18.5 113v454h64v-458q0 -45 13 -84t37.5 -67.5t60.5 -45t83 -16.5q46 0 82 16.5t61 45t38 67.5t13 84v458h64v-454q0 -62 -17.5 -113t-51 -88t-81.5 -57t-108 -20zM184 817v52h268v-52h-268z" />
    <glyph glyph-name="umacron" unicode="&#x16b;" horiz-adv-x="535" 
d="M416 92h-4q-12 -22 -29 -41.5t-39.5 -34.5t-50 -23.5t-58.5 -8.5q-45 0 -79 14.5t-56 41t-33 63t-11 80.5v307h64v-296q0 -78 34.5 -115t97.5 -37q35 0 64.5 16t50.5 42t33 60.5t12 71.5v258h64v-490h-60v92zM134 633v52h268v-52h-268z" />
    <glyph glyph-name="Ubreve" unicode="&#x16c;" horiz-adv-x="635" 
d="M318 -16q-58 0 -105.5 20t-81.5 57t-52.5 88t-18.5 113v454h64v-458q0 -45 13 -84t37.5 -67.5t60.5 -45t83 -16.5q46 0 82 16.5t61 45t38 67.5t13 84v458h64v-454q0 -62 -17.5 -113t-51 -88t-81.5 -57t-108 -20zM319 776q-24 0 -46 9t-39.5 25t-27.5 38t-10 48h55
q0 -27 18 -48t50 -21q31 0 49.5 21t18.5 48h53q0 -26 -10 -48t-26.5 -38t-38.5 -25t-46 -9z" />
    <glyph glyph-name="ubreve" unicode="&#x16d;" horiz-adv-x="535" 
d="M416 92h-4q-12 -22 -29 -41.5t-39.5 -34.5t-50 -23.5t-58.5 -8.5q-45 0 -79 14.5t-56 41t-33 63t-11 80.5v307h64v-296q0 -78 34.5 -115t97.5 -37q35 0 64.5 16t50.5 42t33 60.5t12 71.5v258h64v-490h-60v92zM269 577q-24 0 -46 9t-39.5 25t-27.5 38t-10 48h55
q0 -27 18 -48t50 -21q31 0 49.5 21t18.5 48h53q0 -26 -10 -48t-26.5 -38t-38.5 -25t-46 -9z" />
    <glyph glyph-name="Uring" unicode="&#x16e;" horiz-adv-x="635" 
d="M318 754q-21 0 -40 8t-32.5 22t-21.5 32.5t-8 39.5q0 43 29.5 72.5t72.5 29.5q21 0 39.5 -8t32.5 -21.5t22 -32.5t8 -40t-8 -39.5t-22 -32.5t-32.5 -22t-39.5 -8zM318 800q23 0 39 16t16 40t-16 40t-39 16t-39 -16t-16 -40t16 -40t39 -16zM318 -16q-58 0 -105.5 20
t-81.5 57t-52.5 88t-18.5 113v454h64v-458q0 -45 13 -84t37.5 -67.5t60.5 -45t83 -16.5q46 0 82 16.5t61 45t38 67.5t13 84v458h64v-454q0 -62 -17.5 -113t-51 -88t-81.5 -57t-108 -20z" />
    <glyph glyph-name="uring" unicode="&#x16f;" horiz-adv-x="535" 
d="M268 570q-21 0 -40 8t-32.5 22t-21.5 32.5t-8 39.5q0 43 29.5 72.5t72.5 29.5q21 0 39.5 -8t32.5 -21.5t22 -32.5t8 -40t-8 -39.5t-22 -32.5t-32.5 -22t-39.5 -8zM268 616q23 0 39 16t16 40t-16 40t-39 16t-39 -16t-16 -40t16 -40t39 -16zM416 92h-4q-12 -22 -29 -41.5
t-39.5 -34.5t-50 -23.5t-58.5 -8.5q-45 0 -79 14.5t-56 41t-33 63t-11 80.5v307h64v-296q0 -78 34.5 -115t97.5 -37q35 0 64.5 16t50.5 42t33 60.5t12 71.5v258h64v-490h-60v92z" />
    <glyph glyph-name="Uhungarumlaut" unicode="&#x170;" horiz-adv-x="635" 
d="M318 -16q-58 0 -105.5 20t-81.5 57t-52.5 88t-18.5 113v454h64v-458q0 -45 13 -84t37.5 -67.5t60.5 -45t83 -16.5q46 0 82 16.5t61 45t38 67.5t13 84v458h64v-454q0 -62 -17.5 -113t-51 -88t-81.5 -57t-108 -20zM211 776l52 124h73l-67 -124h-58zM355 776l52 124h73
l-67 -124h-58z" />
    <glyph glyph-name="uhungarumlaut" unicode="&#x171;" horiz-adv-x="535" 
d="M165 592l52 124h73l-67 -124h-58zM308 592l52 124h73l-67 -124h-58zM416 92h-4q-12 -22 -29 -41.5t-39.5 -34.5t-50 -23.5t-58.5 -8.5q-45 0 -79 14.5t-56 41t-33 63t-11 80.5v307h64v-296q0 -78 34.5 -115t97.5 -37q35 0 64.5 16t50.5 42t33 60.5t12 71.5v258h64v-490
h-60v92z" />
    <glyph glyph-name="Uogonek" unicode="&#x172;" horiz-adv-x="635" 
d="M318 -16q-58 0 -105.5 20t-81.5 57t-52.5 88t-18.5 113v454h64v-458q0 -45 13 -84t37.5 -67.5t60.5 -45t83 -16.5q46 0 82 16.5t61 45t38 67.5t13 84v458h64v-454q0 -161 -112 -237q-17 -12 -36 -28t-35.5 -34t-27 -36t-10.5 -34q0 -29 17.5 -46t41.5 -17q20 0 34 7
l20 -49q-13 -6 -26 -9t-32 -3q-53 0 -83.5 32t-30.5 78q0 33 17 58.5t38 41.5q-8 -2 -16 -2h-17z" />
    <glyph glyph-name="uogonek" unicode="&#x173;" horiz-adv-x="535" 
d="M457 -224q-54 0 -84 32t-30 78q0 20 6.5 37.5t17 32t23.5 25.5t26 19v92h-4q-12 -22 -29 -41.5t-39.5 -34.5t-50 -23.5t-58.5 -8.5q-45 0 -79 14.5t-56 41t-33 63t-11 80.5v307h64v-296q0 -78 34.5 -115t97.5 -37q35 0 64.5 16t50.5 42t33 60.5t12 71.5v258h64v-490
q-33 -24 -53.5 -49.5t-20.5 -57.5q0 -29 17 -46t42 -17q19 0 34 7l20 -49q-13 -6 -26 -9t-32 -3z" />
    <glyph glyph-name="Wcircumflex" unicode="&#x174;" horiz-adv-x="908" 
d="M329 786l100 114h59l101 -114v-5h-64l-62 72h-8l-63 -72h-63v5zM694 0h-67l-167 520h-4l-167 -520h-67l-205 716h67l171 -609h4l167 513h64l167 -513h4l163 609h67z" />
    <glyph glyph-name="Wcircumflex.alt" horiz-adv-x="932" 
d="M341 786l100 114h59l101 -114v-5h-64l-62 72h-8l-63 -72h-63v5zM722 0h-69l-181 611h-4l-184 -611h-68l-199 716h70l162 -609h4l183 609h69l180 -609h4l156 609h70z" />
    <glyph glyph-name="wcircumflex" unicode="&#x175;" horiz-adv-x="732" 
d="M236 602l100 114h59l101 -114v-5h-64l-62 72h-8l-63 -72h-63v5zM504 0l-139 414l-137 -414h-62l-162 490h65l129 -403h1l134 403h68l135 -401h1l128 401h63l-162 -490h-62z" />
    <glyph glyph-name="Ycircumflex" unicode="&#x176;" horiz-adv-x="579" 
d="M260 0v324l-247 392h75l202 -326h4l198 326h75l-243 -392v-324h-64zM162 786l100 114h59l101 -114v-5h-64l-62 72h-8l-63 -72h-63v5z" />
    <glyph glyph-name="ycircumflex" unicode="&#x177;" horiz-adv-x="478" 
d="M98 -216l113 252l-206 454h71l166 -378h2l159 378h70l-309 -706h-66zM112 602l100 114h59l101 -114v-5h-64l-62 72h-8l-63 -72h-63v5z" />
    <glyph glyph-name="ycircumflex.alt" horiz-adv-x="481" 
d="M113 602l100 114h59l101 -114v-5h-64l-62 72h-8l-63 -72h-63v5zM26 -155q11 -6 24 -10t28 -3q24 0 41 13.5t31 44.5l64 146l-206 454h71l166 -378h2l159 378h70l-269 -615q-22 -52 -53.5 -76.5t-77.5 -24.5q-20 0 -36.5 4t-30.5 10z" />
    <glyph glyph-name="Zacute" unicode="&#x179;" horiz-adv-x="553" 
d="M243 776l52 124h73l-67 -124h-58zM34 69l400 586h-384v61h456v-69l-400 -586h404v-61h-476v69z" />
    <glyph glyph-name="zacute" unicode="&#x17a;" horiz-adv-x="450" 
d="M204 592l52 124h73l-67 -124h-58zM34 54l300 378h-292v58h370v-54l-300 -378h304v-58h-382v54z" />
    <glyph glyph-name="Zdotaccent" unicode="&#x17b;" horiz-adv-x="553" 
d="M280 814q-17 0 -29.5 12.5t-12.5 29.5q0 18 12.5 30t29.5 12q18 0 30 -12t12 -30q0 -17 -12 -29.5t-30 -12.5zM34 69l400 586h-384v61h456v-69l-400 -586h404v-61h-476v69z" />
    <glyph glyph-name="zdotaccent" unicode="&#x17c;" horiz-adv-x="450" 
d="M34 54l300 378h-292v58h370v-54l-300 -378h304v-58h-382v54zM232 615q-18 0 -31.5 13t-13.5 31q0 20 13.5 32.5t31.5 12.5q19 0 31.5 -12.5t12.5 -32.5q0 -18 -12.5 -31t-31.5 -13z" />
    <glyph glyph-name="uni0192.tf" 
d="M135 -220q-20 0 -35.5 4.5t-29.5 11.5l17 55q21 -13 51 -13q31 0 50.5 21.5t27.5 60.5l81 415h-111v58h122l39 195q12 60 52.5 96t102.5 36q22 0 38.5 -3.5t30.5 -10.5l-22 -55q-19 11 -49 11q-35 0 -59.5 -20t-32.5 -64l-36 -185h138v-58h-149l-85 -425q-11 -58 -46 -94
t-95 -36z" />
    <glyph glyph-name="Aringacute" unicode="&#x1fa;" horiz-adv-x="653" 
d="M272 670q-21 14 -34 36.5t-13 49.5q0 36 21.5 63.5t56.5 35.5l33 77h69l-42 -80q29 -11 47.5 -37t18.5 -59q0 -27 -13 -49.5t-34 -36.5l259 -670h-70l-78 207h-332l-78 -207h-70zM470 267l-141 371h-4l-141 -371h286zM327 702q22 0 37.5 15.5t15.5 38.5t-15.5 38.5
t-37.5 15.5t-37.5 -15.5t-15.5 -38.5t15.5 -38.5t37.5 -15.5z" />
    <glyph glyph-name="aringacute" unicode="&#x1fb;" horiz-adv-x="506" 
d="M224 794l43 106h74l-60 -106h-57zM393 87h-4q-25 -43 -69.5 -73t-103.5 -30q-40 0 -74 12.5t-59 34t-39 51.5t-14 65q0 40 16.5 71t45 52t66 31.5t79.5 10.5q50 0 90 -11.5t66 -26.5v30q0 33 -12 60t-32 46t-47.5 29t-57.5 10q-45 0 -80 -19.5t-58 -56.5l-56 35
q29 45 79 71.5t113 26.5q49 0 88 -14.5t67 -41t43 -63t15 -81.5v-306h-62v87zM393 218q-30 18 -65.5 29.5t-80.5 11.5q-33 0 -60.5 -8t-48 -22.5t-32 -35.5t-11.5 -47q0 -24 10.5 -43.5t28.5 -33t40.5 -21t46.5 -7.5q33 0 64 14t55 38.5t38.5 56.5t14.5 68zM255 570
q-21 0 -40 8t-32.5 22t-21.5 32.5t-8 39.5q0 43 29.5 72.5t72.5 29.5q21 0 39.5 -8t32.5 -21.5t22 -32.5t8 -40t-8 -39.5t-22 -32.5t-32.5 -22t-39.5 -8zM255 616q23 0 39 16t16 40t-16 40t-39 16t-39 -16t-16 -40t16 -40t39 -16z" />
    <glyph glyph-name="aringacute.alt" horiz-adv-x="565" 
d="M246 794l43 106h74l-60 -106h-57zM276 570q-21 0 -40 8t-32.5 22t-21.5 32.5t-8 39.5q0 43 29.5 72.5t72.5 29.5q21 0 39.5 -8t32.5 -21.5t22 -32.5t8 -40t-8 -39.5t-22 -32.5t-32.5 -22t-39.5 -8zM276 616q23 0 39 16t16 40t-16 40t-39 16t-39 -16t-16 -40t16 -40
t39 -16zM261 -16q-47 0 -89 19.5t-73.5 54t-50 82.5t-18.5 105t18.5 105t50 82.5t73.5 54t89 19.5q70 0 116 -30t69 -71h4v85h60v-490h-60v86h-4q-12 -20 -29 -38.5t-40 -32.5t-52 -22.5t-64 -8.5zM272 42q35 0 67.5 13.5t57 40t39 64t14.5 85.5t-14.5 86t-39 64t-57 39.5
t-67.5 13.5t-67.5 -14t-57 -40.5t-39 -64t-14.5 -84.5t14.5 -85t39 -64t57 -40t67.5 -14z" />
    <glyph glyph-name="AEacute" unicode="&#x1fc;" horiz-adv-x="936" 
d="M626 776l52 124h73l-67 -124h-58zM4 0l433 716h444v-61h-340v-267h308v-60h-308v-267h340v-61h-404v207h-274l-125 -207h-74zM239 267h238v388h-4z" />
    <glyph glyph-name="aeacute" unicode="&#x1fd;" horiz-adv-x="893" 
d="M410 592l52 124h73l-67 -124h-58zM639 -16q-75 0 -131 37.5t-84 101.5q-29 -65 -84 -102t-124 -37q-40 0 -74 12.5t-59 34t-39 51.5t-14 65q0 40 16.5 71t45 52t66 31.5t79.5 10.5q50 0 91 -11.5t67 -26.5v30q0 33 -11.5 60t-32 46t-47 29t-56.5 10q-46 0 -81.5 -21
t-53.5 -58l-58 29q24 48 73 77.5t118 29.5t118 -31.5t72 -83.5q30 51 80 83t117 32q53 0 95.5 -18.5t72.5 -52t46.5 -80.5t16.5 -104v-6q-1 -3 -1 -5v-6h-404q1 -51 18 -87t43.5 -59.5t58.5 -34.5t62 -11q62 0 98 28.5t60 72.5l55 -27q-13 -27 -33 -51t-46.5 -42
t-60.5 -28.5t-75 -10.5zM221 41q33 0 64 14.5t55.5 38.5t39.5 56t15 68q-20 11 -57 26t-91 15q-33 0 -60.5 -8t-48 -22.5t-32 -35.5t-11.5 -47q0 -24 10.5 -43.5t28.5 -33t40.5 -21t46.5 -7.5zM797 288q-1 24 -10 52t-28 52t-50.5 40t-77.5 16q-30 0 -58 -10.5t-51 -30.5
t-38.5 -50t-20.5 -69h334z" />
    <glyph glyph-name="aeacute.alt" horiz-adv-x="944" 
d="M453 592l52 124h73l-67 -124h-58zM919 251v-6q-1 -3 -1 -5v-6h-406q1 -50 18 -86t43 -59.5t58.5 -35t64.5 -11.5q62 0 98 28.5t60 72.5l55 -27q-13 -27 -33 -51t-46.5 -42t-60.5 -28.5t-74 -10.5q-61 0 -109 28.5t-74 73.5h-4v-86h-58v86h-4q-12 -20 -29 -38.5t-40 -32.5
t-52 -22.5t-64 -8.5q-47 0 -89 19.5t-73.5 54t-50 82.5t-18.5 105t18.5 105t50 82.5t73.5 54t89 19.5q70 0 116 -30t69 -71h4v85h58v-85h4q23 45 71 73t109 28q49 0 90.5 -18t72 -51t47.5 -80t17 -106zM272 42q35 0 67.5 13.5t57 40t39 64t14.5 85.5t-14.5 86t-39 64
t-57 39.5t-67.5 13.5t-67.5 -14t-57 -40.5t-39 -64t-14.5 -84.5t14.5 -85t39 -64t57 -40t67.5 -14zM852 288q-1 24 -10 52t-28 52t-50.5 40t-77.5 16q-30 0 -58 -10t-51.5 -30.5t-39.5 -50.5t-22 -69h337z" />
    <glyph glyph-name="Oslashacute" unicode="&#x1fe;" horiz-adv-x="809" 
d="M151 -3l36 58q-69 51 -108 130t-39 173q0 77 27.5 145t76 119t115.5 80.5t146 29.5q48 0 93 -11.5t83 -32.5l38 61l47 -30l-39 -62q66 -52 104.5 -129.5t38.5 -169.5q0 -77 -27.5 -145t-76.5 -119t-116 -80.5t-145 -29.5q-48 0 -90.5 11t-80.5 31l-36 -58zM105 358
q0 -80 31 -144t84 -106l328 527q-32 17 -68.5 26.5t-74.5 9.5q-62 0 -116.5 -23t-95.5 -64.5t-64.5 -99t-23.5 -126.5zM405 45q61 0 116 23t95.5 64.5t64.5 99t24 126.5q0 78 -30 141t-81 105l-327 -526q32 -16 66 -24.5t72 -8.5zM377 776l52 124h73l-67 -124h-58z" />
    <glyph glyph-name="oslashacute" unicode="&#x1ff;" horiz-adv-x="554" 
d="M277 506q33 0 63.5 -8t56.5 -22l28 45l44 -27l-30 -48q41 -35 63.5 -86.5t22.5 -114.5q0 -56 -18.5 -103.5t-51.5 -82.5t-78.5 -55t-99.5 -20q-30 0 -58 7t-52 18l-24 -38l-45 25l26 41q-45 35 -69.5 88.5t-24.5 119.5q0 56 18.5 103.5t51.5 82.5t78.5 55t98.5 20z
M94 245q0 -50 17 -88.5t46 -65.5l208 333q-20 11 -42.5 17.5t-45.5 6.5q-36 0 -69 -14.5t-58.5 -41t-40.5 -64t-15 -83.5zM277 42q36 0 69 14.5t58.5 41t41 64t15.5 83.5t-15 83.5t-41 63.5l-206 -331q35 -19 78 -19zM246 592l52 124h73l-67 -124h-58z" />
    <glyph glyph-name="uni0218" unicode="&#x218;" horiz-adv-x="542" 
d="M227 -201l42 63q-14 4 -23 16t-9 27q0 18 13 32.5t34 14.5t34 -14t13 -34q0 -11 -3 -19t-8 -17l-61 -91zM270 -16q-39 0 -77 12.5t-71 37t-58.5 60.5t-37.5 83l60 25q9 -34 26.5 -63t41.5 -50t54 -32.5t64 -11.5q33 0 63 9.5t52.5 28t35.5 45t13 59.5q0 57 -42 92.5
t-122 63.5l-45 16q-32 11 -63 26.5t-55.5 37.5t-39.5 52.5t-15 71.5q0 37 15.5 71t43.5 59t67 40t85 15q49 0 86 -14.5t63.5 -36t42 -46.5t22.5 -46l-60 -25q-5 18 -16.5 36.5t-30.5 34.5t-45 26t-61 10q-30 0 -56.5 -9t-47 -25.5t-32 -39.5t-11.5 -50q0 -26 10.5 -45.5
t29.5 -35t45 -28t57 -23.5l46 -17q40 -14 75.5 -32t61.5 -42.5t41.5 -57.5t15.5 -76q0 -54 -21 -93t-54 -64t-74.5 -37t-81.5 -12z" />
    <glyph glyph-name="uni0219" unicode="&#x219;" horiz-adv-x="448" 
d="M179 -201l42 63q-14 4 -23 16t-9 27q0 18 13 32.5t34 14.5t34 -14t13 -34q0 -11 -3 -19t-8 -17l-61 -91zM231 -16q-40 0 -73.5 11.5t-59 31t-44 45t-28.5 53.5l57 24q20 -53 60.5 -80.5t87.5 -27.5q59 0 93 26t34 62q0 15 -5 28t-18 24.5t-35 21t-56 17.5l-68 16
q-23 6 -47.5 15.5t-44.5 25t-32.5 37.5t-12.5 51q0 34 15.5 60t42 44t60.5 27.5t70 9.5q31 0 60 -7.5t53.5 -21.5t43.5 -35.5t30 -49.5l-56 -23q-20 42 -54.5 61t-79.5 19q-22 0 -43.5 -5.5t-38.5 -16t-27.5 -26t-10.5 -34.5q0 -31 26.5 -48t74.5 -29l72 -18
q75 -19 110.5 -54.5t35.5 -83.5q0 -31 -13.5 -58t-39 -47.5t-61 -32.5t-78.5 -12z" />
    <glyph glyph-name="uni021A" unicode="&#x21a;" horiz-adv-x="521" 
d="M204 -201l42 63q-14 4 -23 16t-9 27q0 18 13 32.5t34 14.5t34 -14t13 -34q0 -11 -3 -19t-8 -17l-61 -91zM229 0v655h-203v61h470v-61h-203v-655h-64z" />
    <glyph glyph-name="uni021B" unicode="&#x21b;" horiz-adv-x="338" 
d="M158 -201l42 63q-14 4 -23 16t-9 27q0 18 13 32.5t34 14.5t34 -14t13 -34q0 -11 -3 -19t-8 -17l-61 -91zM115 432h-89v58h89v150h64v-150h122v-58h-122v-295q0 -43 21 -64q20 -22 48 -22q15 0 25.5 2.5t23.5 8.5l20 -55q-17 -8 -34.5 -11.5t-41.5 -3.5q-52 0 -88 33
q-18 17 -28 41.5t-10 59.5v306z" />
    <glyph glyph-name="uni0237" unicode="&#x237;" horiz-adv-x="195" 
d="M7 -226q-28 0 -50 10l17 55q13 -7 31 -7q32 0 46.5 21t14.5 59v578h64v-579q0 -67 -32 -102t-91 -35z" />
    <glyph glyph-name="uni0259" unicode="&#x259;" horiz-adv-x="529" 
d="M35.9961 373.954q12.998 26.9971 32.9951 50.9941q19.998 23.9971 46.4951 41.9951q26.4961 17.9971 60.4922 28.4961t74.9912 10.499q52.9932 0 97.9873 -19.498q44.9951 -19.4971 77.4912 -54.4932t50.4932 -82.4902q17.998 -47.4941 17.998 -104.487
q0 -52.9932 -16.498 -100.487t-47.4941 -82.9902q-30.9961 -35.4951 -74.9902 -56.4932q-43.9951 -20.9971 -98.9883 -20.9971q-52.9941 0 -95.4883 18.498q-42.4951 18.4971 -72.4912 51.9932t-46.4941 80.4902t-16.498 103.987v5.99902q1 3 1 5v5.99902h402.95
q-1 50.9941 -17.998 86.9893q-16.9971 35.9961 -42.9941 59.4932t-57.9932 34.4951q-31.9961 10.999 -61.9922 10.999q-61.9922 0 -97.9883 -28.4961q-35.9951 -28.4971 -59.9922 -72.4912zM92.9883 201.976q1 -23.9971 9.99902 -51.9941q8.99902 -27.9961 27.9971 -51.9932
q18.9971 -23.9971 50.4932 -39.9951t77.4912 -15.998q29.9961 0 57.9922 10.498q27.9971 10.499 50.4941 30.4971q22.4971 19.9971 37.9951 49.9932q15.498 29.9971 20.498 68.9922h-332.96z" />
    <glyph glyph-name="uni02BC" unicode="&#x2bc;" horiz-adv-x="216" 
d="M51 565l50 69q-16 4 -27.5 16t-11.5 31q0 22 14.5 36.5t36.5 14.5t37 -14.5t15 -36.5q0 -14 -6 -26t-14 -24l-61 -88z" />
    <glyph glyph-name="uni02BC.alt" horiz-adv-x="250" 
d="M126 716h81l-109 -205h-55z" />
    <glyph glyph-name="circumflex.cap" horiz-adv-x="381" 
d="M61 786l100 114h59l101 -114v-5h-64l-62 72h-8l-63 -72h-63v5z" />
    <glyph glyph-name="caron.cap" horiz-adv-x="381" 
d="M61 900h63l63 -72h8l62 72h64v-5l-101 -114h-59l-100 114v5z" />
    <glyph glyph-name="caron.alt" horiz-adv-x="389" 
d="M161 513v203h68l-25 -203h-43z" />
    <glyph glyph-name="breve.cap" horiz-adv-x="398" 
d="M202 776q-24 0 -46 9t-39.5 25t-27.5 38t-10 48h55q0 -27 18 -48t50 -21q31 0 49.5 21t18.5 48h53q0 -26 -10 -48t-26.5 -38t-38.5 -25t-46 -9z" />
    <glyph glyph-name="dotaccent.cap" horiz-adv-x="220" 
d="M110 814q-17 0 -29.5 12.5t-12.5 29.5q0 18 12.5 30t29.5 12q18 0 30 -12t12 -30q0 -17 -12 -29.5t-30 -12.5z" />
    <glyph glyph-name="ring.cap" horiz-adv-x="409" 
d="M205 754q-21 0 -40 8t-32.5 22t-21.5 32.5t-8 39.5q0 43 29.5 72.5t72.5 29.5q21 0 39.5 -8t32.5 -21.5t22 -32.5t8 -40t-8 -39.5t-22 -32.5t-32.5 -22t-39.5 -8zM205 800q23 0 39 16t16 40t-16 40t-39 16t-39 -16t-16 -40t16 -40t39 -16z" />
    <glyph glyph-name="tilde.cap" horiz-adv-x="392" 
d="M259 786q-20 0 -37.5 8.5t-32.5 18.5t-29 18.5t-26 8.5q-40 0 -46 -44h-54q0 26 9.5 45.5t23.5 32t32 18.5t35 6q20 0 37.5 -8.5t32.5 -17.5q15 -10 29 -18.5t26 -8.5q40 0 45 43h54q0 -26 -9.5 -45.5t-23.5 -32t-31.5 -18.5t-34.5 -6z" />
    <glyph glyph-name="hungarumlaut.cap" horiz-adv-x="357" 
d="M78 776l52 124h73l-67 -124h-58zM221 776l52 124h73l-67 -124h-58z" />
    <glyph glyph-name="uni0374" unicode="&#x374;" horiz-adv-x="250" 
d="M126 716h81l-107 -205h-57z" />
    <glyph glyph-name="uni0375" unicode="&#x375;" horiz-adv-x="250" 
d="M124 -83h-81l107 205h57z" />
    <glyph glyph-name="uni037E" unicode="&#x37e;" horiz-adv-x="203" 
d="M101 393q-22 0 -37 15t-15 37t15 36.5t37 14.5t36.5 -14.5t14.5 -36.5t-14.5 -37t-36.5 -15zM34 -72l51 81q-14 3 -25 15.5t-11 30.5q0 22 15 37t37 15t36.5 -15t14.5 -37q0 -14 -5.5 -25t-13.5 -24l-66 -100z" />
    <glyph glyph-name="tonos" unicode="&#x384;" horiz-adv-x="390" 
d="M188 716h74l-69 -124h-55z" />
    <glyph glyph-name="dieresistonos" unicode="&#x385;" horiz-adv-x="372" 
d="M76 617q-17 0 -29.5 12.5t-12.5 29.5q0 18 12.5 30t29.5 12q18 0 30 -12t12 -30q0 -17 -12 -29.5t-30 -12.5zM161 732h50v-144h-50v144zM296 617q-17 0 -29.5 12.5t-12.5 29.5q0 18 12.5 30t29.5 12q18 0 30 -12t12 -30q0 -17 -12 -29.5t-30 -12.5z" />
    <glyph glyph-name="dieresistonos.alt" horiz-adv-x="379" 
d="M74 620q-17 0 -28.5 11.5t-11.5 28.5t11.5 28.5t28.5 11.5t28.5 -11.5t11.5 -28.5t-11.5 -28.5t-28.5 -11.5zM149 592l26 124h62l-43 -124h-45zM305 620q-17 0 -28.5 11.5t-11.5 28.5t11.5 28.5t28.5 11.5t28.5 -11.5t11.5 -28.5t-11.5 -28.5t-28.5 -11.5z" />
    <glyph glyph-name="Alphatonos" unicode="&#x386;" horiz-adv-x="653" 
d="M290 716h74l277 -716h-70l-78 207h-332l-78 -207h-70zM470 267l-141 371h-4l-141 -371h286zM59 592l52 124h73l-67 -124h-58z" />
    <glyph glyph-name="anoteleia" unicode="&#x387;" horiz-adv-x="145" 
d="M73 273q-22 0 -37 14.5t-15 36.5t15 37t37 15t36.5 -15t14.5 -37t-14.5 -36.5t-36.5 -14.5z" />
    <glyph glyph-name="Epsilontonos" unicode="&#x388;" horiz-adv-x="577" 
d="M-73 592l52 124h73l-67 -124h-58zM182 655v-267h308v-60h-308v-267h340v-61h-404v716h404v-61h-340z" />
    <glyph glyph-name="Etatonos" unicode="&#x389;" horiz-adv-x="723" 
d="M118 716h64v-320h400v320h64v-716h-64v336h-400v-336h-64v716zM-73 592l52 124h73l-67 -124h-58z" />
    <glyph glyph-name="Iotatonos" unicode="&#x38a;" horiz-adv-x="259" 
d="M118 716h64v-716h-64v716zM-73 592l52 124h73l-67 -124h-58z" />
    <glyph glyph-name="Omicrontonos" unicode="&#x38c;" horiz-adv-x="760" 
d="M-73 592l52 124h73l-67 -124h-58zM357 -16q-79 0 -146 29.5t-115.5 80.5t-76 119t-27.5 145t27.5 145t76 119t115.5 80.5t146 29.5q78 0 145 -29.5t116 -80.5t76.5 -119t27.5 -145t-27.5 -145t-76.5 -119t-116 -80.5t-145 -29.5zM357 45q61 0 116 23t95.5 64.5t64.5 99
t24 126.5t-24 126.5t-64.5 99t-95.5 64.5t-116 23q-62 0 -116.5 -23t-95.5 -64.5t-64.5 -99t-23.5 -126.5t23.5 -126.5t64.5 -99t95.5 -64.5t116.5 -23z" />
    <glyph glyph-name="Upsilontonos" unicode="&#x38e;" horiz-adv-x="656" 
d="M337 0v324l-247 392h75l202 -326h4l198 326h75l-243 -392v-324h-64zM-73 592l52 124h73l-67 -124h-58z" />
    <glyph glyph-name="Omegatonos" unicode="&#x38f;" horiz-adv-x="738" 
d="M408 0v97q45 12 85.5 38.5t70.5 64t47.5 85t17.5 102.5q0 59 -21.5 110.5t-59.5 90t-89 61t-110 22.5t-110 -22.5t-89 -61t-59.5 -90t-21.5 -110.5q0 -55 17.5 -102.5t47.5 -85t70.5 -64t85.5 -38.5v-97h-271v61h195v4q-104 49 -157 134t-53 189q0 68 26 130.5t71.5 110
t109 75.5t138.5 28t138.5 -28t109 -75.5t71.5 -110t26 -130.5q0 -104 -53.5 -189t-156.5 -134v-4h195v-61h-271zM-73 592l52 124h73l-67 -124h-58z" />
    <glyph glyph-name="iotadieresistonos" unicode="&#x390;" horiz-adv-x="195" 
d="M-12 617q-17 0 -29.5 12.5t-12.5 29.5q0 18 12.5 30t29.5 12q18 0 30 -12t12 -30q0 -17 -12 -29.5t-30 -12.5zM73 732h50v-144h-50v144zM208 617q-17 0 -29.5 12.5t-12.5 29.5q0 18 12.5 30t29.5 12q18 0 30 -12t12 -30q0 -17 -12 -29.5t-30 -12.5zM66 0v490h64v-490h-64
z" />
    <glyph glyph-name="iotadieresistonos.alt" horiz-adv-x="195" 
d="M-15 620q-17 0 -28.5 11.5t-11.5 28.5t11.5 28.5t28.5 11.5t28.5 -11.5t11.5 -28.5t-11.5 -28.5t-28.5 -11.5zM60 592l26 124h62l-43 -124h-45zM216 620q-17 0 -28.5 11.5t-11.5 28.5t11.5 28.5t28.5 11.5t28.5 -11.5t11.5 -28.5t-11.5 -28.5t-28.5 -11.5zM66 0v490h64
v-490h-64z" />
    <glyph glyph-name="Alpha" unicode="&#x391;" horiz-adv-x="653" 
d="M290 716h74l277 -716h-70l-78 207h-332l-78 -207h-70zM470 267l-141 371h-4l-141 -371h286z" />
    <glyph glyph-name="Beta" unicode="&#x392;" horiz-adv-x="587" 
d="M77 716h253q40 0 76 -14t63.5 -39t43.5 -59.5t16 -75.5q0 -54 -28 -94t-74 -62v-4q55 -17 90.5 -62.5t35.5 -105.5q0 -44 -17 -81t-45.5 -63.5t-67 -41t-80.5 -14.5h-266v716zM329 396q31 0 56 11t43 29t27.5 41.5t9.5 48.5t-9.5 48t-27 41t-41.5 29t-54 11h-192v-259
h188zM350 61q29 0 54 11t44 30t29.5 44t10.5 53t-11 52.5t-30 43.5t-45 30t-56 11h-205v-275h209z" />
    <glyph glyph-name="Gamma" unicode="&#x393;" horiz-adv-x="491" 
d="M77 716h388v-61h-324v-655h-64v716z" />
    <glyph glyph-name="uni0394" unicode="&#x394;" horiz-adv-x="637" 
d="M282 716h74l269 -716h-612zM105 61h427l-211 577h-4z" />
    <glyph glyph-name="Epsilon" unicode="&#x395;" horiz-adv-x="537" 
d="M141 655v-267h308v-60h-308v-267h340v-61h-404v716h404v-61h-340z" />
    <glyph glyph-name="Zeta" unicode="&#x396;" horiz-adv-x="553" 
d="M34 69l400 586h-384v61h456v-69l-400 -586h404v-61h-476v69z" />
    <glyph glyph-name="Eta" unicode="&#x397;" horiz-adv-x="682" 
d="M77 716h64v-320h400v320h64v-716h-64v336h-400v-336h-64v716z" />
    <glyph glyph-name="Theta" unicode="&#x398;" horiz-adv-x="824" 
d="M257 328v61h310v-61h-310zM405 -16q-79 0 -146 29.5t-115.5 80.5t-76 119t-27.5 145t27.5 145t76 119t115.5 80.5t146 29.5q78 0 145 -29.5t116 -80.5t76.5 -119t27.5 -145t-27.5 -145t-76.5 -119t-116 -80.5t-145 -29.5zM405 45q61 0 116 23t95.5 64.5t64.5 99t24 126.5
t-24 126.5t-64.5 99t-95.5 64.5t-116 23q-62 0 -116.5 -23t-95.5 -64.5t-64.5 -99t-23.5 -126.5t23.5 -126.5t64.5 -99t95.5 -64.5t116.5 -23z" />
    <glyph glyph-name="Iota" unicode="&#x399;" horiz-adv-x="218" 
d="M77 716h64v-716h-64v716z" />
    <glyph glyph-name="Kappa" unicode="&#x39a;" horiz-adv-x="581" 
d="M568 712l-346 -363l356 -345v-4h-89l-344 339h-4v-339h-64v716h64v-360h4l339 360h84v-4z" />
    <glyph glyph-name="Lambda" unicode="&#x39b;" horiz-adv-x="625" 
d="M276 716h74l263 -716h-71l-227 638h-4l-227 -638h-71z" />
    <glyph glyph-name="Mu" unicode="&#x39c;" horiz-adv-x="825" 
d="M77 716h63l271 -473h4l270 473h63v-716h-63v477l4 120h-4l-254 -445h-37l-254 445h-4l4 -120v-477h-63v716z" />
    <glyph glyph-name="Nu" unicode="&#x39d;" horiz-adv-x="690" 
d="M77 716h83l389 -604h4l-4 138v466h64v-716h-66l-406 631h-4l4 -138v-493h-64v716z" />
    <glyph glyph-name="Xi" unicode="&#x39e;" horiz-adv-x="479" 
d="M30 655v61h420v-61h-420zM30 0v61h420v-61h-420zM62 328v61h356v-61h-356z" />
    <glyph glyph-name="Omicron" unicode="&#x39f;" horiz-adv-x="809" 
d="M405 -16q-79 0 -146 29.5t-115.5 80.5t-76 119t-27.5 145t27.5 145t76 119t115.5 80.5t146 29.5q78 0 145 -29.5t116 -80.5t76.5 -119t27.5 -145t-27.5 -145t-76.5 -119t-116 -80.5t-145 -29.5zM405 45q61 0 116 23t95.5 64.5t64.5 99t24 126.5t-24 126.5t-64.5 99
t-95.5 64.5t-116 23q-62 0 -116.5 -23t-95.5 -64.5t-64.5 -99t-23.5 -126.5t23.5 -126.5t64.5 -99t95.5 -64.5t116.5 -23z" />
    <glyph glyph-name="Pi" unicode="&#x3a0;" horiz-adv-x="658" 
d="M77 716h504v-716h-64v655h-376v-655h-64v716z" />
    <glyph glyph-name="Rho" unicode="&#x3a1;" horiz-adv-x="557" 
d="M77 0v716h232q46 0 86.5 -15t70.5 -42.5t47.5 -66t17.5 -85.5t-17.5 -85.5t-47.5 -66t-70.5 -42.5t-86.5 -15h-168v-298h-64zM312 359q33 0 61 11.5t48.5 31.5t32.5 47t12 58t-12 58.5t-32.5 47t-48.5 31t-61 11.5h-171v-296h171z" />
    <glyph glyph-name="Sigma" unicode="&#x3a3;" horiz-adv-x="495" 
d="M114 655l231 -289l-231 -305h352v-61h-423v67l225 300l-225 282v67h423v-61h-352z" />
    <glyph glyph-name="Tau" unicode="&#x3a4;" horiz-adv-x="521" 
d="M229 0v655h-203v61h470v-61h-203v-655h-64z" />
    <glyph glyph-name="Upsilon" unicode="&#x3a5;" horiz-adv-x="579" 
d="M260 0v324l-247 392h75l202 -326h4l198 326h75l-243 -392v-324h-64z" />
    <glyph glyph-name="Phi" unicode="&#x3a6;" horiz-adv-x="777" 
d="M357 0v57q-71 4 -129.5 28.5t-100 64t-64.5 92.5t-23 116t23 116t64.5 92.5t100 63.5t129.5 29v57h64v-57q71 -5 129.5 -29t100 -63.5t64.5 -92.5t23 -116t-23 -116t-64.5 -92.5t-100 -64t-129.5 -28.5v-57h-64zM673 358q0 49 -17.5 91t-50 74t-79.5 51.5t-105 24.5v-482
q58 4 105 24t79.5 52t50 74t17.5 91zM105 358q0 -49 17.5 -91t50 -74t79 -52t105.5 -24v482q-59 -5 -105.5 -24.5t-79 -51.5t-50 -74t-17.5 -91z" />
    <glyph glyph-name="Chi" unicode="&#x3a7;" horiz-adv-x="612" 
d="M265 370l-235 346h79l195 -294h4l197 294h77l-234 -346l247 -370h-77l-210 315h-4l-210 -315h-77z" />
    <glyph glyph-name="Psi" unicode="&#x3a8;" horiz-adv-x="727" 
d="M396 0h-64v156q-58 0 -107.5 19.5t-86 56t-57.5 89.5t-21 120v275h64v-277q0 -51 15 -92t42 -70t65.5 -44.5t85.5 -15.5v499h64v-499q47 0 85.5 15.5t65.5 44.5t42 70t15 92v277h64v-275q0 -67 -21 -120t-57.5 -89.5t-86 -56t-107.5 -19.5v-156z" />
    <glyph glyph-name="uni03A9" unicode="&#x3a9;" horiz-adv-x="781" 
d="M450 0v97q45 12 85.5 38.5t70.5 64t47.5 85t17.5 102.5q0 59 -21.5 110.5t-59.5 90t-89 61t-110 22.5t-110 -22.5t-89 -61t-59.5 -90t-21.5 -110.5q0 -55 17.5 -102.5t47.5 -85t70.5 -64t85.5 -38.5v-97h-271v61h195v4q-104 49 -157 134t-53 189q0 68 26 130.5t71.5 110
t109 75.5t138.5 28t138.5 -28t109 -75.5t71.5 -110t26 -130.5q0 -104 -53.5 -189t-156.5 -134v-4h195v-61h-271z" />
    <glyph glyph-name="Iotadieresis" unicode="&#x3aa;" horiz-adv-x="218" 
d="M177 808q-17 0 -29.5 12.5t-12.5 29.5q0 18 12.5 30t29.5 12q18 0 30 -12t12 -30q0 -17 -12 -29.5t-30 -12.5zM41 808q-17 0 -29.5 12.5t-12.5 29.5q0 18 12.5 30t29.5 12q18 0 30 -12t12 -30q0 -17 -12 -29.5t-30 -12.5zM77 716h64v-716h-64v716z" />
    <glyph glyph-name="Upsilondieresis" unicode="&#x3ab;" horiz-adv-x="579" 
d="M260 0v324l-247 392h75l202 -326h4l198 326h75l-243 -392v-324h-64zM369 799q-18 0 -31.5 13t-13.5 31q0 20 13.5 32.5t31.5 12.5q19 0 31.5 -12.5t12.5 -32.5q0 -18 -12.5 -31t-31.5 -13zM215 799q-18 0 -31.5 13t-13.5 31q0 20 13.5 32.5t31.5 12.5q19 0 31.5 -12.5
t12.5 -32.5q0 -18 -12.5 -31t-31.5 -13z" />
    <glyph glyph-name="alphatonos" unicode="&#x3ac;" horiz-adv-x="565" 
d="M236 592l52 124h73l-67 -124h-58zM261 -16q-47 0 -89 19.5t-73.5 54t-50 82.5t-18.5 105t18.5 105t50 82.5t73.5 54t89 19.5q70 0 116 -30t69 -71h4v85h60v-490h-60v86h-4q-12 -20 -29 -38.5t-40 -32.5t-52 -22.5t-64 -8.5zM272 42q35 0 67.5 13.5t57 40t39 64t14.5 85.5
t-14.5 86t-39 64t-57 39.5t-67.5 13.5t-67.5 -14t-57 -40.5t-39 -64t-14.5 -84.5t14.5 -85t39 -64t57 -40t67.5 -14z" />
    <glyph glyph-name="epsilontonos" unicode="&#x3ad;" horiz-adv-x="479" 
d="M238 448q-54 0 -86 -25t-32 -59q0 -39 28 -63t70 -24h74v-54h-77q-55 0 -83 -27t-28 -61q0 -38 34 -65t100 -27q44 0 78 17.5t68 54.5l44 -43q-36 -42 -86.5 -65t-101.5 -23q-45 0 -82 10.5t-63.5 30t-41 47t-14.5 60.5q0 44 25.5 74t65.5 44v6q-32 14 -53 41t-21 71
q0 31 15 56.5t40.5 43.5t58.5 28t68 10q49 0 92.5 -19.5t81.5 -62.5l-43 -41q-32 35 -62.5 50t-68.5 15zM208 592l52 124h73l-67 -124h-58z" />
    <glyph glyph-name="etatonos" unicode="&#x3ae;" horiz-adv-x="543" 
d="M252 592l52 124h73l-67 -124h-58zM124 398h4q12 22 29 41.5t39.5 34.5t49.5 23.5t58 8.5q45 0 78.5 -15.5t56 -42.5t34 -64.5t11.5 -80.5v-519h-64v508q0 76 -35 116t-98 40q-35 0 -64 -15.5t-50 -42t-33 -60.5t-12 -71v-259h-64v490h60v-92z" />
    </font>
</defs>
</svg>
